{
.appVersion = "1346";
customParameters = (
{
name = glyphOrder;
value = (
.notdef,
o,
b,
g,
h,
n,
u,
y,
f,
q,
c,
e,
k,
r,
d,
p,
m,
i,
l,
s,
t,
v,
w,
x,
a,
z,
j,
A,
E,
F,
L,
P,
B,
C,
D,
G,
H,
I,
J,
K,
M,
N,
O,
Q,
R,
S,
T,
U,
V,
W,
X,
Y,
Z,
uni0410,
uni0411,
uni0412,
uni0413,
uni0414,
uni0415,
uni0416,
uni0417,
uni0418,
uni0419,
uni041A,
uni041B,
uni041C,
uni041D,
uni041E,
uni041F,
uni0420,
uni0421,
uni0422,
uni0423,
uni0424,
uni0425,
uni0426,
uni0427,
uni0428,
uni0429,
uni042A,
uni042B,
uni042C,
uni042D,
uni042E,
uni042F,
uni0401,
uni0430,
uni0431,
uni0432,
uni0433,
uni0434,
uni0435,
uni0436,
uni0437,
uni0438,
uni0439,
uni043A,
uni043B,
uni043C,
uni043D,
uni043E,
uni043F,
uni0440,
uni0441,
uni0442,
uni0443,
uni0444,
uni0445,
uni0446,
uni0447,
uni0448,
uni0449,
uni044A,
uni044B,
uni044C,
uni044D,
uni044E,
uni044F,
uni0451,
breve,
dieresis,
comma,
period,
emdash,
exclam,
zero,
one,
two,
three,
four,
five,
six,
seven,
eight,
nine,
colon,
semicolon,
space,
quotedblleft,
quotedblright,
quoteleft,
quoteright,
endash,
underscore,
minus,
plusminus,
plus,
hyphen,
equal,
slash,
backslash,
bar,
parenleft,
parenright,
braceleft,
braceright,
bracketleft,
bracketright,
asterisk,
greater,
less,
guillemotleft,
guilsinglleft,
guilsinglright,
guillemotright,
multiply,
trademark,
registered,
copyright,
degree,
exclamdown,
questiondown,
onequarter,
onehalf,
threequarters,
section,
dotaccent,
ring,
hungarumlaut,
ogonek,
caron,
dotlessi,
grave,
circumflex,
acute,
cedilla,
numbersign,
at,
dollar,
Euro,
percent,
ampersand,
question,
quotesingle,
quotedbl,
tilde,
asciitilde,
ellipsis,
divide,
bullet,
cent,
sterling,
yen,
dagger,
daggerdbl,
mu,
fraction,
quotedblbase,
quotesinglbase,
macron,
uni0431.alt,
uni20BD,
fi,
fl,
Uring,
uring,
Utilde,
Ubreve,
Ccedilla,
Agrave,
Aacute,
Acircumflex,
Atilde,
Adieresis,
Aring,
Egrave,
Eacute,
Ecircumflex,
Edieresis,
Igrave,
Iacute,
Icircumflex,
Idieresis,
Ntilde,
Ograve,
Oacute,
Eth,
Ocircumflex,
Otilde,
Odieresis,
Oslash,
Ugrave,
Uacute,
Ucircumflex,

glyphs = (
{
glyphname = o;
layers = (
{
layerId = "f35759b4-f9e3-4796-9f66-20855be2e20d";
paths = (
{
closed = 1;
nodes = (
"123 510 OFFCURVE",
"27 406 OFFCURVE",
"27 250 CURVE SMOOTH",
"27 94 OFFCURVE",
"123 -10 OFFCURVE",
"245 -10 CURVE SMOOTH",
"368 -10 OFFCURVE",
"466 94 OFFCURVE",
"466 250 CURVE SMOOTH",
"466 406 OFFCURVE",
"368 510 OFFCURVE",
"245 510 CURVE SMOOTH"
);
},
{
closed = 1;
nodes = (
"290 89 OFFCURVE",
"212 3 OFFCURVE",
"165 19 CURVE SMOOTH",
"115 37 OFFCURVE",
"113 149 OFFCURVE",
"160 279 CURVE SMOOTH",
"206 406 OFFCURVE",
"279 495 OFFCURVE",
"329 479 CURVE SMOOTH",
"375 464 OFFCURVE",
"378 349 OFFCURVE",
"334 219 CURVE SMOOTH"
);
},
{
closed = 1;
nodes = (
"123 510 OFFCURVE",
"27 406 OFFCURVE",
"27 250 CURVE SMOOTH",
"27 94 OFFCURVE",
"123 -10 OFFCURVE",
"245 -10 CURVE SMOOTH",
"368 -10 OFFCURVE",
"466 94 OFFCURVE",
"466 250 CURVE SMOOTH",
"466 406 OFFCURVE",
"368 510 OFFCURVE",
"245 510 CURVE SMOOTH"
);
},
{
closed = 1;
nodes = (
"290 89 OFFCURVE",
"212 3 OFFCURVE",
"165 19 CURVE SMOOTH",
"115 37 OFFCURVE",
"113 149 OFFCURVE",
"160 279 CURVE SMOOTH",
"206 406 OFFCURVE",
"279 495 OFFCURVE",
"329 479 CURVE SMOOTH",
"375 464 OFFCURVE",
"378 349 OFFCURVE",
"334 219 CURVE SMOOTH"
);
}
);
width = 493;
}
);
leftKerningGroup = o_left;
rightKerningGroup = o_right;
unicode = 006F;
},
{
glyphname = b;
layers = (
{
layerId = "f35759b4-f9e3-4796-9f66-20855be2e20d";
paths = (
{
closed = 1;
nodes = (
"159 0 LINE",
"185 361 OFFCURVE",
"313 505 OFFCURVE",
"384 477 CURVE SMOOTH",
"437 456 OFFCURVE",
"428 348 OFFCURVE",
"383 220 CURVE SMOOTH",
"337 90 OFFCURVE",
"271 11 OFFCURVE",
"219 21 CURVE SMOOTH",
"203 24 OFFCURVE",
"182 37 OFFCURVE",
"160 58 CURVE",
"156 45 LINE",
"194 10 OFFCURVE",
"242 -10 OFFCURVE",
"295 -10 CURVE SMOOTH",
"418 -10 OFFCURVE",
"516 95 OFFCURVE",
"516 250 CURVE SMOOTH",
"516 405 OFFCURVE",
"418 510 OFFCURVE",
"296 510 CURVE",
"222 488 OFFCURVE",
"158 251 OFFCURVE",
"147 0 CURVE"
);
},
{
closed = 1;
nodes = (
"36 785 LINE",
"78 0 LINE",
"137 0 LINE",
"135 276 OFFCURVE",
"148 531 OFFCURVE",
"197 785 CURVE"
);
},
{
closed = 1;
nodes = (
"151 0 LINE",
"151 13 LINE",
"115 13 LINE",
"115 0 LINE"
);
},
{
closed = 1;
nodes = (
"121 3 LINE",
"121 3 LINE",
"121 3 LINE",
"121 3 LINE"
);
}
);
width = 543;
}
);
rightKerningGroup = o_right;
unicode = 0062;
},
{
glyphname = g;
layers = (
{
associatedMasterId = "f35759b4-f9e3-4796-9f66-20855be2e20d";
layerId = "48ec0d1b-4194-4469-beb4-1520d4777611";
name = public.background;
width = 524;
},
{
layerId = "f35759b4-f9e3-4796-9f66-20855be2e20d";
paths = (
{
closed = 1;
nodes = (
"381 500 LINE",
"355 139 OFFCURVE",
"227 -5 OFFCURVE",
"156 23 CURVE SMOOTH",
"103 44 OFFCURVE",
"112 152 OFFCURVE",
"157 280 CURVE SMOOTH",
"203 410 OFFCURVE",
"269 489 OFFCURVE",
"321 479 CURVE SMOOTH",
"337 476 OFFCURVE",
"358 463 OFFCURVE",
"380 442 CURVE",
"384 455 LINE",
"346 490 OFFCURVE",
"298 510 OFFCURVE",
"245 510 CURVE SMOOTH",
"122 510 OFFCURVE",
"24 405 OFFCURVE",
"24 250 CURVE SMOOTH",
"24 95 OFFCURVE",
"122 -10 OFFCURVE",
"244 -10 CURVE",
"318 12 OFFCURVE",
"382 249 OFFCURVE",
"393 500 CURVE"
);
},
{
closed = 1;
nodes = (
"405 500 LINE",
"405 102 OFFCURVE",
"323 -102 OFFCURVE",
"323 -102 CURVE",
"234 -5 OFFCURVE",
"26 18 OFFCURVE",
"26 -133 CURVE SMOOTH",
"26 -245 OFFCURVE",
"229 -322 OFFCURVE",
"337 -322 CURVE",
"418 -290 OFFCURVE",
"497 -116 OFFCURVE",
"465 500 CURVE"
);
},
{
closed = 1;
nodes = (
"93 -225 OFFCURVE",
"144 -1 OFFCURVE",
"267 -73 CURVE SMOOTH",
"303 -95 OFFCURVE",
"318 -117 OFFCURVE",
"318 -117 CURVE",
"277 -234 OFFCURVE",
"207 -292 OFFCURVE",
"163 -266 CURVE SMOOTH"
);
},
{
closed = 1;
nodes = (
"425 488 LINE",
"425 500 LINE",
"389 500 LINE",
"389 488 LINE"
);
},
{
closed = 1;
nodes = (
"419 497 LINE",
"419 497 LINE",
"419 497 LINE",
"419 497 LINE"
);
}
);
width = 496;
}
);
leftKerningGroup = o_left;
rightKerningGroup = g;
unicode = 0067;
},
{
glyphname = h;
layers = (
{
layerId = "f35759b4-f9e3-4796-9f66-20855be2e20d";
paths = (
{
closed = 1;
nodes = (
"36 785 LINE",
"78 0 LINE",
"137 0 LINE",
"135 276 OFFCURVE",
"148 531 OFFCURVE",
"197 785 CURVE"
);
},
{
closed = 1;
nodes = (
"161 0 LINE",
"188 358 OFFCURVE",
"323 504 OFFCURVE",
"394 476 CURVE SMOOTH",
"447 455 OFFCURVE",
"436 345 OFFCURVE",
"392 219 CURVE SMOOTH",
"349 99 OFFCURVE",
"305 0 OFFCURVE",
"305 0 CURVE",
"479 0 LINE",
"479 0 OFFCURVE",
"526 158 OFFCURVE",
"526 250 CURVE SMOOTH",
"526 405 OFFCURVE",
"427 510 OFFCURVE",
"305 510 CURVE",
"231 488 OFFCURVE",
"159 251 OFFCURVE",
"149 0 CURVE"
);
},
{
closed = 1;
nodes = (
"154 0 LINE",
"154 12 LINE",
"118 12 LINE",
"118 0 LINE"
);
},
{
closed = 1;
nodes = (
"152 8 LINE",
"152 8 LINE",
"152 8 LINE",
"152 8 LINE"
);
}
);
width = 558;
}
);
leftKerningGroup = h;
rightKerningGroup = h11;
unicode = 0068;
},
{
glyphname = n;
layers = (
{
layerId = "f35759b4-f9e3-4796-9f66-20855be2e20d";
paths = (
{
closed = 1;
nodes = (
"146 0 LINE",
"112 0 LINE",
"112 11 LINE",
"146 11 LINE"
);
},
{
closed = 1;
nodes = (
"143 0 LINE",
"153 251 OFFCURVE",
"245 488 OFFCURVE",
"318 510 CURVE",
"440 510 OFFCURVE",
"539 405 OFFCURVE",
"539 250 CURVE SMOOTH",
"539 158 OFFCURVE",
"492 0 OFFCURVE",
"492 0 CURVE",
"319 0 LINE",
"319 0 OFFCURVE",
"364 99 OFFCURVE",
"405 219 CURVE SMOOTH",
"449 345 OFFCURVE",
"460 455 OFFCURVE",
"407 476 CURVE SMOOTH",
"336 504 OFFCURVE",
"181 358 OFFCURVE",
"154 0 CURVE"
);
},
{
closed = 1;
nodes = (
"73 0 LINE",
"47 500 LINE",
"207 500 LINE",
"198 482 OFFCURVE",
"132 324 OFFCURVE",
"132 0 CURVE"
);
}
);
width = 571;
}
);
leftKerningGroup = n_left;
rightKerningGroup = n_right;
unicode = 006E;
},
{
glyphname = u;
layers = (
{
layerId = "f35759b4-f9e3-4796-9f66-20855be2e20d";
paths = (
{
closed = 1;
nodes = (
"455 492 LINE",
"455 492 LINE",
"455 493 LINE",
"455 493 LINE"
);
},
{
closed = 1;
nodes = (
"429 500 LINE",
"418 249 OFFCURVE",
"327 12 OFFCURVE",
"253 -10 CURVE",
"131 -10 OFFCURVE",
"32 95 OFFCURVE",
"32 250 CURVE SMOOTH",
"32 342 OFFCURVE",
"79 500 OFFCURVE",
"79 500 CURVE",
"252 500 LINE",
"252 500 OFFCURVE",
"208 401 OFFCURVE",
"166 281 CURVE SMOOTH",
"122 155 OFFCURVE",
"111 45 OFFCURVE",
"164 24 CURVE SMOOTH",
"235 -4 OFFCURVE",
"390 142 OFFCURVE",
"417 500 CURVE"
);
},
{
closed = 1;
nodes = (
"525 0 LINE",
"364 0 LINE",
"374 18 OFFCURVE",
"439 176 OFFCURVE",
"439 500 CURVE",
"498 500 LINE"
);
},
{
closed = 1;
nodes = (
"423 488 LINE",
"423 500 LINE",
"459 500 LINE",
"459 488 LINE"
);
}
);
width = 570;
}
);
leftKerningGroup = u_left;
rightKerningGroup = u_right;
unicode = 0075;
},
{
glyphname = y;
layers = (
{
layerId = "f35759b4-f9e3-4796-9f66-20855be2e20d";
paths = (
{
closed = 1;
nodes = (
"407 500 LINE",
"407 102 OFFCURVE",
"325 -102 OFFCURVE",
"325 -102 CURVE",
"236 -5 OFFCURVE",
"28 18 OFFCURVE",
"28 -133 CURVE SMOOTH",
"28 -246 OFFCURVE",
"231 -322 OFFCURVE",
"339 -322 CURVE",
"420 -290 OFFCURVE",
"499 -116 OFFCURVE",
"466 500 CURVE"
);
},
{
closed = 1;
nodes = (
"95 -225 OFFCURVE",
"146 -1 OFFCURVE",
"269 -73 CURVE SMOOTH",
"305 -95 OFFCURVE",
"320 -117 OFFCURVE",
"320 -117 CURVE",
"279 -234 OFFCURVE",
"209 -292 OFFCURVE",
"165 -266 CURVE SMOOTH"
);
},
{
closed = 1;
nodes = (
"392 492 LINE",
"392 492 LINE",
"392 492 LINE",
"392 492 LINE"
);
},
{
closed = 1;
nodes = (
"384 500 LINE",
"357 142 OFFCURVE",
"222 -4 OFFCURVE",
"151 24 CURVE SMOOTH",
"98 45 OFFCURVE",
"109 155 OFFCURVE",
"153 281 CURVE SMOOTH",
"195 401 OFFCURVE",
"239 500 OFFCURVE",
"239 500 CURVE",
"66 500 LINE",
"66 500 OFFCURVE",
"20 342 OFFCURVE",
"20 250 CURVE SMOOTH",
"20 95 OFFCURVE",
"118 -10 OFFCURVE",
"240 -10 CURVE",
"314 12 OFFCURVE",
"386 249 OFFCURVE",
"396 500 CURVE"
);
},
{
closed = 1;
nodes = (
"429 488 LINE",
"429 500 LINE",
"392 500 LINE",
"392 488 LINE"
);
}
);
width = 494;
}
);
leftKerningGroup = y;
rightKerningGroup = g11;
unicode = 0079;
},
{
glyphname = f;
layers = (
{
layerId = "f35759b4-f9e3-4796-9f66-20855be2e20d";
paths = (
{
closed = 1;
nodes = (
"118 0 LINE",
"144 360 OFFCURVE",
"265 412 OFFCURVE",
"349 361 CURVE",
"342 492 LINE",
"316 504 OFFCURVE",
"288 510 OFFCURVE",
"258 510 CURVE",
"183 488 OFFCURVE",
"117 251 OFFCURVE",
"106 0 CURVE"
);
},
{
closed = 1;
nodes = (
"96 0 LINE",
"108 685 OFFCURVE",
"280 791 OFFCURVE",
"329 763 CURVE SMOOTH",
"355 748 OFFCURVE",
"339 677 OFFCURVE",
"302 633 CURVE",
"420 633 LINE",
"420 761 OFFCURVE",
"274 819 OFFCURVE",
"163 819 CURVE",
"95 798 OFFCURVE",
"-2 636 OFFCURVE",
"32 0 CURVE"
);
},
{
closed = 1;
nodes = (
"116 0 LINE",
"116 12 LINE",
"79 12 LINE",
"79 0 LINE"
);
}
);
width = 424;
}
);
unicode = 0066;
},
{
glyphname = q;
layers = (
{
layerId = "f35759b4-f9e3-4796-9f66-20855be2e20d";
paths = (
{
closed = 1;
nodes = (
"380 500 LINE",
"354 139 OFFCURVE",
"226 -5 OFFCURVE",
"155 23 CURVE SMOOTH",
"102 44 OFFCURVE",
"111 152 OFFCURVE",
"156 280 CURVE SMOOTH",
"202 410 OFFCURVE",
"268 489 OFFCURVE",
"320 479 CURVE SMOOTH",
"336 476 OFFCURVE",
"357 463 OFFCURVE",
"379 442 CURVE",
"383 455 LINE",
"345 490 OFFCURVE",
"297 510 OFFCURVE",
"244 510 CURVE SMOOTH",
"121 510 OFFCURVE",
"23 405 OFFCURVE",
"23 250 CURVE SMOOTH",
"23 95 OFFCURVE",
"121 -10 OFFCURVE",
"243 -10 CURVE",
"317 12 OFFCURVE",
"381 249 OFFCURVE",
"392 500 CURVE"
);
},
{
closed = 1;
nodes = (
"504 -285 LINE",
"462 500 LINE",
"402 500 LINE",
"405 224 OFFCURVE",
"392 -31 OFFCURVE",
"343 -285 CURVE"
);
},
{
closed = 1;
nodes = (
"388 500 LINE",
"388 488 LINE",
"424 488 LINE",
"424 500 LINE"
);
},
{
closed = 1;
nodes = (
"418 497 LINE",
"418 497 LINE",
"418 497 LINE",
"418 497 LINE"
);
}
);
width = 539;
}
);
leftKerningGroup = o_left;
unicode = 0071;
},
{
glyphname = c;
layers = (
{
associatedMasterId = "f35759b4-f9e3-4796-9f66-20855be2e20d";
layerId = "48ec0d1b-4194-4469-beb4-1520d4777611";
name = public.background;
width = 520;
},
{
layerId = "f35759b4-f9e3-4796-9f66-20855be2e20d";
paths = (
{
closed = 1;
nodes = (
"205 411 OFFCURVE",
"274 501 OFFCURVE",
"327 481 CURVE SMOOTH",
"380 460 OFFCURVE",
"365 346 OFFCURVE",
"303 308 CURVE",
"462 308 LINE",
"441 431 OFFCURVE",
"353 510 OFFCURVE",
"247 510 CURVE SMOOTH",
"124 510 OFFCURVE",
"27 408 OFFCURVE",
"27 250 CURVE SMOOTH",
"27 92 OFFCURVE",
"124 -10 OFFCURVE",
"247 -10 CURVE SMOOTH",
"366 -10 OFFCURVE",
"467 89 OFFCURVE",
"467 263 CURVE",
"303 263 LINE",
"363 83 OFFCURVE",
"239 -9 OFFCURVE",
"172 17 CURVE SMOOTH",
"113 39 OFFCURVE",
"111 150 OFFCURVE",
"168 308 CURVE SMOOTH"
);
}
);
width = 494;
}
);
leftKerningGroup = o_left;
rightKerningGroup = o_right;
unicode = 0063;
},
{
glyphname = e;
layers = (
{
associatedMasterId = "f35759b4-f9e3-4796-9f66-20855be2e20d";
layerId = "48ec0d1b-4194-4469-beb4-1520d4777611";
name = public.background;
width = 530;
},
{
layerId = "f35759b4-f9e3-4796-9f66-20855be2e20d";
paths = (
{
closed = 1;
nodes = (
"134 308 LINE",
"463 308 LINE",
"442 431 OFFCURVE",
"353 510 OFFCURVE",
"247 510 CURVE SMOOTH",
"123 510 OFFCURVE",
"27 407 OFFCURVE",
"27 250 CURVE SMOOTH",
"27 93 OFFCURVE",
"123 -10 OFFCURVE",
"246 -10 CURVE SMOOTH",
"366 -10 OFFCURVE",
"467 88 OFFCURVE",
"467 263 CURVE",
"303 263 LINE",
"364 78 OFFCURVE",
"238 -9 OFFCURVE",
"172 16 CURVE SMOOTH",
"112 39 OFFCURVE",
"112 151 OFFCURVE",
"169 308 CURVE SMOOTH",
"210 420 OFFCURVE",
"280 499 OFFCURVE",
"328 480 CURVE SMOOTH",
"383 459 OFFCURVE",
"375 321 OFFCURVE",
"244 321 CURVE SMOOTH",
"134 321 LINE"
);
}
);
width = 494;
}
);
leftKerningGroup = o_left;
rightKerningGroup = o_right;
unicode = 0065;
},
{
glyphname = k;
layers = (
{
layerId = "f35759b4-f9e3-4796-9f66-20855be2e20d";
paths = (
{
closed = 1;
nodes = (
"36 785 LINE",
"78 0 LINE",
"137 0 LINE",
"135 276 OFFCURVE",
"148 531 OFFCURVE",
"197 785 CURVE"
);
},
{
closed = 1;
nodes = (
"171 0 LINE",
"171 12 LINE",
"135 12 LINE",
"135 0 LINE"
);
},
{
closed = 1;
nodes = (
"488 494 LINE",
"488 494 OFFCURVE",
"410 511 OFFCURVE",
"294 511 CURVE",
"220 489 OFFCURVE",
"158 251 OFFCURVE",
"147 1 CURVE",
"160 1 LINE",
"188 355 OFFCURVE",
"304 387 OFFCURVE",
"376 387 CURVE SMOOTH",
"435 387 OFFCURVE",
"496 360 OFFCURVE",
"496 360 CURVE"
);
},
{
closed = 1;
nodes = (
"251 303 OFFCURVE",
"193 162 OFFCURVE",
"170 0 CURVE",
"182 0 LINE",
"224 213 OFFCURVE",
"335 311 OFFCURVE",
"394 291 CURVE SMOOTH",
"449 273 OFFCURVE",
"449 133 OFFCURVE",
"336 0 CURVE",
"512 0 LINE",
"521 37 OFFCURVE",
"529 77 OFFCURVE",
"529 108 CURVE SMOOTH",
"529 233 OFFCURVE",
"432 318 OFFCURVE",
"312 318 CURVE"
);
}
);
width = 547;
}
);
leftKerningGroup = h;
unicode = 006B;
},
{
glyphname = r;
layers = (
{
layerId = "f35759b4-f9e3-4796-9f66-20855be2e20d";
paths = (
{
closed = 1;
nodes = (
"74 0 LINE",
"47 500 LINE",
"208 500 LINE",
"199 482 OFFCURVE",
"134 324 OFFCURVE",
"134 0 CURVE"
);
},
{
closed = 1;
nodes = (
"144 0 LINE",
"155 251 OFFCURVE",
"243 488 OFFCURVE",
"317 510 CURVE",
"409 510 OFFCURVE",
"478 471 OFFCURVE",
"478 471 CURVE",
"485 330 LINE",
"485 330 OFFCURVE",
"435 376 OFFCURVE",
"377 384 CURVE SMOOTH",
"318 393 OFFCURVE",
"176 349 OFFCURVE",
"156 0 CURVE"
);
},
{
closed = 1;
nodes = (
"151 0 LINE",
"116 0 LINE",
"116 12 LINE",
"151 12 LINE"
);
}
);
width = 510;
}
);
leftKerningGroup = n_left;
rightKerningGroup = r;
unicode = 0072;
},
{
glyphname = d;
layers = (
{
layerId = "f35759b4-f9e3-4796-9f66-20855be2e20d";
paths = (
{
closed = 1;
nodes = (
"454 785 LINE",
"454 397 OFFCURVE",
"433 182 OFFCURVE",
"356 0 CURVE",
"516 0 LINE",
"476 785 LINE"
);
},
{
closed = 1;
nodes = (
"379 170 OFFCURVE",
"228 -5 OFFCURVE",
"160 23 CURVE SMOOTH",
"104 45 OFFCURVE",
"116 150 OFFCURVE",
"160 280 CURVE",
"206 409 OFFCURVE",
"276 493 OFFCURVE",
"328 478 CURVE SMOOTH",
"361 468 OFFCURVE",
"392 437 OFFCURVE",
"409 410 CURVE",
"414 427 LINE",
"361 491 OFFCURVE",
"300 510 OFFCURVE",
"247 510 CURVE SMOOTH",
"126 510 OFFCURVE",
"27 405 OFFCURVE",
"27 250 CURVE SMOOTH",
"27 95 OFFCURVE",
"126 -10 OFFCURVE",
"247 -10 CURVE",
"321 12 OFFCURVE",
"443 330 OFFCURVE",
"443 785 CURVE",
"350 785 LINE",
"350 785 OFFCURVE",
"417 617 OFFCURVE",
"402 438 CURVE SMOOTH"
);
},
{
closed = 1;
nodes = (
"465 773 LINE",
"465 785 LINE",
"428 785 LINE",
"428 773 LINE"
);
}
);
width = 538;
}
);
leftKerningGroup = o_left;
unicode = 0064;
},
{
glyphname = p;
layers = (
{
layerId = "f35759b4-f9e3-4796-9f66-20855be2e20d";
paths = (
{
closed = 1;
nodes = (
"85 -285 LINE",
"85 103 OFFCURVE",
"107 318 OFFCURVE",
"183 500 CURVE",
"23 500 LINE",
"63 -285 LINE"
);
},
{
closed = 1;
nodes = (
"160 330 OFFCURVE",
"311 504 OFFCURVE",
"380 477 CURVE SMOOTH",
"435 455 OFFCURVE",
"423 350 OFFCURVE",
"379 220 CURVE",
"334 91 OFFCURVE",
"263 7 OFFCURVE",
"212 22 CURVE SMOOTH",
"178 32 OFFCURVE",
"147 63 OFFCURVE",
"131 90 CURVE",
"126 73 LINE",
"178 9 OFFCURVE",
"239 -10 OFFCURVE",
"292 -10 CURVE SMOOTH",
"414 -10 OFFCURVE",
"512 95 OFFCURVE",
"512 251 CURVE SMOOTH",
"512 405 OFFCURVE",
"414 510 OFFCURVE",
"292 510 CURVE",
"218 488 OFFCURVE",
"96 170 OFFCURVE",
"96 -285 CURVE",
"190 -285 LINE",
"190 -285 OFFCURVE",
"122 -118 OFFCURVE",
"137 62 CURVE SMOOTH"
);
},
{
closed = 1;
nodes = (
"75 -273 LINE",
"75 -285 LINE",
"111 -285 LINE",
"111 -273 LINE"
);
}
);
width = 539;
}
);
rightKerningGroup = o_right;
unicode = 0070;
},
{
glyphname = m;
layers = (
{
layerId = "f35759b4-f9e3-4796-9f66-20855be2e20d";
paths = (
{
closed = 1;
nodes = (
"74 0 LINE",
"47 500 LINE",
"208 500 LINE",
"198 482 OFFCURVE",
"133 324 OFFCURVE",
"133 0 CURVE"
);
},
{
closed = 1;
nodes = (
"485 0 LINE",
"496 251 OFFCURVE",
"587 488 OFFCURVE",
"661 510 CURVE",
"783 510 OFFCURVE",
"882 405 OFFCURVE",
"882 250 CURVE SMOOTH",
"882 158 OFFCURVE",
"835 0 OFFCURVE",
"835 0 CURVE",
"662 0 LINE",
"662 0 OFFCURVE",
"706 99 OFFCURVE",
"748 219 CURVE SMOOTH",
"792 345 OFFCURVE",
"803 455 OFFCURVE",
"750 476 CURVE SMOOTH",
"679 504 OFFCURVE",
"524 358 OFFCURVE",
"497 0 CURVE"
);
},
{
closed = 1;
nodes = (
"340 -1 LINE",
"340 -1 OFFCURVE",
"340 99 OFFCURVE",
"382 219 CURVE SMOOTH",
"426 349 OFFCURVE",
"464 452 OFFCURVE",
"408 475 CURVE SMOOTH",
"339 501 OFFCURVE",
"181 361 OFFCURVE",
"155 0 CURVE",
"143 -1 LINE",
"154 250 OFFCURVE",
"243 488 OFFCURVE",
"317 510 CURVE",
"407 510 OFFCURVE",
"484 452 OFFCURVE",
"519 359 CURVE",
"496 278 OFFCURVE",
"475 152 OFFCURVE",
"475 -1 CURVE"
);
},
{
closed = 1;
nodes = (
"150 0 LINE",
"114 0 LINE",
"114 12 LINE",
"150 12 LINE"
);
},
{
closed = 1;
nodes = (
"497 0 LINE",
"461 0 LINE",
"461 12 LINE",
"497 12 LINE"
);
}
);
width = 914;
}
);
leftKerningGroup = n_left;
rightKerningGroup = n_right;
unicode = 006D;
},
{
glyphname = i;
layers = (
{
layerId = "f35759b4-f9e3-4796-9f66-20855be2e20d";
paths = (
{
closed = 1;
nodes = (
"101 500 LINE",
"101 175 OFFCURVE",
"26 0 OFFCURVE",
"26 0 CURVE",
"187 0 LINE",
"160 500 LINE"
);
},
{
closed = 1;
nodes = (
"81 701 OFFCURVE",
"55 672 OFFCURVE",
"55 629 CURVE SMOOTH",
"55 587 OFFCURVE",
"81 559 OFFCURVE",
"115 559 CURVE SMOOTH",
"148 559 OFFCURVE",
"175 587 OFFCURVE",
"175 629 CURVE SMOOTH",
"175 672 OFFCURVE",
"148 701 OFFCURVE",
"115 701 CURVE SMOOTH"
);
}
);
width = 232;
}
);
leftKerningGroup = i;
rightKerningGroup = i1;
unicode = 0069;
},
{
glyphname = l;
layers = (
{
layerId = "f35759b4-f9e3-4796-9f66-20855be2e20d";
paths = (
{
closed = 1;
nodes = (
"24 785 LINE",
"66 0 LINE",
"125 0 LINE",
"123 276 OFFCURVE",
"136 531 OFFCURVE",
"185 785 CURVE"
);
}
);
width = 184;
}
);
leftKerningGroup = h1;
rightKerningGroup = l;
unicode = 006C;
},
{
glyphname = s;
layers = (
{
layerId = "f35759b4-f9e3-4796-9f66-20855be2e20d";
paths = (
{
closed = 1;
nodes = (
"435.556 276 OFFCURVE",
"461.556 177 OFFCURVE",
"454.556 121 CURVE SMOOTH",
"446.556 63 OFFCURVE",
"393.556 18 OFFCURVE",
"316.556 -12 CURVE",
"162.556 -12 OFFCURVE",
"53.556 27 OFFCURVE",
"53.556 27 CURVE",
"45.556 168 LINE",
"156.556 91 OFFCURVE",
"385.556 79 OFFCURVE",
"417.556 154 CURVE SMOOTH",
"441.556 214 OFFCURVE",
"388.556 302 OFFCURVE",
"100.556 226 CURVE",
"-10.444 332 OFFCURVE",
"5.556 454 OFFCURVE",
"163.556 508 CURVE",
"316.556 508 OFFCURVE",
"426.556 474 OFFCURVE",
"426.556 474 CURVE",
"433.556 332 LINE",
"433.556 332 OFFCURVE",
"373.556 374 OFFCURVE",
"277.556 394 CURVE SMOOTH",
"163.556 417 OFFCURVE",
"63.556 422 OFFCURVE",
"44.556 383 CURVE SMOOTH",
"26.556 344 OFFCURVE",
"70.556 298 OFFCURVE",
"236.556 288 CURVE SMOOTH"
);
}
);
width = 484;
}
);
leftKerningGroup = s;
rightKerningGroup = s1;
unicode = 0073;
},
{
glyphname = t;
layers = (
{
layerId = "f35759b4-f9e3-4796-9f66-20855be2e20d";
paths = (
{
closed = 1;
nodes = (
"129 500 LINE",
"5 500 LINE",
"11 363 LINE",
"11 363 OFFCURVE",
"67 413 OFFCURVE",
"129 429 CURVE"
);
},
{
closed = 1;
nodes = (
"284 263 LINE",
"333 92 OFFCURVE",
"272 -10 OFFCURVE",
"210 10 CURVE SMOOTH",
"150 30 OFFCURVE",
"183 195 OFFCURVE",
"204 264 CURVE SMOOTH",
"256 433 OFFCURVE",
"386 410 OFFCURVE",
"415 386 CURVE",
"410 491 LINE",
"384 504 OFFCURVE",
"356 510 OFFCURVE",
"326 510 CURVE",
"279 496 OFFCURVE",
"210 399 OFFCURVE",
"182 225 CURVE",
"174 225 LINE",
"183 342 OFFCURVE",
"209 504 OFFCURVE",
"246 702 CURVE",
"89 702 LINE",
"89 702 OFFCURVE",
"100 481 OFFCURVE",
"106 338 CURVE SMOOTH",
"112 195 OFFCURVE",
"105 -10 OFFCURVE",
"266 -10 CURVE SMOOTH",
"401 -10 OFFCURVE",
"448 122 OFFCURVE",
"419 263 CURVE"
);
}
);
width = 416;
}
);
leftKerningGroup = t;
rightKerningGroup = t1;
unicode = 0074;
},
{
glyphname = v;
layers = (
{
layerId = "f35759b4-f9e3-4796-9f66-20855be2e20d";
paths = (
{
closed = 1;
nodes = (
"347 500 LINE",
"285 0 LINE",
"298 0 LINE",
"343 302 OFFCURVE",
"526 500 OFFCURVE",
"526 500 CURVE"
);
},
{
closed = 1;
nodes = (
"-2 500 LINE",
"217 0 LINE",
"283 0 LINE",
"186 230 OFFCURVE",
"179 423 OFFCURVE",
"179 500 CURVE"
);
},
{
closed = 1;
nodes = (
"294 0 LINE",
"294 13 LINE",
"256 13 LINE",
"256 0 LINE"
);
}
);
width = 513;
}
);
unicode = 0076;
},
{
glyphname = w;
layers = (
{
layerId = "f35759b4-f9e3-4796-9f66-20855be2e20d";
paths = (
{
closed = 1;
nodes = (
"655 500 LINE",
"772 224 OFFCURVE",
"611 -22 OFFCURVE",
"531 19 CURVE SMOOTH",
"477 47 OFFCURVE",
"482 150 OFFCURVE",
"526 280 CURVE SMOOTH",
"567 401 OFFCURVE",
"598 454 OFFCURVE",
"579 500 CURVE",
"414 500 LINE",
"387 139 OFFCURVE",
"237 -6 OFFCURVE",
"169 21 CURVE SMOOTH",
"113 43 OFFCURVE",
"121 150 OFFCURVE",
"165 280 CURVE SMOOTH",
"207 401 OFFCURVE",
"249 500 OFFCURVE",
"249 500 CURVE",
"78 500 LINE",
"78 500 OFFCURVE",
"32 342 OFFCURVE",
"32 250 CURVE SMOOTH",
"32 94 OFFCURVE",
"131 -11 OFFCURVE",
"253 -11 CURVE",
"327 12 OFFCURVE",
"413 237 OFFCURVE",
"424 488 CURVE",
"434 488 LINE",
"434 372 OFFCURVE",
"425 300 OFFCURVE",
"413 235 CURVE SMOOTH",
"391 120 OFFCURVE",
"464 -11 OFFCURVE",
"615 -11 CURVE",
"711 20 OFFCURVE",
"891 255 OFFCURVE",
"815 500 CURVE"
);
}
);
width = 860;
}
);
leftKerningGroup = u_left;
rightKerningGroup = n_right;
unicode = 0077;
},
{
glyphname = x;
layers = (
{
layerId = "f35759b4-f9e3-4796-9f66-20855be2e20d";
paths = (
{
closed = 1;
nodes = (
"339 500 LINE",
"300 252 LINE",
"293 252 LINE",
"199 366 OFFCURVE",
"193 462 OFFCURVE",
"193 500 CURVE",
"12 500 LINE",
"215 266 LINE",
"178 90 OFFCURVE",
"6 0 OFFCURVE",
"6 0 CURVE",
"184 0 LINE",
"224 247 LINE",
"230 247 LINE",
"324 134 OFFCURVE",
"331 38 OFFCURVE",
"331 0 CURVE",
"511 0 LINE",
"309 234 LINE",
"345 410 OFFCURVE",
"517 500 OFFCURVE",
"517 500 CURVE"
);
}
);
width = 519;
}
);
unicode = 0078;
},
{
glyphname = a;
layers = (
{
layerId = "f35759b4-f9e3-4796-9f66-20855be2e20d";
paths = (
{
closed = 1;
nodes = (
"75 46 OFFCURVE",
"209 416 OFFCURVE",
"345 251 CURVE",
"349 264 LINE",
"259 373 OFFCURVE",
"29 341 OFFCURVE",
"29 166 CURVE SMOOTH",
"29 56 OFFCURVE",
"128 -11 OFFCURVE",
"223 -11 CURVE",
"278 5 OFFCURVE",
"379 206 OFFCURVE",
"391 447 CURVE",
"379 445 LINE",
"365 176 OFFCURVE",
"202 -5 OFFCURVE",
"138 20 CURVE SMOOTH"
);
},
{
closed = 1;
nodes = (
"400 170 OFFCURVE",
"326 0 OFFCURVE",
"326 0 CURVE",
"486 0 LINE",
"486 0 OFFCURVE",
"479 114 OFFCURVE",
"472 255 CURVE",
"463 417 OFFCURVE",
"375 510 OFFCURVE",
"252 510 CURVE SMOOTH",
"130 510 OFFCURVE",
"61 470 OFFCURVE",
"61 470 CURVE",
"68 325 LINE",
"68 325 OFFCURVE",
"210 448 OFFCURVE",
"400 436 CURVE"
);
}
);
width = 515;
}
);
leftKerningGroup = a;
rightKerningGroup = a1;
unicode = 0061;
},
{
glyphname = z;
layers = (
{
layerId = "f35759b4-f9e3-4796-9f66-20855be2e20d";
paths = (
{
closed = 1;
nodes = (
"70 0 LINE",
"49 0 LINE",
"49 12 LINE",
"70 12 LINE"
);
},
{
closed = 1;
nodes = (
"480 500 LINE",
"489 370 LINE",
"425 251 OFFCURVE",
"-37 246 OFFCURVE",
"59 0 CURVE",
"48 0 LINE",
"-58 263 OFFCURVE",
"471 483 OFFCURVE",
"471 483 CURVE",
"471 490 LINE",
"290 469 OFFCURVE",
"44 348 OFFCURVE",
"44 348 CURVE",
"36 500 LINE"
);
},
{
closed = 1;
nodes = (
"496 18 LINE",
"496 18 OFFCURVE",
"435 -46 OFFCURVE",
"261 20 CURVE SMOOTH",
"147 63 OFFCURVE",
"34 111 OFFCURVE",
"77 0 CURVE",
"67 0 LINE",
"34 78 OFFCURVE",
"88 158 OFFCURVE",
"204 144 CURVE SMOOTH",
"314 131 OFFCURVE",
"413 89 OFFCURVE",
"489 151 CURVE"
);
}
);
width = 530;
}
);
leftKerningGroup = z;
rightKerningGroup = z1;
unicode = 007A;
},
{
glyphname = j;
layers = (
{
layerId = "f35759b4-f9e3-4796-9f66-20855be2e20d";
paths = (
{
closed = 1;
nodes = (
"-183 -274 LINE",
"-121 -305 OFFCURVE",
"-49 -322 OFFCURVE",
"4 -322 CURVE",
"85 -290 OFFCURVE",
"163 -116 OFFCURVE",
"131 500 CURVE",
"71 500 LINE",
"57 -243 OFFCURVE",
"-127 -294 OFFCURVE",
"-183 -261 CURVE"
);
},
{
closed = 1;
nodes = (
"53 701 OFFCURVE",
"26 672 OFFCURVE",
"26 630 CURVE SMOOTH",
"26 587 OFFCURVE",
"53 559 OFFCURVE",
"86 559 CURVE SMOOTH",
"119 559 OFFCURVE",
"146 587 OFFCURVE",
"146 630 CURVE SMOOTH",
"146 672 OFFCURVE",
"119 701 OFFCURVE",
"86 701 CURVE SMOOTH"
);
}
);
width = 173;
}
);
leftKerningGroup = j;
rightKerningGroup = g;
unicode = 006A;
},
{
glyphname = A;
layers = (
{
layerId = "f35759b4-f9e3-4796-9f66-20855be2e20d";
paths = (
{
closed = 1;
nodes = (
"43 0 LINE",
"7 0 LINE",
"208 700 LINE",
"358 700 LINE",
"358 700 OFFCURVE",
"135 419 OFFCURVE",
"24 12 CURVE",
"43 12 LINE"
);
},
{
closed = 1;
nodes = (
"346 700 LINE",
"452 700 LINE",
"708 0 LINE",
"520 0 LINE",
"520 148 OFFCURVE",
"478 370 OFFCURVE",
"378 688 CURVE",
"345 688 LINE"
);
},
{
closed = 1;
nodes = (
"291 221 OFFCURVE",
"-64 242 OFFCURVE",
"198 0 CURVE",
"34 0 LINE",
"34 7 LINE",
"84 207 OFFCURVE",
"174 264 OFFCURVE",
"260 321 CURVE SMOOTH",
"384 403 OFFCURVE",
"396 485 OFFCURVE",
"354 697 CURVE",
"365 697 LINE",
"394 574 OFFCURVE",
"452 365 OFFCURVE",
"416 239 CURVE"
);
}
);
width = 714;
}
);
leftKerningGroup = A;
rightKerningGroup = A1;
unicode = 0041;
},
{
glyphname = E;
layers = (
{
layerId = "f35759b4-f9e3-4796-9f66-20855be2e20d";
paths = (
{
closed = 1;
nodes = (
"170 0 LINE",
"134 0 LINE",
"134 12 LINE",
"170 12 LINE"
);
},
{
closed = 1;
nodes = (
"220 0 LINE",
"172 0 LINE",
"172 12 LINE",
"220 12 LINE"
);
},
{
closed = 1;
nodes = (
"208 700 LINE",
"208 700 OFFCURVE",
"154 324 OFFCURVE",
"154 0 CURVE",
"77 0 LINE",
"45 700 LINE"
);
},
{
closed = 1;
nodes = (
"211 0 LINE",
"216 140 OFFCURVE",
"288 169 OFFCURVE",
"346 156 CURVE SMOOTH",
"458 131 OFFCURVE",
"528 105 OFFCURVE",
"596 144 CURVE",
"602 16 LINE",
"539 -32 OFFCURVE",
"459 -5 OFFCURVE",
"388 28 CURVE SMOOTH",
"307 66 OFFCURVE",
"229 133 OFFCURVE",
"221 0 CURVE"
);
},
{
closed = 1;
nodes = (
"188 0 LINE",
"205 289 OFFCURVE",
"311 382 OFFCURVE",
"382 410 CURVE",
"457 410 OFFCURVE",
"517 373 OFFCURVE",
"592 400 CURVE",
"592 400 OFFCURVE",
"616 235 OFFCURVE",
"442 276 CURVE SMOOTH",
"384 290 OFFCURVE",
"220 348 OFFCURVE",
"200 0 CURVE"
);
},
{
closed = 1;
nodes = (
"165 0 LINE",
"175 343 OFFCURVE",
"265 643 OFFCURVE",
"334 708 CURVE",
"494 708 OFFCURVE",
"585 691 OFFCURVE",
"585 691 CURVE",
"592 549 LINE",
"592 549 OFFCURVE",
"461 596 OFFCURVE",
"394 569 CURVE SMOOTH",
"291 529 OFFCURVE",
"199 395 OFFCURVE",
"177 0 CURVE"
);
}
);
width = 627;
}
);
leftKerningGroup = Cap_H_Left;
rightKerningGroup = E1;
unicode = 0045;
},
{
glyphname = F;
layers = (
{
layerId = "f35759b4-f9e3-4796-9f66-20855be2e20d";
paths = (
{
closed = 1;
nodes = (
"208 700 LINE",
"208 700 OFFCURVE",
"154 324 OFFCURVE",
"154 0 CURVE",
"77 0 LINE",
"45 700 LINE"
);
},
{
closed = 1;
nodes = (
"165 0 LINE",
"175 343 OFFCURVE",
"265 643 OFFCURVE",
"334 708 CURVE",
"494 708 OFFCURVE",
"585 691 OFFCURVE",
"585 691 CURVE",
"592 549 LINE",
"592 549 OFFCURVE",
"461 596 OFFCURVE",
"394 569 CURVE SMOOTH",
"291 529 OFFCURVE",
"199 395 OFFCURVE",
"177 0 CURVE"
);
},
{
closed = 1;
nodes = (
"189 0 LINE",
"206 289 OFFCURVE",
"312 382 OFFCURVE",
"383 410 CURVE",
"458 410 OFFCURVE",
"518 373 OFFCURVE",
"593 400 CURVE",
"593 400 OFFCURVE",
"617 235 OFFCURVE",
"443 276 CURVE SMOOTH",
"385 290 OFFCURVE",
"221 348 OFFCURVE",
"201 0 CURVE"
);
},
{
closed = 1;
nodes = (
"181 0 LINE",
"145 0 LINE",
"145 12 LINE",
"181 12 LINE"
);
},
{
closed = 1;
nodes = (
"199 0 LINE",
"163 0 LINE",
"163 12 LINE",
"199 12 LINE"
);
}
);
width = 577;
}
);
leftKerningGroup = Cap_H_Left;
unicode = 0046;
},
{
glyphname = L;
layers = (
{
layerId = "f35759b4-f9e3-4796-9f66-20855be2e20d";
paths = (
{
closed = 1;
nodes = (
"208 700 LINE",
"208 700 OFFCURVE",
"154 324 OFFCURVE",
"154 0 CURVE",
"77 0 LINE",
"45 700 LINE"
);
},
{
closed = 1;
nodes = (
"163 0 LINE",
"168 140 OFFCURVE",
"240 169 OFFCURVE",
"298 156 CURVE SMOOTH",
"410 131 OFFCURVE",
"480 105 OFFCURVE",
"548 144 CURVE",
"554 16 LINE",
"491 -32 OFFCURVE",
"411 -5 OFFCURVE",
"340 28 CURVE SMOOTH",
"259 66 OFFCURVE",
"181 133 OFFCURVE",
"173 0 CURVE"
);
},
{
closed = 1;
nodes = (
"169 0 LINE",
"133 0 LINE",
"133 12 LINE",
"169 12 LINE"
);
}
);
width = 584;
}
);
leftKerningGroup = Cap_H_Left;
rightKerningGroup = L1;
unicode = 004C;
},
{
glyphname = P;
layers = (
{
layerId = "f35759b4-f9e3-4796-9f66-20855be2e20d";
paths = (
{
closed = 1;
nodes = (
"175 0 LINE",
"211 488 OFFCURVE",
"391 708 OFFCURVE",
"475 677 CURVE SMOOTH",
"539 653 OFFCURVE",
"524 529 OFFCURVE",
"474 383 CURVE SMOOTH",
"423 237 OFFCURVE",
"348 141 OFFCURVE",
"287 157 CURVE SMOOTH",
"270 161 OFFCURVE",
"233 181 OFFCURVE",
"200 221 CURVE",
"195 207 LINE",
"249 146 OFFCURVE",
"319 125 OFFCURVE",
"379 125 CURVE SMOOTH",
"516 125 OFFCURVE",
"640 242 OFFCURVE",
"640 417 CURVE SMOOTH",
"640 592 OFFCURVE",
"522 710 OFFCURVE",
"371 710 CURVE",
"272 690 OFFCURVE",
"180 347 OFFCURVE",
"164 0 CURVE"
);
},
{
closed = 1;
nodes = (
"45 700 LINE",
"77 0 LINE",
"154 0 LINE",
"154 324 OFFCURVE",
"208 700 OFFCURVE",
"208 700 CURVE"
);
},
{
closed = 1;
nodes = (
"172 0 LINE",
"172 12 LINE",
"136 12 LINE",
"136 0 LINE"
);
}
);
width = 648;
}
);
leftKerningGroup = Cap_H_Left;
unicode = 0050;
},
{
glyphname = B;
layers = (
{
layerId = "f35759b4-f9e3-4796-9f66-20855be2e20d";
paths = (
{
closed = 1;
nodes = (
"208 700 LINE",
"208 700 OFFCURVE",
"154 324 OFFCURVE",
"154 0 CURVE",
"77 0 LINE",
"45 700 LINE"
);
},
{
closed = 1;
nodes = (
"557 406 OFFCURVE",
"673 340 OFFCURVE",
"673 218 CURVE SMOOTH",
"673 69 OFFCURVE",
"521 -10 OFFCURVE",
"402 -10 CURVE SMOOTH",
"219 -10 OFFCURVE",
"172 93 OFFCURVE",
"172 93 CURVE",
"177 112 LINE",
"177 112 OFFCURVE",
"210 39 OFFCURVE",
"303 16 CURVE SMOOTH",
"397 -7 OFFCURVE",
"467 47 OFFCURVE",
"525 185 CURVE SMOOTH",
"561 271 OFFCURVE",
"586 370 OFFCURVE",
"538 379 CURVE SMOOTH",
"486 388 OFFCURVE",
"433 269 OFFCURVE",
"385 170 CURVE",
"237 170 OFFCURVE",
"205 241 OFFCURVE",
"262 326 CURVE SMOOTH",
"341 442 OFFCURVE",
"396 455 OFFCURVE",
"456 535 CURVE SMOOTH",
"516 614 OFFCURVE",
"505 667 OFFCURVE",
"464 677 CURVE",
"382 695 OFFCURVE",
"187 445 OFFCURVE",
"176 0 CURVE",
"144 0 LINE",
"144 12 LINE",
"164 12 LINE",
"168 356 OFFCURVE",
"279 685 OFFCURVE",
"363 710 CURVE",
"468 710 OFFCURVE",
"600 639 OFFCURVE",
"600 547 CURVE SMOOTH",
"600 440 OFFCURVE",
"469 473 OFFCURVE",
"353 397 CURVE SMOOTH",
"250 331 OFFCURVE",
"223 226 OFFCURVE",
"273 226 CURVE SMOOTH",
"317 226 OFFCURVE",
"336 406 OFFCURVE",
"465 406 CURVE SMOOTH"
);
}
);
width = 692;
}
);
leftKerningGroup = Cap_H_Left;
unicode = 0042;
},
{
glyphname = C;
layers = (
{
layerId = "f35759b4-f9e3-4796-9f66-20855be2e20d";
paths = (
{
closed = 1;
nodes = (
"431 343 LINE",
"474 101 OFFCURVE",
"310 -14 OFFCURVE",
"215 25 CURVE SMOOTH",
"130 59 OFFCURVE",
"135 238 OFFCURVE",
"197 417 CURVE SMOOTH",
"259 596 OFFCURVE",
"354 702 OFFCURVE",
"440 673 CURVE SMOOTH",
"503 651 OFFCURVE",
"512 553 OFFCURVE",
"431 429 CURVE",
"625 429 LINE",
"596 599 OFFCURVE",
"474 709 OFFCURVE",
"327 709 CURVE SMOOTH",
"159 709 OFFCURVE",
"23 564 OFFCURVE",
"23 349 CURVE SMOOTH",
"23 134 OFFCURVE",
"159 -10 OFFCURVE",
"327 -10 CURVE SMOOTH",
"515 -10 OFFCURVE",
"624 140 OFFCURVE",
"632 343 CURVE"
);
}
);
width = 655;
}
);
leftKerningGroup = C;
rightKerningGroup = C1;
unicode = 0043;
},
{
glyphname = D;
layers = (
{
layerId = "f35759b4-f9e3-4796-9f66-20855be2e20d";
paths = (
{
closed = 1;
nodes = (
"133 0 LINE",
"168 0 LINE",
"205 498 OFFCURVE",
"381 711 OFFCURVE",
"475 673 CURVE SMOOTH",
"553 642 OFFCURVE",
"555 476 OFFCURVE",
"494 297 CURVE SMOOTH",
"432 117 OFFCURVE",
"344 7 OFFCURVE",
"251 29 CURVE SMOOTH",
"227 35 OFFCURVE",
"196 55 OFFCURVE",
"166 84 CURVE",
"165 68 LINE",
"218 19 OFFCURVE",
"285 -8 OFFCURVE",
"358 -8 CURVE SMOOTH",
"526 -8 OFFCURVE",
"662 136 OFFCURVE",
"662 351 CURVE SMOOTH",
"662 566 OFFCURVE",
"526 711 OFFCURVE",
"358 711 CURVE",
"256 681 OFFCURVE",
"172 359 OFFCURVE",
"157 12 CURVE",
"133 12 LINE"
);
},
{
closed = 1;
nodes = (
"37 700 LINE",
"69 0 LINE",
"146 0 LINE",
"146 324 OFFCURVE",
"200 700 OFFCURVE",
"200 700 CURVE"
);
}
);
width = 686;
}
);
leftKerningGroup = Cap_H_Left;
rightKerningGroup = C1;
unicode = 0044;
},
{
glyphname = G;
layers = (
{
layerId = "f35759b4-f9e3-4796-9f66-20855be2e20d";
paths = (
{
closed = 1;
nodes = (
"616 364 LINE",
"370 364 OFFCURVE",
"297 406 OFFCURVE",
"252 355 CURVE",
"215 311 OFFCURVE",
"252 140 OFFCURVE",
"252 140 CURVE",
"252 140 OFFCURVE",
"382 352 OFFCURVE",
"602 352 CURVE",
"514 166 OFFCURVE",
"295 -6 OFFCURVE",
"218 25 CURVE SMOOTH",
"134 60 OFFCURVE",
"139 237 OFFCURVE",
"200 415 CURVE SMOOTH",
"262 594 OFFCURVE",
"357 700 OFFCURVE",
"442 671 CURVE SMOOTH",
"505 649 OFFCURVE",
"514 551 OFFCURVE",
"433 427 CURVE",
"627 427 LINE",
"598 597 OFFCURVE",
"476 706 OFFCURVE",
"330 706 CURVE SMOOTH",
"162 706 OFFCURVE",
"27 562 OFFCURVE",
"27 348 CURVE SMOOTH",
"27 133 OFFCURVE",
"162 -10 OFFCURVE",
"330 -10 CURVE SMOOTH",
"501 -10 OFFCURVE",
"627 140 OFFCURVE",
"627 140 CURVE"
);
}
);
width = 652;
}
);
leftKerningGroup = C;
rightKerningGroup = G1;
unicode = 0047;
},
{
glyphname = H;
layers = (
{
layerId = "f35759b4-f9e3-4796-9f66-20855be2e20d";
paths = (
{
closed = 1;
nodes = (
"207 344 OFFCURVE",
"175 190 OFFCURVE",
"167 0 CURVE",
"177 0 LINE",
"194 278 OFFCURVE",
"380 296 OFFCURVE",
"439 345 CURVE SMOOTH",
"492 388 OFFCURVE",
"517 510 OFFCURVE",
"526 700 CURVE",
"515 700 LINE",
"498 423 OFFCURVE",
"372 436 OFFCURVE",
"253 408 CURVE"
);
},
{
closed = 1;
nodes = (
"45 700 LINE",
"77 0 LINE",
"155 0 LINE",
"155 324 OFFCURVE",
"208 700 OFFCURVE",
"208 700 CURVE"
);
},
{
closed = 1;
nodes = (
"647 0 LINE",
"615 700 LINE",
"538 700 LINE",
"538 377 OFFCURVE",
"484 0 OFFCURVE",
"484 0 CURVE"
);
},
{
closed = 1;
nodes = (
"176 0 LINE",
"176 12 LINE",
"141 12 LINE",
"141 0 LINE"
);
},
{
closed = 1;
nodes = (
"553 688 LINE",
"553 700 LINE",
"517 700 LINE",
"517 688 LINE"
);
}
);
width = 692;
}
);
leftKerningGroup = Cap_H_Left;
rightKerningGroup = Cap_H_Right;
unicode = 0048;
},
{
glyphname = I;
layers = (
{
layerId = "f35759b4-f9e3-4796-9f66-20855be2e20d";
paths = (
{
closed = 1;
nodes = (
"247 0 LINE",
"214 700 LINE",
"-15 700 LINE",
"-8 537 LINE",
"83 595 OFFCURVE",
"230 608 OFFCURVE",
"208 520 CURVE SMOOTH",
"195 468 OFFCURVE",
"128 450 OFFCURVE",
"128 450 CURVE",
"109 177 OFFCURVE",
"85 0 OFFCURVE",
"85 0 CURVE"
);
}
);
width = 292;
}
);
leftKerningGroup = I;
rightKerningGroup = Cap_H_Right;
unicode = 0049;
},
{
glyphname = J;
layers = (
{
layerId = "f35759b4-f9e3-4796-9f66-20855be2e20d";
paths = (
{
closed = 1;
nodes = (
"509 699 OFFCURVE",
"431 699 OFFCURVE",
"431 699 CURVE",
"197 700 OFFCURVE",
"98 742 OFFCURVE",
"56 688 CURVE SMOOTH",
"9 626 OFFCURVE",
"56 475 OFFCURVE",
"56 475 CURVE",
"56 475 OFFCURVE",
"215 686 OFFCURVE",
"431 686 CURVE",
"421 102 OFFCURVE",
"297 -6 OFFCURVE",
"224 24 CURVE SMOOTH",
"162 50 OFFCURVE",
"150 218 OFFCURVE",
"228 343 CURVE",
"26 343 LINE",
"29 132 OFFCURVE",
"163 -9 OFFCURVE",
"329 -9 CURVE SMOOTH",
"497 -9 OFFCURVE",
"540 74 OFFCURVE",
"509 699 CURVE"
);
}
);
width = 555;
}
);
leftKerningGroup = J;
rightKerningGroup = Cap_H_Right;
unicode = 004A;
},
{
glyphname = K;
layers = (
{
layerId = "f35759b4-f9e3-4796-9f66-20855be2e20d";
paths = (
{
closed = 1;
nodes = (
"183 0 LINE",
"204 261 OFFCURVE",
"328 466 OFFCURVE",
"410 489 CURVE",
"569 489 OFFCURVE",
"638 389 OFFCURVE",
"638 196 CURVE SMOOTH",
"638 103 OFFCURVE",
"608 0 OFFCURVE",
"608 0 CURVE",
"417 0 LINE",
"535 252 OFFCURVE",
"595 426 OFFCURVE",
"521 453 CURVE SMOOTH",
"441 483 OFFCURVE",
"233 365 OFFCURVE",
"194 0 CURVE"
);
},
{
closed = 1;
nodes = (
"164 8 LINE",
"176 341 OFFCURVE",
"277 643 OFFCURVE",
"357 708 CURVE",
"484 708 OFFCURVE",
"605 678 OFFCURVE",
"605 678 CURVE",
"614 525 LINE",
"614 525 OFFCURVE",
"518 589 OFFCURVE",
"431 567 CURVE",
"312 535 OFFCURVE",
"199 403 OFFCURVE",
"174 8 CURVE"
);
},
{
closed = 1;
nodes = (
"207 700 LINE",
"207 700 OFFCURVE",
"154 324 OFFCURVE",
"154 0 CURVE",
"77 0 LINE",
"45 700 LINE"
);
},
{
closed = 1;
nodes = (
"192 0 LINE",
"137 0 LINE",
"137 12 LINE",
"192 12 LINE"
);
}
);
width = 670;
}
);
leftKerningGroup = Cap_H_Left;
rightKerningGroup = Cap_H_Right;
unicode = 004B;
},
{
glyphname = M;
layers = (
{
layerId = "f35759b4-f9e3-4796-9f66-20855be2e20d";
paths = (
{
closed = 1;
nodes = (
"676 700 LINE",
"640 204 OFFCURVE",
"464 -5 OFFCURVE",
"371 32 CURVE SMOOTH",
"293 63 OFFCURVE",
"332 256 OFFCURVE",
"383 439 CURVE SMOOTH",
"434 628 OFFCURVE",
"391 700 OFFCURVE",
"391 700 CURVE",
"244 700 LINE",
"244 700 OFFCURVE",
"193 445 OFFCURVE",
"215 276 CURVE SMOOTH",
"238 104 OFFCURVE",
"341 -10 OFFCURVE",
"487 -10 CURVE",
"590 21 OFFCURVE",
"672 355 OFFCURVE",
"688 700 CURVE"
);
},
{
closed = 1;
nodes = (
"219 700 LINE",
"151 337 OFFCURVE",
"-31 199 OFFCURVE",
"32 0 CURVE",
"191 0 LINE",
"91 244 OFFCURVE",
"177 441 OFFCURVE",
"232 700 CURVE"
);
},
{
closed = 1;
nodes = (
"808 0 LINE",
"776 700 LINE",
"699 700 LINE",
"699 376 OFFCURVE",
"645 0 OFFCURVE",
"645 0 CURVE"
);
},
{
closed = 1;
nodes = (
"261 688 LINE",
"261 700 LINE",
"225 700 LINE",
"225 688 LINE"
);
},
{
closed = 1;
nodes = (
"718 688 LINE",
"718 700 LINE",
"682 700 LINE",
"682 688 LINE"
);
}
);
width = 853;
}
);
rightKerningGroup = Cap_H_Right;
unicode = 004D;
},
{
glyphname = N;
layers = (
{
layerId = "f35759b4-f9e3-4796-9f66-20855be2e20d";
paths = (
{
closed = 1;
nodes = (
"91 0 LINE",
"146 114 OFFCURVE",
"69 189 OFFCURVE",
"57 306 CURVE SMOOTH",
"52 357 OFFCURVE",
"83 412 OFFCURVE",
"156 412 CURVE SMOOTH",
"262 412 OFFCURVE",
"495 241 OFFCURVE",
"521 0 CURVE",
"509 0 LINE",
"463 357 OFFCURVE",
"-32 389 OFFCURVE",
"87 294 CURVE SMOOTH",
"170 228 OFFCURVE",
"351 135 OFFCURVE",
"282 0 CURVE"
);
},
{
closed = 1;
nodes = (
"229 700 LINE",
"301 523 OFFCURVE",
"554 471 OFFCURVE",
"596 0 CURVE",
"532 0 LINE",
"502 462 OFFCURVE",
"39 460 OFFCURVE",
"26 700 CURVE"
);
},
{
closed = 1;
nodes = (
"617 0 LINE",
"510 0 LINE",
"510 12 LINE",
"615 12 LINE"
);
},
{
closed = 1;
nodes = (
"588 700 LINE",
"619 0 LINE",
"607 0 LINE",
"588 410 OFFCURVE",
"408 700 OFFCURVE",
"408 700 CURVE"
);
}
);
width = 641;
}
);
leftKerningGroup = N;
rightKerningGroup = Cap_H_Right;
unicode = 004E;
},
{
glyphname = O;
layers = (
{
layerId = "f35759b4-f9e3-4796-9f66-20855be2e20d";
paths = (
{
closed = 1;
nodes = (
"162 710 OFFCURVE",
"26 565 OFFCURVE",
"25 350 CURVE",
"25 135 OFFCURVE",
"161 -10 OFFCURVE",
"329 -10 CURVE",
"497 -11 OFFCURVE",
"634 134 OFFCURVE",
"634 349 CURVE SMOOTH",
"634 564 OFFCURVE",
"498 710 OFFCURVE",
"330 710 CURVE SMOOTH"
);
},
{
closed = 1;
nodes = (
"397 102 OFFCURVE",
"303 -4 OFFCURVE",
"217 26 CURVE SMOOTH",
"131 56 OFFCURVE",
"136 239 OFFCURVE",
"199 418 CURVE SMOOTH",
"262 597 OFFCURVE",
"356 704 OFFCURVE",
"442 674 CURVE SMOOTH",
"528 644 OFFCURVE",
"523 460 OFFCURVE",
"460 281 CURVE SMOOTH"
);
}
);
width = 659;
}
);
leftKerningGroup = C;
rightKerningGroup = C1;
unicode = 004F;
},
{
glyphname = Q;
layers = (
{
layerId = "f35759b4-f9e3-4796-9f66-20855be2e20d";
paths = (
{
closed = 1;
nodes = (
"145 711 OFFCURVE",
"9 566 OFFCURVE",
"8 351 CURVE",
"8 136 OFFCURVE",
"144 -9 OFFCURVE",
"312 -9 CURVE",
"480 -10 OFFCURVE",
"617 135 OFFCURVE",
"617 350 CURVE SMOOTH",
"617 565 OFFCURVE",
"481 711 OFFCURVE",
"313 711 CURVE SMOOTH"
);
},
{
closed = 1;
nodes = (
"380 103 OFFCURVE",
"286 -3 OFFCURVE",
"200 27 CURVE SMOOTH",
"114 57 OFFCURVE",
"119 240 OFFCURVE",
"182 419 CURVE SMOOTH",
"245 598 OFFCURVE",
"339 705 OFFCURVE",
"425 675 CURVE SMOOTH",
"511 645 OFFCURVE",
"506 461 OFFCURVE",
"443 282 CURVE SMOOTH"
);
},
{
closed = 1;
nodes = (
"140 63 LINE",
"293 -124 OFFCURVE",
"390 -272 OFFCURVE",
"554 -168 CURVE",
"546 16 LINE",
"488 -46 OFFCURVE",
"317 -159 OFFCURVE",
"145 78 CURVE"
);
}
);
width = 644;
}
);
leftKerningGroup = C;
unicode = 0051;
},
{
glyphname = R;
layers = (
{
layerId = "f35759b4-f9e3-4796-9f66-20855be2e20d";
paths = (
{
closed = 1;
nodes = (
"208 700 LINE",
"208 700 OFFCURVE",
"154 324 OFFCURVE",
"154 0 CURVE",
"77 0 LINE",
"45 700 LINE"
);
},
{
closed = 1;
nodes = (
"164 0 LINE",
"180 347 OFFCURVE",
"272 690 OFFCURVE",
"371 710 CURVE",
"522 710 OFFCURVE",
"640 592 OFFCURVE",
"640 417 CURVE SMOOTH",
"640 242 OFFCURVE",
"516 125 OFFCURVE",
"379 125 CURVE SMOOTH",
"319 125 OFFCURVE",
"249 146 OFFCURVE",
"195 207 CURVE",
"200 221 LINE",
"233 181 OFFCURVE",
"270 161 OFFCURVE",
"287 157 CURVE SMOOTH",
"348 141 OFFCURVE",
"423 237 OFFCURVE",
"474 383 CURVE SMOOTH",
"524 529 OFFCURVE",
"539 653 OFFCURVE",
"475 677 CURVE SMOOTH",
"391 708 OFFCURVE",
"211 488 OFFCURVE",
"175 0 CURVE"
);
},
{
closed = 1;
nodes = (
"173 0 LINE",
"137 0 LINE",
"137 12 LINE",
"173 12 LINE"
);
},
{
closed = 1;
nodes = (
"192 196 LINE",
"364 -41 OFFCURVE",
"535 72 OFFCURVE",
"593 134 CURVE",
"601 -50 LINE",
"437 -154 OFFCURVE",
"340 -6 OFFCURVE",
"187 181 CURVE"
);
}
);
width = 669;
}
);
leftKerningGroup = Cap_H_Left;
rightKerningGroup = R;
unicode = 0052;
},
{
glyphname = S;
lastChange = "2021-04-28 07:10:09 +0000";
layers = (
{
layerId = "f35759b4-f9e3-4796-9f66-20855be2e20d";
paths = (
{
closed = 1;
nodes = (
"534 31 OFFCURVE",
"588 132 OFFCURVE",
"601 216 CURVE SMOOTH",
"616 319 OFFCURVE",
"565 407 OFFCURVE",
"308 465 CURVE SMOOTH",
"168 496 OFFCURVE",
"17 472 OFFCURVE",
"43 562 CURVE SMOOTH",
"90 724 OFFCURVE",
"466 581 OFFCURVE",
"566 489 CURVE",
"557 680 LINE",
"557 680 OFFCURVE",
"395 710 OFFCURVE",
"192 710 CURVE",
"-47 619 OFFCURVE",
"-3 405 OFFCURVE",
"135 326 CURVE",
"552 489 OFFCURVE",
"621 290 OFFCURVE",
"576 202 CURVE SMOOTH",
"493 42 OFFCURVE",
"241 273 OFFCURVE",
"71 202 CURVE",
"79 43 LINE",
"144 99 OFFCURVE",
"368 15 OFFCURVE",
"432 -10 CURVE"
);
}
);
width = 617;
}
);
leftKerningGroup = S;
rightKerningGroup = S1;
unicode = 0053;
},
{
glyphname = T;
layers = (
{
layerId = "f35759b4-f9e3-4796-9f66-20855be2e20d";
paths = (
{
closed = 1;
nodes = (
"490 0 LINE",
"490 0 OFFCURVE",
"489 50 OFFCURVE",
"479 212 CURVE",
"461 544 OFFCURVE",
"346 723 OFFCURVE",
"129 723 CURVE SMOOTH",
"-49 723 OFFCURVE",
"-64 468 OFFCURVE",
"162 486 CURVE SMOOTH",
"325 499 OFFCURVE",
"473 652 OFFCURVE",
"734 551 CURVE",
"728 693 LINE",
"728 693 OFFCURVE",
"603 725 OFFCURVE",
"492 714 CURVE",
"443 659 OFFCURVE",
"352 519 OFFCURVE",
"177 501 CURVE SMOOTH",
"95 492 OFFCURVE",
"140 713 OFFCURVE",
"230 694 CURVE SMOOTH",
"359 667 OFFCURVE",
"379 457 OFFCURVE",
"325 0 CURVE"
);
}
);
width = 730;
}
);
leftKerningGroup = T;
rightKerningGroup = T1;
unicode = 0054;
},
{
glyphname = U;
layers = (
{
layerId = "f35759b4-f9e3-4796-9f66-20855be2e20d";
paths = (
{
closed = 1;
nodes = (
"412 700 LINE",
"414 539 LINE",
"414 539 OFFCURVE",
"609 639 OFFCURVE",
"609 517 CURVE SMOOTH",
"609 402 OFFCURVE",
"286 -3 OFFCURVE",
"188 42 CURVE SMOOTH",
"112 77 OFFCURVE",
"128 213 OFFCURVE",
"190 394 CURVE SMOOTH",
"248 563 OFFCURVE",
"304 700 OFFCURVE",
"304 700 CURVE",
"92 700 LINE",
"92 700 OFFCURVE",
"28 480 OFFCURVE",
"28 352 CURVE SMOOTH",
"28 135 OFFCURVE",
"163 -10 OFFCURVE",
"332 -10 CURVE SMOOTH",
"580 -10 OFFCURVE",
"690 384 OFFCURVE",
"583 700 CURVE"
);
}
);
width = 652;
}
);
leftKerningGroup = U;
rightKerningGroup = U11;
unicode = 0055;
},
{
glyphname = V;
layers = (
{
layerId = "f35759b4-f9e3-4796-9f66-20855be2e20d";
paths = (
{
closed = 1;
nodes = (
"468 700 LINE",
"370 0 LINE",
"381 0 LINE",
"442 422 OFFCURVE",
"684 700 OFFCURVE",
"684 700 CURVE"
);
},
{
closed = 1;
nodes = (
"-3 700 LINE",
"289 0 LINE",
"369 0 LINE",
"238 322 OFFCURVE",
"221 592 OFFCURVE",
"221 700 CURVE"
);
},
{
closed = 1;
nodes = (
"377 0 LINE",
"377 12 LINE",
"341 12 LINE",
"341 0 LINE"
);
}
);
width = 670;
}
);
unicode = 0056;
},
{
glyphname = W;
layers = (
{
layerId = "f35759b4-f9e3-4796-9f66-20855be2e20d";
paths = (
{
closed = 1;
nodes = (
"887 700 LINE",
"790 0 LINE",
"801 0 LINE",
"862 422 OFFCURVE",
"1104 700 OFFCURVE",
"1104 700 CURVE"
);
},
{
closed = 1;
nodes = (
"416 700 LINE",
"708 0 LINE",
"788 0 LINE",
"657 322 OFFCURVE",
"640 592 OFFCURVE",
"640 700 CURVE"
);
},
{
closed = 1;
nodes = (
"401 700 LINE",
"366 201 OFFCURVE",
"317 -11 OFFCURVE",
"221 27 CURVE",
"143 57 OFFCURVE",
"141 254 OFFCURVE",
"191 438 CURVE",
"244 627 OFFCURVE",
"295 700 OFFCURVE",
"295 700 CURVE",
"96 700 LINE",
"96 700 OFFCURVE",
"17 443 OFFCURVE",
"39 274 CURVE SMOOTH",
"63 101 OFFCURVE",
"186 -11 OFFCURVE",
"347 -11 CURVE",
"478 67 OFFCURVE",
"522 266 OFFCURVE",
"522 266 CURVE",
"522 266 OFFCURVE",
"402 452 OFFCURVE",
"412 700 CURVE"
);
},
{
closed = 1;
nodes = (
"439 688 LINE",
"439 700 LINE",
"403 700 LINE",
"403 688 LINE"
);
},
{
closed = 1;
nodes = (
"797 0 LINE",
"797 12 LINE",
"760 12 LINE",
"760 0 LINE"
);
}
);
width = 1096;
}
);
leftKerningGroup = U;
rightKerningGroup = W1;
unicode = 0057;
},
{
glyphname = X;
layers = (
{
layerId = "f35759b4-f9e3-4796-9f66-20855be2e20d";
paths = (
{
closed = 1;
nodes = (
"718 0 LINE",
"381 402 OFFCURVE",
"345 506 OFFCURVE",
"468 710 CURVE",
"628 710 OFFCURVE",
"720 691 OFFCURVE",
"720 691 CURVE",
"727 524 LINE",
"727 524 OFFCURVE",
"567 602 OFFCURVE",
"490 569 CURVE SMOOTH",
"359 511 OFFCURVE",
"502 279 OFFCURVE",
"732 0 CURVE"
);
},
{
closed = 1;
nodes = (
"133 0 LINE",
"188 114 OFFCURVE",
"67 186 OFFCURVE",
"55 303 CURVE SMOOTH",
"50 354 OFFCURVE",
"81 409 OFFCURVE",
"154 409 CURVE SMOOTH",
"260 409 OFFCURVE",
"449 192 OFFCURVE",
"492 0 CURVE",
"480 0 LINE",
"378 396 OFFCURVE",
"-31 389 OFFCURVE",
"88 294 CURVE SMOOTH",
"171 228 OFFCURVE",
"393 135 OFFCURVE",
"324 0 CURVE"
);
},
{
closed = 1;
nodes = (
"247 700 LINE",
"272 468 OFFCURVE",
"464 274 OFFCURVE",
"705 0 CURVE",
"503 0 LINE",
"442 358 OFFCURVE",
"0 700 OFFCURVE",
"0 700 CURVE"
);
},
{
closed = 1;
nodes = (
"518 0 LINE",
"482 0 LINE",
"482 12 LINE",
"518 12 LINE"
);
},
{
closed = 1;
nodes = (
"722 0 LINE",
"686 0 LINE",
"686 12 LINE",
"722 12 LINE"
);
}
);
width = 729;
}
);
unicode = 0058;
},
{
glyphname = Y;
layers = (
{
layerId = "f35759b4-f9e3-4796-9f66-20855be2e20d";
paths = (
{
closed = 1;
nodes = (
"568 700 LINE",
"361 0 LINE",
"196 0 LINE",
"196 0 OFFCURVE",
"364 335 OFFCURVE",
"489 700 CURVE"
);
},
{
closed = 1;
nodes = (
"478 700 LINE",
"419 539 OFFCURVE",
"315 291 OFFCURVE",
"222 227 CURVE",
"12 227 OFFCURVE",
"136 430 OFFCURVE",
"-1 700 CURVE",
"174 700 LINE",
"174 700 OFFCURVE",
"227 651 OFFCURVE",
"201 536 CURVE SMOOTH",
"174 413 OFFCURVE",
"80 292 OFFCURVE",
"137 264 CURVE SMOOTH",
"203 232 OFFCURVE",
"372 466 OFFCURVE",
"465 700 CURVE"
);
},
{
closed = 1;
nodes = (
"504 688 LINE",
"468 688 LINE",
"468 700 LINE",
"504 700 LINE"
);
}
);
width = 567;
}
);
leftKerningGroup = Y;
rightKerningGroup = Y1;
unicode = 0059;
},
{
glyphname = Z;
layers = (
{
layerId = "f35759b4-f9e3-4796-9f66-20855be2e20d";
paths = (
{
closed = 1;
nodes = (
"604 555 LINE",
"503 374 OFFCURVE",
"-17 419 OFFCURVE",
"97 0 CURVE",
"84 0 LINE",
"-46 385 OFFCURVE",
"391 643 OFFCURVE",
"594 679 CURVE"
);
},
{
closed = 1;
nodes = (
"631 19 LINE",
"631 19 OFFCURVE",
"551 -50 OFFCURVE",
"346 24 CURVE SMOOTH",
"213 73 OFFCURVE",
"84 163 OFFCURVE",
"123 0 CURVE",
"110 0 LINE",
"68 134 OFFCURVE",
"153 201 OFFCURVE",
"257 182 CURVE SMOOTH",
"387 159 OFFCURVE",
"532 121 OFFCURVE",
"622 189 CURVE"
);
},
{
closed = 1;
nodes = (
"597 687 LINE",
"188 687 OFFCURVE",
"52 475 OFFCURVE",
"52 475 CURVE",
"52 475 OFFCURVE",
"-2 611 OFFCURVE",
"52 690 CURVE SMOOTH",
"91 748 OFFCURVE",
"251 702 OFFCURVE",
"596 700 CURVE"
);
},
{
closed = 1;
nodes = (
"117 0 LINE",
"88 0 LINE",
"81 12 LINE",
"117 12 LINE"
);
},
{
closed = 1;
nodes = (
"591 549 LINE",
"583 700 LINE",
"596 700 LINE",
"604 555 LINE"
);
}
);
width = 658;
}
);
leftKerningGroup = Z;
rightKerningGroup = Z1;
unicode = 005A;
},
{
glyphname = uni0410;
layers = (
{
layerId = "f35759b4-f9e3-4796-9f66-20855be2e20d";
paths = (
{
closed = 1;
nodes = (
"43 0 LINE",
"7 0 LINE",
"208 700 LINE",
"358 700 LINE",
"358 700 OFFCURVE",
"135 419 OFFCURVE",
"24 12 CURVE",
"43 12 LINE"
);
},
{
closed = 1;
nodes = (
"346 700 LINE",
"452 700 LINE",
"708 0 LINE",
"520 0 LINE",
"520 148 OFFCURVE",
"478 370 OFFCURVE",
"378 688 CURVE",
"345 688 LINE"
);
},
{
closed = 1;
nodes = (
"291 221 OFFCURVE",
"-64 242 OFFCURVE",
"198 0 CURVE",
"34 0 LINE",
"34 7 LINE",
"84 207 OFFCURVE",
"174 264 OFFCURVE",
"260 321 CURVE SMOOTH",
"384 403 OFFCURVE",
"396 485 OFFCURVE",
"354 697 CURVE",
"365 697 LINE",
"394 574 OFFCURVE",
"452 365 OFFCURVE",
"416 239 CURVE"
);
}
);
width = 714;
}
);
unicode = 0410;
},
{
glyphname = uni0411;
layers = (
{
layerId = "f35759b4-f9e3-4796-9f66-20855be2e20d";
paths = (
{
closed = 1;
nodes = (
"195 0 LINE",
"129 0 LINE",
"129 12 LINE",
"195 12 LINE"
);
},
{
closed = 1;
nodes = (
"208 700 LINE",
"208 700 OFFCURVE",
"154 324 OFFCURVE",
"154 0 CURVE",
"77 0 LINE",
"45 700 LINE"
);
},
{
closed = 1;
nodes = (
"165 0 LINE",
"175 343 OFFCURVE",
"265 643 OFFCURVE",
"334 708 CURVE",
"494 708 OFFCURVE",
"615 691 OFFCURVE",
"615 691 CURVE",
"622 549 LINE",
"622 549 OFFCURVE",
"461 596 OFFCURVE",
"394 569 CURVE SMOOTH",
"291 529 OFFCURVE",
"199 395 OFFCURVE",
"177 0 CURVE"
);
},
{
closed = 1;
nodes = (
"187 0 LINE",
"213 262 OFFCURVE",
"330 458 OFFCURVE",
"410 489 CURVE",
"577 489 OFFCURVE",
"684 385 OFFCURVE",
"684 247 CURVE SMOOTH",
"684 109 OFFCURVE",
"594 -10 OFFCURVE",
"431 -10 CURVE SMOOTH",
"320 -10 OFFCURVE",
"246 81 OFFCURVE",
"213 127 CURVE",
"216 148 LINE",
"232 115 OFFCURVE",
"309 22 OFFCURVE",
"371 13 CURVE SMOOTH",
"435 3 OFFCURVE",
"490 85 OFFCURVE",
"540 220 CURVE SMOOTH",
"586 345 OFFCURVE",
"587 440 OFFCURVE",
"522 459 CURVE SMOOTH",
"443 483 OFFCURVE",
"234 343 OFFCURVE",
"199 0 CURVE"
);
}
);
width = 705;
}
);
leftKerningGroup = Cap_H_Left;
unicode = 0411;
},
{
glyphname = uni0412;
layers = (
{
layerId = "f35759b4-f9e3-4796-9f66-20855be2e20d";
paths = (
{
closed = 1;
nodes = (
"208 700 LINE",
"208 700 OFFCURVE",
"154 324 OFFCURVE",
"154 0 CURVE",
"77 0 LINE",
"45 700 LINE"
);
},
{
closed = 1;
nodes = (
"557 406 OFFCURVE",
"673 340 OFFCURVE",
"673 218 CURVE SMOOTH",
"673 69 OFFCURVE",
"521 -10 OFFCURVE",
"402 -10 CURVE SMOOTH",
"219 -10 OFFCURVE",
"172 93 OFFCURVE",
"172 93 CURVE",
"177 112 LINE",
"177 112 OFFCURVE",
"210 39 OFFCURVE",
"303 16 CURVE SMOOTH",
"397 -7 OFFCURVE",
"467 47 OFFCURVE",
"525 185 CURVE SMOOTH",
"561 271 OFFCURVE",
"586 370 OFFCURVE",
"538 379 CURVE SMOOTH",
"486 388 OFFCURVE",
"433 269 OFFCURVE",
"385 170 CURVE",
"237 170 OFFCURVE",
"205 241 OFFCURVE",
"262 326 CURVE SMOOTH",
"341 442 OFFCURVE",
"396 455 OFFCURVE",
"456 535 CURVE SMOOTH",
"516 614 OFFCURVE",
"505 667 OFFCURVE",
"464 677 CURVE",
"382 695 OFFCURVE",
"187 445 OFFCURVE",
"176 0 CURVE",
"144 0 LINE",
"144 12 LINE",
"164 12 LINE",
"168 356 OFFCURVE",
"279 685 OFFCURVE",
"363 710 CURVE",
"468 710 OFFCURVE",
"600 639 OFFCURVE",
"600 547 CURVE SMOOTH",
"600 440 OFFCURVE",
"469 473 OFFCURVE",
"353 397 CURVE SMOOTH",
"250 331 OFFCURVE",
"223 226 OFFCURVE",
"273 226 CURVE SMOOTH",
"317 226 OFFCURVE",
"336 406 OFFCURVE",
"465 406 CURVE SMOOTH"
);
}
);
width = 692;
}
);
leftKerningGroup = Cap_H_Left;
unicode = 0412;
},
{
glyphname = uni0413;
layers = (
{
layerId = "f35759b4-f9e3-4796-9f66-20855be2e20d";
paths = (
{
closed = 1;
nodes = (
"176 0 LINE",
"401 0 OFFCURVE",
"214 281 OFFCURVE",
"214 458 CURVE SMOOTH",
"214 726 OFFCURVE",
"492 466 OFFCURVE",
"644 551 CURVE",
"637 685 LINE",
"509 654 OFFCURVE",
"418 734 OFFCURVE",
"333 702 CURVE SMOOTH",
"247 669 OFFCURVE",
"200 594 OFFCURVE",
"200 396 CURVE SMOOTH",
"200 198 OFFCURVE",
"255 12 OFFCURVE",
"163 12 CURVE"
);
},
{
closed = 1;
nodes = (
"45 700 LINE",
"77 0 LINE",
"154 0 LINE",
"154 324 OFFCURVE",
"208 700 OFFCURVE",
"208 700 CURVE"
);
},
{
closed = 1;
nodes = (
"178 0 LINE",
"178 12 LINE",
"142 12 LINE",
"142 0 LINE"
);
}
);
width = 619;
}
);
leftKerningGroup = Cap_H_Left;
unicode = 0413;
},
{
glyphname = uni0414;
layers = (
{
layerId = "f35759b4-f9e3-4796-9f66-20855be2e20d";
paths = (
{
closed = 1;
nodes = (
"571 256 OFFCURVE",
"487 0 OFFCURVE",
"487 0 CURVE",
"681 2 LINE",
"681 2 OFFCURVE",
"664 349 OFFCURVE",
"657 510 CURVE SMOOTH",
"651 672 OFFCURVE",
"587 710 OFFCURVE",
"475 710 CURVE SMOOTH",
"363 710 OFFCURVE",
"240 643 OFFCURVE",
"89 710 CURVE",
"96 551 LINE",
"316 444 OFFCURVE",
"586 834 OFFCURVE",
"581 623 CURVE SMOOTH"
);
},
{
closed = 1;
nodes = (
"700 12 OFFCURVE",
"514 13 OFFCURVE",
"398 13 CURVE",
"163 14 OFFCURVE",
"62 20 OFFCURVE",
"21 -34 CURVE SMOOTH",
"-26 -96 OFFCURVE",
"21 -243 OFFCURVE",
"21 -243 CURVE",
"95 -128 OFFCURVE",
"290 6 OFFCURVE",
"712 0 CURVE",
"853 0 OFFCURVE",
"498 -96 OFFCURVE",
"463 -232 CURVE",
"681 -232 LINE",
"681 -72 OFFCURVE",
"845 12 OFFCURVE",
"700 12 CURVE"
);
},
{
closed = 1;
nodes = (
"235 -37 LINE",
"235 -37 OFFCURVE",
"469 337 OFFCURVE",
"484 678 CURVE",
"484 683 OFFCURVE",
"474 688 OFFCURVE",
"473 681 CURVE",
"443 219 OFFCURVE",
"152 -18 OFFCURVE",
"152 -18 CURVE"
);
}
);
width = 820;
}
);
unicode = 0414;
},
{
glyphname = uni0415;
layers = (
{
layerId = "f35759b4-f9e3-4796-9f66-20855be2e20d";
paths = (
{
closed = 1;
nodes = (
"170 0 LINE",
"134 0 LINE",
"134 12 LINE",
"170 12 LINE"
);
},
{
closed = 1;
nodes = (
"220 0 LINE",
"172 0 LINE",
"172 12 LINE",
"220 12 LINE"
);
},
{
closed = 1;
nodes = (
"208 700 LINE",
"208 700 OFFCURVE",
"154 324 OFFCURVE",
"154 0 CURVE",
"77 0 LINE",
"45 700 LINE"
);
},
{
closed = 1;
nodes = (
"211 0 LINE",
"216 140 OFFCURVE",
"288 169 OFFCURVE",
"346 156 CURVE SMOOTH",
"458 131 OFFCURVE",
"528 105 OFFCURVE",
"596 144 CURVE",
"602 16 LINE",
"539 -32 OFFCURVE",
"459 -5 OFFCURVE",
"388 28 CURVE SMOOTH",
"307 66 OFFCURVE",
"229 133 OFFCURVE",
"221 0 CURVE"
);
},
{
closed = 1;
nodes = (
"188 0 LINE",
"205 289 OFFCURVE",
"311 382 OFFCURVE",
"382 410 CURVE",
"457 410 OFFCURVE",
"517 373 OFFCURVE",
"592 400 CURVE",
"592 400 OFFCURVE",
"616 235 OFFCURVE",
"442 276 CURVE SMOOTH",
"384 290 OFFCURVE",
"220 348 OFFCURVE",
"200 0 CURVE"
);
},
{
closed = 1;
nodes = (
"165 0 LINE",
"175 343 OFFCURVE",
"265 643 OFFCURVE",
"334 708 CURVE",
"494 708 OFFCURVE",
"585 691 OFFCURVE",
"585 691 CURVE",
"592 549 LINE",
"592 549 OFFCURVE",
"461 596 OFFCURVE",
"394 569 CURVE SMOOTH",
"291 529 OFFCURVE",
"199 395 OFFCURVE",
"177 0 CURVE"
);
}
);
width = 627;
}
);
leftKerningGroup = Cap_H_Left;
rightKerningGroup = uni04011;
unicode = 0415;
},
{
glyphname = uni0416;
layers = (
{
layerId = "f35759b4-f9e3-4796-9f66-20855be2e20d";
paths = (
{
closed = 1;
nodes = (
"617 0 LINE",
"634 430 OFFCURVE",
"717 646 OFFCURVE",
"780 710 CURVE",
"1119 710 OFFCURVE",
"1067 587 OFFCURVE",
"997 470 CURVE SMOOTH",
"927 352 OFFCURVE",
"733 82 OFFCURVE",
"816 24 CURVE SMOOTH",
"864 -8 OFFCURVE",
"1024 60 OFFCURVE",
"963 344 CURVE",
"1131 344 LINE",
"1137 231 OFFCURVE",
"1086 -10 OFFCURVE",
"898 -10 CURVE SMOOTH",
"768 -10 OFFCURVE",
"696 123 OFFCURVE",
"696 233 CURVE",
"759 408 OFFCURVE",
"1053 562 OFFCURVE",
"1031 622 CURVE SMOOTH",
"1000 708 OFFCURVE",
"649 630 OFFCURVE",
"630 0 CURVE"
);
},
{
closed = 1;
nodes = (
"294 70 OFFCURVE",
"220 5 OFFCURVE",
"172 21 CURVE SMOOTH",
"124 38 OFFCURVE",
"127 138 OFFCURVE",
"180 245 CURVE SMOOTH",
"281 451 OFFCURVE",
"477 503 OFFCURVE",
"484 700 CURVE",
"471 700 LINE",
"446 419 OFFCURVE",
"101 419 OFFCURVE",
"33 229 CURVE",
"33 103 OFFCURVE",
"132 -10 OFFCURVE",
"254 -10 CURVE SMOOTH",
"375 -10 OFFCURVE",
"489 105 OFFCURVE",
"489 336 CURVE SMOOTH",
"489 555 OFFCURVE",
"385 710 OFFCURVE",
"221 710 CURVE SMOOTH",
"137 710 OFFCURVE",
"33 670 OFFCURVE",
"33 670 CURVE",
"41 504 LINE",
"41 504 OFFCURVE",
"271 703 OFFCURVE",
"362 645 CURVE SMOOTH",
"428 604 OFFCURVE",
"406 425 OFFCURVE",
"353 257 CURVE SMOOTH"
);
},
{
closed = 1;
nodes = (
"658 700 LINE",
"658 700 OFFCURVE",
"604 324 OFFCURVE",
"604 0 CURVE",
"527 0 LINE",
"495 700 LINE"
);
},
{
closed = 1;
nodes = (
"625 0 LINE",
"589 0 LINE",
"589 12 LINE",
"625 12 LINE"
);
},
{
closed = 1;
nodes = (
"511 688 LINE",
"475 688 LINE",
"475 700 LINE",
"511 700 LINE"
);
}
);
width = 1162;
}
);
unicode = 0416;
},
{
glyphname = uni0417;
layers = (
{
layerId = "f35759b4-f9e3-4796-9f66-20855be2e20d";
paths = (
{
closed = 1;
nodes = (
"455 510 OFFCURVE",
"548 710 OFFCURVE",
"298 710 CURVE SMOOTH",
"153 710 OFFCURVE",
"48 669 OFFCURVE",
"48 669 CURVE",
"48 492 LINE",
"48 492 OFFCURVE",
"318 711 OFFCURVE",
"412 673 CURVE SMOOTH",
"472 649 OFFCURVE",
"389 576 OFFCURVE",
"289 486 CURVE",
"289 486 OFFCURVE",
"488 497 OFFCURVE",
"426 244 CURVE SMOOTH",
"391 103 OFFCURVE",
"289 -17 OFFCURVE",
"199 18 CURVE SMOOTH",
"132 45 OFFCURVE",
"121 204 OFFCURVE",
"236 369 CURVE",
"48 369 LINE",
"-22 119 OFFCURVE",
"127 -10 OFFCURVE",
"298 -10 CURVE SMOOTH",
"432 -10 OFFCURVE",
"572 89 OFFCURVE",
"572 256 CURVE SMOOTH",
"572 439 OFFCURVE",
"405 362 OFFCURVE",
"433 444 CURVE SMOOTH"
);
}
);
width = 587;
}
);
unicode = 0417;
},
{
glyphname = uni0418;
layers = (
{
layerId = "f35759b4-f9e3-4796-9f66-20855be2e20d";
paths = (
{
closed = 1;
nodes = (
"575 688 LINE",
"575 308 OFFCURVE",
"175 328 OFFCURVE",
"175 0 CURVE",
"164 0 LINE",
"164 301 OFFCURVE",
"417 335 OFFCURVE",
"430 700 CURVE",
"596 700 LINE",
"628 0 LINE",
"465 0 LINE",
"465 0 OFFCURVE",
"585 366 OFFCURVE",
"585 688 CURVE"
);
},
{
closed = 1;
nodes = (
"208 700 LINE",
"208 700 OFFCURVE",
"154 324 OFFCURVE",
"154 0 CURVE",
"77 0 LINE",
"45 700 LINE"
);
},
{
closed = 1;
nodes = (
"172 0 LINE",
"136 0 LINE",
"136 12 LINE",
"172 12 LINE"
);
}
);
width = 673;
}
);
leftKerningGroup = Cap_H_Left;
rightKerningGroup = Cap_H_Right;
unicode = 0418;
},
{
glyphname = uni0419;
layers = (
{
layerId = "f35759b4-f9e3-4796-9f66-20855be2e20d";
paths = (
{
closed = 1;
nodes = (
"172 0 LINE",
"136 0 LINE",
"136 12 LINE",
"172 12 LINE"
);
},
{
closed = 1;
nodes = (
"208 700 LINE",
"208 700 OFFCURVE",
"154 324 OFFCURVE",
"154 0 CURVE",
"77 0 LINE",
"45 700 LINE"
);
},
{
closed = 1;
nodes = (
"575 688 LINE",
"575 308 OFFCURVE",
"175 328 OFFCURVE",
"175 0 CURVE",
"164 0 LINE",
"164 301 OFFCURVE",
"417 335 OFFCURVE",
"430 700 CURVE",
"596 700 LINE",
"628 0 LINE",
"465 0 LINE",
"465 0 OFFCURVE",
"585 366 OFFCURVE",
"585 688 CURVE"
);
},
{
closed = 1;
nodes = (
"330 717 OFFCURVE",
"394 795 OFFCURVE",
"361 902 CURVE",
"487 865 LINE",
"487 865 OFFCURVE",
"463 729 OFFCURVE",
"343 729 CURVE SMOOTH",
"223 729 OFFCURVE",
"185 843 OFFCURVE",
"200 865 CURVE SMOOTH",
"220 895 OFFCURVE",
"320 865 OFFCURVE",
"320 865 CURVE",
"281 835 OFFCURVE",
"265 776 OFFCURVE",
"289 754 CURVE SMOOTH"
);
}
);
width = 673;
}
);
leftKerningGroup = Cap_H_Left;
rightKerningGroup = Cap_H_Right;
unicode = 0419;
},
{
glyphname = uni041A;
layers = (
{
layerId = "f35759b4-f9e3-4796-9f66-20855be2e20d";
paths = (
{
closed = 1;
nodes = (
"183 0 LINE",
"204 261 OFFCURVE",
"328 466 OFFCURVE",
"410 489 CURVE",
"569 489 OFFCURVE",
"638 389 OFFCURVE",
"638 196 CURVE SMOOTH",
"638 103 OFFCURVE",
"608 0 OFFCURVE",
"608 0 CURVE",
"417 0 LINE",
"535 252 OFFCURVE",
"595 426 OFFCURVE",
"521 453 CURVE SMOOTH",
"441 483 OFFCURVE",
"233 365 OFFCURVE",
"194 0 CURVE"
);
},
{
closed = 1;
nodes = (
"164 8 LINE",
"176 341 OFFCURVE",
"277 643 OFFCURVE",
"357 708 CURVE",
"484 708 OFFCURVE",
"605 678 OFFCURVE",
"605 678 CURVE",
"614 525 LINE",
"614 525 OFFCURVE",
"518 589 OFFCURVE",
"431 567 CURVE",
"312 535 OFFCURVE",
"199 403 OFFCURVE",
"174 8 CURVE"
);
},
{
closed = 1;
nodes = (
"207 700 LINE",
"207 700 OFFCURVE",
"154 324 OFFCURVE",
"154 0 CURVE",
"77 0 LINE",
"45 700 LINE"
);
},
{
closed = 1;
nodes = (
"192 0 LINE",
"137 0 LINE",
"137 12 LINE",
"192 12 LINE"
);
}
);
width = 670;
}
);
leftKerningGroup = Cap_H_Left;
rightKerningGroup = Cap_H_Right;
unicode = 041A;
},
{
glyphname = uni041B;
layers = (
{
layerId = "f35759b4-f9e3-4796-9f66-20855be2e20d";
paths = (
{
closed = 1;
nodes = (
"521 257 OFFCURVE",
"436 0 OFFCURVE",
"436 0 CURVE",
"630 0 LINE",
"630 0 OFFCURVE",
"613 349 OFFCURVE",
"606 510 CURVE SMOOTH",
"599 671 OFFCURVE",
"536 711 OFFCURVE",
"424 711 CURVE SMOOTH",
"312 711 OFFCURVE",
"189 643 OFFCURVE",
"38 711 CURVE",
"45 551 LINE",
"265 444 OFFCURVE",
"536 836 OFFCURVE",
"531 625 CURVE SMOOTH"
);
},
{
closed = 1;
nodes = (
"387 198 OFFCURVE",
"231 -4 OFFCURVE",
"151 33 CURVE SMOOTH",
"98 58 OFFCURVE",
"152 227 OFFCURVE",
"218 345 CURVE",
"18 345 LINE",
"-41 128 OFFCURVE",
"130 -9 OFFCURVE",
"256 -9 CURVE",
"342 21 OFFCURVE",
"417 336 OFFCURVE",
"432 678 CURVE",
"432 683 OFFCURVE",
"422 688 OFFCURVE",
"422 680 CURVE"
);
}
);
width = 641;
}
);
rightKerningGroup = Cap_H_Right;
unicode = 041B;
},
{
glyphname = uni041C;
layers = (
{
layerId = "f35759b4-f9e3-4796-9f66-20855be2e20d";
paths = (
{
closed = 1;
nodes = (
"676 700 LINE",
"640 204 OFFCURVE",
"464 -5 OFFCURVE",
"371 32 CURVE SMOOTH",
"293 63 OFFCURVE",
"332 256 OFFCURVE",
"383 439 CURVE",
"434 628 OFFCURVE",
"391 700 OFFCURVE",
"391 700 CURVE",
"244 700 LINE",
"244 700 OFFCURVE",
"193 445 OFFCURVE",
"215 276 CURVE SMOOTH",
"238 104 OFFCURVE",
"341 -10 OFFCURVE",
"487 -10 CURVE",
"590 21 OFFCURVE",
"672 355 OFFCURVE",
"688 700 CURVE"
);
},
{
closed = 1;
nodes = (
"219 700 LINE",
"151 337 OFFCURVE",
"-31 199 OFFCURVE",
"32 0 CURVE",
"191 0 LINE",
"91 244 OFFCURVE",
"177 441 OFFCURVE",
"232 700 CURVE"
);
},
{
closed = 1;
nodes = (
"808 0 LINE",
"776 700 LINE",
"699 700 LINE",
"699 376 OFFCURVE",
"645 0 OFFCURVE",
"645 0 CURVE"
);
},
{
closed = 1;
nodes = (
"261 688 LINE",
"261 700 LINE",
"225 700 LINE",
"225 688 LINE"
);
},
{
closed = 1;
nodes = (
"718 688 LINE",
"718 700 LINE",
"682 700 LINE",
"682 688 LINE"
);
}
);
width = 853;
}
);
rightKerningGroup = Cap_H_Right;
unicode = 041C;
},
{
glyphname = uni041D;
layers = (
{
layerId = "f35759b4-f9e3-4796-9f66-20855be2e20d";
paths = (
{
closed = 1;
nodes = (
"207 344 OFFCURVE",
"175 190 OFFCURVE",
"167 0 CURVE",
"177 0 LINE",
"194 278 OFFCURVE",
"380 296 OFFCURVE",
"439 345 CURVE SMOOTH",
"492 388 OFFCURVE",
"517 510 OFFCURVE",
"526 700 CURVE",
"515 700 LINE",
"498 423 OFFCURVE",
"372 436 OFFCURVE",
"253 408 CURVE"
);
},
{
closed = 1;
nodes = (
"45 700 LINE",
"77 0 LINE",
"155 0 LINE",
"155 324 OFFCURVE",
"208 700 OFFCURVE",
"208 700 CURVE"
);
},
{
closed = 1;
nodes = (
"647 0 LINE",
"615 700 LINE",
"538 700 LINE",
"538 377 OFFCURVE",
"484 0 OFFCURVE",
"484 0 CURVE"
);
},
{
closed = 1;
nodes = (
"176 0 LINE",
"176 12 LINE",
"141 12 LINE",
"141 0 LINE"
);
},
{
closed = 1;
nodes = (
"553 688 LINE",
"553 700 LINE",
"517 700 LINE",
"517 688 LINE"
);
}
);
width = 692;
}
);
leftKerningGroup = Cap_H_Left;
rightKerningGroup = Cap_H_Right;
unicode = 041D;
},
{
glyphname = uni041E;
layers = (
{
layerId = "f35759b4-f9e3-4796-9f66-20855be2e20d";
paths = (
{
closed = 1;
nodes = (
"162 710 OFFCURVE",
"26 565 OFFCURVE",
"25 350 CURVE",
"25 135 OFFCURVE",
"161 -10 OFFCURVE",
"329 -10 CURVE",
"497 -11 OFFCURVE",
"634 134 OFFCURVE",
"634 349 CURVE SMOOTH",
"634 564 OFFCURVE",
"498 710 OFFCURVE",
"330 710 CURVE SMOOTH"
);
},
{
closed = 1;
nodes = (
"397 102 OFFCURVE",
"303 -4 OFFCURVE",
"217 26 CURVE SMOOTH",
"131 56 OFFCURVE",
"136 239 OFFCURVE",
"199 418 CURVE SMOOTH",
"262 597 OFFCURVE",
"356 704 OFFCURVE",
"442 674 CURVE SMOOTH",
"528 644 OFFCURVE",
"523 460 OFFCURVE",
"460 281 CURVE SMOOTH"
);
}
);
width = 659;
}
);
leftKerningGroup = C;
rightKerningGroup = C1;
unicode = 041E;
},
{
glyphname = uni041F;
layers = (
{
layerId = "f35759b4-f9e3-4796-9f66-20855be2e20d";
paths = (
{
closed = 1;
nodes = (
"164 0 LINE",
"174 333 OFFCURVE",
"314 645 OFFCURVE",
"384 710 CURVE",
"483 710 OFFCURVE",
"607 700 OFFCURVE",
"607 700 CURVE",
"639 0 LINE",
"477 0 LINE",
"477 0 OFFCURVE",
"501 177 OFFCURVE",
"521 450 CURVE",
"521 450 OFFCURVE",
"587 468 OFFCURVE",
"600 520 CURVE SMOOTH",
"622 607 OFFCURVE",
"460 602 OFFCURVE",
"358 516 CURVE",
"274 442 OFFCURVE",
"193 293 OFFCURVE",
"176 0 CURVE"
);
},
{
closed = 1;
nodes = (
"207 700 LINE",
"207 700 OFFCURVE",
"153 324 OFFCURVE",
"153 0 CURVE",
"76 0 LINE",
"45 700 LINE"
);
},
{
closed = 1;
nodes = (
"172 0 LINE",
"136 0 LINE",
"136 12 LINE",
"172 12 LINE"
);
}
);
width = 684;
}
);
leftKerningGroup = Cap_H_Left;
rightKerningGroup = Cap_H_Right;
unicode = 041F;
},
{
glyphname = uni0420;
layers = (
{
layerId = "f35759b4-f9e3-4796-9f66-20855be2e20d";
paths = (
{
closed = 1;
nodes = (
"175 0 LINE",
"211 488 OFFCURVE",
"391 708 OFFCURVE",
"475 677 CURVE SMOOTH",
"539 653 OFFCURVE",
"524 529 OFFCURVE",
"474 383 CURVE SMOOTH",
"423 237 OFFCURVE",
"348 141 OFFCURVE",
"287 157 CURVE SMOOTH",
"270 161 OFFCURVE",
"233 181 OFFCURVE",
"200 221 CURVE",
"195 207 LINE",
"249 146 OFFCURVE",
"319 125 OFFCURVE",
"379 125 CURVE SMOOTH",
"516 125 OFFCURVE",
"640 242 OFFCURVE",
"640 417 CURVE SMOOTH",
"640 592 OFFCURVE",
"522 710 OFFCURVE",
"371 710 CURVE",
"272 690 OFFCURVE",
"180 347 OFFCURVE",
"164 0 CURVE"
);
},
{
closed = 1;
nodes = (
"45 700 LINE",
"77 0 LINE",
"154 0 LINE",
"154 324 OFFCURVE",
"208 700 OFFCURVE",
"208 700 CURVE"
);
},
{
closed = 1;
nodes = (
"172 0 LINE",
"172 12 LINE",
"136 12 LINE",
"136 0 LINE"
);
}
);
width = 648;
}
);
leftKerningGroup = Cap_H_Left;
unicode = 0420;
},
{
glyphname = uni0421;
layers = (
{
layerId = "f35759b4-f9e3-4796-9f66-20855be2e20d";
paths = (
{
closed = 1;
nodes = (
"432 343 LINE",
"475 101 OFFCURVE",
"311 -14 OFFCURVE",
"216 25 CURVE SMOOTH",
"131 59 OFFCURVE",
"136 238 OFFCURVE",
"198 417 CURVE SMOOTH",
"260 596 OFFCURVE",
"355 702 OFFCURVE",
"441 673 CURVE SMOOTH",
"504 651 OFFCURVE",
"513 553 OFFCURVE",
"432 429 CURVE",
"626 429 LINE",
"597 599 OFFCURVE",
"475 709 OFFCURVE",
"328 709 CURVE SMOOTH",
"160 709 OFFCURVE",
"24 564 OFFCURVE",
"24 349 CURVE SMOOTH",
"24 134 OFFCURVE",
"160 -10 OFFCURVE",
"328 -10 CURVE SMOOTH",
"516 -10 OFFCURVE",
"625 140 OFFCURVE",
"633 343 CURVE"
);
}
);
width = 655;
}
);
leftKerningGroup = C;
rightKerningGroup = C1;
unicode = 0421;
},
{
glyphname = uni0422;
layers = (
{
layerId = "f35759b4-f9e3-4796-9f66-20855be2e20d";
paths = (
{
closed = 1;
nodes = (
"490 0 LINE",
"490 0 OFFCURVE",
"489 50 OFFCURVE",
"479 212 CURVE",
"461 544 OFFCURVE",
"346 723 OFFCURVE",
"129 723 CURVE SMOOTH",
"-49 723 OFFCURVE",
"-64 468 OFFCURVE",
"162 486 CURVE SMOOTH",
"325 499 OFFCURVE",
"473 652 OFFCURVE",
"734 551 CURVE",
"728 693 LINE",
"728 693 OFFCURVE",
"603 725 OFFCURVE",
"492 714 CURVE",
"443 659 OFFCURVE",
"352 519 OFFCURVE",
"177 501 CURVE SMOOTH",
"95 492 OFFCURVE",
"140 713 OFFCURVE",
"230 694 CURVE SMOOTH",
"359 667 OFFCURVE",
"379 457 OFFCURVE",
"325 0 CURVE"
);
}
);
width = 730;
}
);
unicode = 0422;
},
{
glyphname = uni0423;
layers = (
{
layerId = "f35759b4-f9e3-4796-9f66-20855be2e20d";
paths = (
{
closed = 1;
nodes = (
"224 342 LINE",
"150 229 OFFCURVE",
"155 71 OFFCURVE",
"207 33 CURVE SMOOTH",
"281 -23 OFFCURVE",
"377 111 OFFCURVE",
"356 314 CURVE SMOOTH",
"336 499 OFFCURVE",
"224 633 OFFCURVE",
"39 536 CURVE",
"31 700 LINE",
"225 700 LINE",
"266 657 OFFCURVE",
"430 438 OFFCURVE",
"353 126 CURVE",
"362 126 LINE",
"362 126 OFFCURVE",
"475 359 OFFCURVE",
"475 700 CURVE",
"647 700 LINE",
"647 700 OFFCURVE",
"568 111 OFFCURVE",
"342 -10 CURVE",
"172 -10 OFFCURVE",
"31 80 OFFCURVE",
"21 342 CURVE"
);
}
);
width = 651;
}
);
unicode = 0423;
},
{
glyphname = uni0424;
layers = (
{
layerId = "f35759b4-f9e3-4796-9f66-20855be2e20d";
paths = (
{
closed = 1;
nodes = (
"489 700 LINE",
"489 367 OFFCURVE",
"389 0 OFFCURVE",
"389 0 CURVE",
"524 0 LINE",
"524 512 OFFCURVE",
"661 700 OFFCURVE",
"522 700 CURVE SMOOTH"
);
},
{
closed = 1;
nodes = (
"467 700 LINE",
"432 212 OFFCURVE",
"273 124 OFFCURVE",
"188 155 CURVE SMOOTH",
"125 179 OFFCURVE",
"139 305 OFFCURVE",
"189 451 CURVE SMOOTH",
"239 597 OFFCURVE",
"313 696 OFFCURVE",
"374 680 CURVE SMOOTH",
"391 675 OFFCURVE",
"428 656 OFFCURVE",
"461 616 CURVE",
"468 628 LINE",
"414 689 OFFCURVE",
"344 710 OFFCURVE",
"284 710 CURVE SMOOTH",
"147 710 OFFCURVE",
"23 592 OFFCURVE",
"23 417 CURVE SMOOTH",
"23 242 OFFCURVE",
"141 125 OFFCURVE",
"292 125 CURVE",
"391 144 OFFCURVE",
"462 353 OFFCURVE",
"478 700 CURVE"
);
},
{
closed = 1;
nodes = (
"547 0 LINE",
"583 488 OFFCURVE",
"763 708 OFFCURVE",
"847 677 CURVE SMOOTH",
"911 653 OFFCURVE",
"896 529 OFFCURVE",
"846 383 CURVE SMOOTH",
"795 237 OFFCURVE",
"720 141 OFFCURVE",
"659 157 CURVE SMOOTH",
"642 161 OFFCURVE",
"605 181 OFFCURVE",
"572 221 CURVE",
"567 207 LINE",
"621 146 OFFCURVE",
"691 125 OFFCURVE",
"751 125 CURVE SMOOTH",
"888 125 OFFCURVE",
"1012 242 OFFCURVE",
"1012 417 CURVE SMOOTH",
"1012 592 OFFCURVE",
"894 710 OFFCURVE",
"743 710 CURVE",
"644 690 OFFCURVE",
"552 347 OFFCURVE",
"536 0 CURVE"
);
},
{
closed = 1;
nodes = (
"541 0 LINE",
"541 12 LINE",
"505 12 LINE",
"505 0 LINE"
);
},
{
closed = 1;
nodes = (
"507 688 LINE",
"507 700 LINE",
"471 700 LINE",
"471 688 LINE"
);
}
);
width = 1033;
}
);
leftKerningGroup = C;
rightKerningGroup = C1;
unicode = 0424;
},
{
glyphname = uni0425;
layers = (
{
layerId = "f35759b4-f9e3-4796-9f66-20855be2e20d";
paths = (
{
closed = 1;
nodes = (
"718 0 LINE",
"381 402 OFFCURVE",
"345 506 OFFCURVE",
"468 710 CURVE",
"628 710 OFFCURVE",
"720 691 OFFCURVE",
"720 691 CURVE",
"727 524 LINE",
"727 524 OFFCURVE",
"567 602 OFFCURVE",
"490 569 CURVE SMOOTH",
"359 511 OFFCURVE",
"502 279 OFFCURVE",
"732 0 CURVE"
);
},
{
closed = 1;
nodes = (
"133 0 LINE",
"188 114 OFFCURVE",
"67 186 OFFCURVE",
"55 303 CURVE SMOOTH",
"50 354 OFFCURVE",
"81 409 OFFCURVE",
"154 409 CURVE SMOOTH",
"260 409 OFFCURVE",
"449 192 OFFCURVE",
"492 0 CURVE",
"480 0 LINE",
"378 396 OFFCURVE",
"-31 389 OFFCURVE",
"88 294 CURVE SMOOTH",
"171 228 OFFCURVE",
"393 135 OFFCURVE",
"324 0 CURVE"
);
},
{
closed = 1;
nodes = (
"247 700 LINE",
"272 468 OFFCURVE",
"464 274 OFFCURVE",
"705 0 CURVE",
"503 0 LINE",
"442 358 OFFCURVE",
"0 700 OFFCURVE",
"0 700 CURVE"
);
},
{
closed = 1;
nodes = (
"518 0 LINE",
"482 0 LINE",
"482 12 LINE",
"518 12 LINE"
);
},
{
closed = 1;
nodes = (
"722 0 LINE",
"686 0 LINE",
"686 12 LINE",
"722 12 LINE"
);
}
);
width = 729;
}
);
unicode = 0425;
},
{
glyphname = uni0426;
layers = (
{
layerId = "f35759b4-f9e3-4796-9f66-20855be2e20d";
paths = (
{
closed = 1;
nodes = (
"469 700 LINE",
"432 202 OFFCURVE",
"259 -6 OFFCURVE",
"165 31 CURVE SMOOTH",
"87 62 OFFCURVE",
"126 254 OFFCURVE",
"177 439 CURVE SMOOTH",
"229 628 OFFCURVE",
"263 700 OFFCURVE",
"263 700 CURVE",
"38 700 LINE",
"38 700 OFFCURVE",
"-13 444 OFFCURVE",
"8 274 CURVE",
"31 101 OFFCURVE",
"134 -10 OFFCURVE",
"282 -10 CURVE",
"384 21 OFFCURVE",
"466 353 OFFCURVE",
"481 700 CURVE"
);
},
{
closed = 1;
nodes = (
"631 -83 LINE",
"834 -476 OFFCURVE",
"545 -276 OFFCURVE",
"545 -146 CURVE SMOOTH",
"545 2 OFFCURVE",
"804 12 OFFCURVE",
"806 54 CURVE SMOOTH",
"808 90 OFFCURVE",
"700 118 OFFCURVE",
"597 83 CURVE",
"595 122 OFFCURVE",
"569 700 OFFCURVE",
"569 700 CURVE",
"492 700 LINE",
"492 376 OFFCURVE",
"468 200 OFFCURVE",
"454 89 CURVE SMOOTH",
"442 -12 OFFCURVE",
"542 62 OFFCURVE",
"613 73 CURVE SMOOTH",
"721 89 OFFCURVE",
"403 -187 OFFCURVE",
"482 -340 CURVE SMOOTH",
"547 -467 OFFCURVE",
"805 -313 OFFCURVE",
"805 -83 CURVE"
);
},
{
closed = 1;
nodes = (
"510 700 LINE",
"474 700 LINE",
"474 688 LINE",
"510 688 LINE"
);
}
);
width = 817;
}
);
leftKerningGroup = U;
rightKerningGroup = uni0426;
unicode = 0426;
},
{
glyphname = uni0427;
layers = (
{
layerId = "f35759b4-f9e3-4796-9f66-20855be2e20d";
paths = (
{
closed = 1;
nodes = (
"424 0 LINE",
"424 0 OFFCURVE",
"478 376 OFFCURVE",
"478 700 CURVE",
"555 700 LINE",
"587 0 LINE"
);
},
{
closed = 1;
nodes = (
"469 700 LINE",
"453 484 OFFCURVE",
"411 292 OFFCURVE",
"318 228 CURVE",
"171 228 OFFCURVE",
"19 326 OFFCURVE",
"-6 468 CURVE",
"-30 619 OFFCURVE",
"26 700 OFFCURVE",
"26 700 CURVE",
"222 700 LINE",
"222 700 OFFCURVE",
"203 664 OFFCURVE",
"161 537 CURVE SMOOTH",
"123 417 OFFCURVE",
"114 282 OFFCURVE",
"191 263 CURVE SMOOTH",
"285 239 OFFCURVE",
"422 389 OFFCURVE",
"459 700 CURVE"
);
},
{
closed = 1;
nodes = (
"499 688 LINE",
"463 688 LINE",
"463 700 LINE",
"499 700 LINE"
);
}
);
width = 632;
}
);
rightKerningGroup = Cap_H_Right;
unicode = 0427;
},
{
glyphname = uni0428;
layers = (
{
layerId = "f35759b4-f9e3-4796-9f66-20855be2e20d";
paths = (
{
closed = 1;
nodes = (
"961 700 LINE",
"924 202 OFFCURVE",
"745 -12 OFFCURVE",
"651 25 CURVE SMOOTH",
"573 56 OFFCURVE",
"612 255 OFFCURVE",
"662 440 CURVE",
"715 629 OFFCURVE",
"671 700 OFFCURVE",
"671 700 CURVE",
"529 700 LINE",
"529 700 OFFCURVE",
"538 491 OFFCURVE",
"502 268 CURVE",
"525 95 OFFCURVE",
"620 -10 OFFCURVE",
"768 -10 CURVE",
"870 21 OFFCURVE",
"957 353 OFFCURVE",
"972 700 CURVE"
);
},
{
closed = 1;
nodes = (
"1092 0 LINE",
"1060 700 LINE",
"983 700 LINE",
"983 376 OFFCURVE",
"929 0 OFFCURVE",
"929 0 CURVE"
);
},
{
closed = 1;
nodes = (
"507 700 LINE",
"470 201 OFFCURVE",
"294 -8 OFFCURVE",
"200 30 CURVE",
"122 60 OFFCURVE",
"161 254 OFFCURVE",
"212 438 CURVE SMOOTH",
"264 627 OFFCURVE",
"298 700 OFFCURVE",
"298 700 CURVE",
"73 700 LINE",
"73 700 OFFCURVE",
"22 443 OFFCURVE",
"43 274 CURVE",
"66 101 OFFCURVE",
"169 -10 OFFCURVE",
"317 -10 CURVE",
"419 20 OFFCURVE",
"503 353 OFFCURVE",
"518 700 CURVE"
);
},
{
closed = 1;
nodes = (
"546 688 LINE",
"546 700 LINE",
"510 700 LINE",
"510 688 LINE"
);
},
{
closed = 1;
nodes = (
"1002 688 LINE",
"1002 700 LINE",
"966 700 LINE",
"966 688 LINE"
);
}
);
width = 1137;
}
);
leftKerningGroup = U;
rightKerningGroup = Cap_H_Right;
unicode = 0428;
},
{
glyphname = uni0429;
layers = (
{
layerId = "f35759b4-f9e3-4796-9f66-20855be2e20d";
paths = (
{
closed = 1;
nodes = (
"1122 -83 LINE",
"1325 -476 OFFCURVE",
"1035 -276 OFFCURVE",
"1035 -146 CURVE SMOOTH",
"1035 2 OFFCURVE",
"1295 12 OFFCURVE",
"1297 54 CURVE SMOOTH",
"1299 90 OFFCURVE",
"1191 118 OFFCURVE",
"1088 83 CURVE",
"1086 122 OFFCURVE",
"1060 700 OFFCURVE",
"1060 700 CURVE",
"983 700 LINE",
"983 376 OFFCURVE",
"959 200 OFFCURVE",
"945 89 CURVE SMOOTH",
"933 -12 OFFCURVE",
"1033 63 OFFCURVE",
"1104 74 CURVE SMOOTH",
"1212 90 OFFCURVE",
"894 -187 OFFCURVE",
"973 -340 CURVE SMOOTH",
"1038 -467 OFFCURVE",
"1296 -313 OFFCURVE",
"1296 -83 CURVE"
);
},
{
closed = 1;
nodes = (
"961 700 LINE",
"924 202 OFFCURVE",
"746 -7 OFFCURVE",
"652 30 CURVE SMOOTH",
"574 61 OFFCURVE",
"612 255 OFFCURVE",
"662 440 CURVE",
"715 629 OFFCURVE",
"671 700 OFFCURVE",
"671 700 CURVE",
"529 700 LINE",
"529 700 OFFCURVE",
"538 491 OFFCURVE",
"502 268 CURVE",
"525 95 OFFCURVE",
"620 -10 OFFCURVE",
"768 -10 CURVE",
"870 21 OFFCURVE",
"957 353 OFFCURVE",
"972 700 CURVE"
);
},
{
closed = 1;
nodes = (
"507 700 LINE",
"470 201 OFFCURVE",
"294 -7 OFFCURVE",
"200 31 CURVE",
"122 61 OFFCURVE",
"161 254 OFFCURVE",
"212 438 CURVE SMOOTH",
"264 627 OFFCURVE",
"298 700 OFFCURVE",
"298 700 CURVE",
"73 700 LINE",
"73 700 OFFCURVE",
"22 443 OFFCURVE",
"43 274 CURVE",
"66 101 OFFCURVE",
"169 -10 OFFCURVE",
"317 -10 CURVE",
"419 20 OFFCURVE",
"503 353 OFFCURVE",
"518 700 CURVE"
);
},
{
closed = 1;
nodes = (
"546 688 LINE",
"546 700 LINE",
"510 700 LINE",
"510 688 LINE"
);
},
{
closed = 1;
nodes = (
"1002 688 LINE",
"1002 700 LINE",
"966 700 LINE",
"966 688 LINE"
);
}
);
width = 1279;
}
);
leftKerningGroup = U;
rightKerningGroup = uni0426;
unicode = 0429;
},
{
glyphname = uni042A;
layers = (
{
layerId = "f35759b4-f9e3-4796-9f66-20855be2e20d";
paths = (
{
closed = 1;
nodes = (
"297 0 LINE",
"312 322 OFFCURVE",
"382 516 OFFCURVE",
"481 534 CURVE",
"632 534 OFFCURVE",
"772 425 OFFCURVE",
"772 262 CURVE SMOOTH",
"772 100 OFFCURVE",
"648 -10 OFFCURVE",
"511 -10 CURVE SMOOTH",
"410 -10 OFFCURVE",
"336 46 OFFCURVE",
"307 91 CURVE",
"313 103 LINE",
"357 42 OFFCURVE",
"403 24 OFFCURVE",
"420 20 CURVE SMOOTH",
"481 6 OFFCURVE",
"555 95 OFFCURVE",
"606 231 CURVE SMOOTH",
"656 366 OFFCURVE",
"659 477 OFFCURVE",
"595 500 CURVE SMOOTH",
"511 529 OFFCURVE",
"344 452 OFFCURVE",
"308 0 CURVE"
);
},
{
closed = 1;
nodes = (
"211 0 LINE",
"211 0 OFFCURVE",
"202 182 OFFCURVE",
"197 282 CURVE SMOOTH",
"187 472 OFFCURVE",
"211 658 OFFCURVE",
"287 709 CURVE",
"549 734 OFFCURVE",
"610 655 OFFCURVE",
"579 601 CURVE SMOOTH",
"548 546 OFFCURVE",
"398 561 OFFCURVE",
"289 621 CURVE SMOOTH",
"128 710 OFFCURVE",
"36 477 OFFCURVE",
"36 477 CURVE",
"36 477 OFFCURVE",
"-22 639 OFFCURVE",
"36 691 CURVE SMOOTH",
"72 724 OFFCURVE",
"113 735 OFFCURVE",
"265 642 CURVE SMOOTH",
"373 577 OFFCURVE",
"442 605 OFFCURVE",
"475 632 CURVE SMOOTH",
"498 651 OFFCURVE",
"495 686 OFFCURVE",
"468 695 CURVE SMOOTH",
"342 734 OFFCURVE",
"288 325 OFFCURVE",
"288 0 CURVE"
);
},
{
closed = 1;
nodes = (
"301 0 LINE",
"265 0 LINE",
"265 12 LINE",
"301 12 LINE"
);
}
);
width = 787;
}
);
unicode = 042A;
},
{
glyphname = uni042B;
layers = (
{
layerId = "f35759b4-f9e3-4796-9f66-20855be2e20d";
paths = (
{
closed = 1;
nodes = (
"176 0 LINE",
"212 487 OFFCURVE",
"387 591 OFFCURVE",
"471 560 CURVE SMOOTH",
"535 536 OFFCURVE",
"541 422 OFFCURVE",
"497 240 CURVE SMOOTH",
"444 23 OFFCURVE",
"369 -74 OFFCURVE",
"314 -14 CURVE SMOOTH",
"255 51 OFFCURVE",
"274 319 OFFCURVE",
"437 545 CURVE SMOOTH",
"560 716 OFFCURVE",
"607 512 OFFCURVE",
"686 512 CURVE SMOOTH",
"732 512 OFFCURVE",
"755 595 OFFCURVE",
"767 700 CURVE",
"754 700 LINE",
"747 634 OFFCURVE",
"717 644 OFFCURVE",
"685 662 CURVE SMOOTH",
"633 692 OFFCURVE",
"541 805 OFFCURVE",
"387 521 CURVE SMOOTH",
"275 315 OFFCURVE",
"222 21 OFFCURVE",
"326 -43 CURVE SMOOTH",
"454 -121 OFFCURVE",
"660 5 OFFCURVE",
"660 300 CURVE SMOOTH",
"660 475 OFFCURVE",
"519 593 OFFCURVE",
"368 593 CURVE",
"269 573 OFFCURVE",
"179 346 OFFCURVE",
"164 0 CURVE"
);
},
{
closed = 1;
nodes = (
"45 700 LINE",
"77 0 LINE",
"154 0 LINE",
"154 324 OFFCURVE",
"208 700 OFFCURVE",
"208 700 CURVE"
);
},
{
closed = 1;
nodes = (
"885 0 LINE",
"853 700 LINE",
"776 700 LINE",
"776 376 OFFCURVE",
"722 0 OFFCURVE",
"722 0 CURVE"
);
},
{
closed = 1;
nodes = (
"169 0 LINE",
"169 12 LINE",
"133 12 LINE",
"133 0 LINE"
);
},
{
closed = 1;
nodes = (
"796 688 LINE",
"796 700 LINE",
"760 700 LINE",
"760 688 LINE"
);
}
);
width = 930;
}
);
leftKerningGroup = Cap_H_Left;
rightKerningGroup = Cap_H_Right;
unicode = 042B;
},
{
glyphname = uni042C;
layers = (
{
layerId = "f35759b4-f9e3-4796-9f66-20855be2e20d";
paths = (
{
closed = 1;
nodes = (
"166 0 LINE",
"182 347 OFFCURVE",
"274 556 OFFCURVE",
"373 576 CURVE",
"524 576 OFFCURVE",
"642 458 OFFCURVE",
"642 283 CURVE SMOOTH",
"642 108 OFFCURVE",
"518 -10 OFFCURVE",
"381 -10 CURVE SMOOTH",
"280 -10 OFFCURVE",
"206 50 OFFCURVE",
"178 99 CURVE",
"182 112 LINE",
"227 45 OFFCURVE",
"272 27 OFFCURVE",
"289 23 CURVE SMOOTH",
"350 7 OFFCURVE",
"425 103 OFFCURVE",
"476 249 CURVE SMOOTH",
"526 395 OFFCURVE",
"541 519 OFFCURVE",
"477 543 CURVE SMOOTH",
"393 575 OFFCURVE",
"213 487 OFFCURVE",
"177 0 CURVE"
);
},
{
closed = 1;
nodes = (
"208 700 LINE",
"208 700 OFFCURVE",
"154 324 OFFCURVE",
"154 0 CURVE",
"77 0 LINE",
"45 700 LINE"
);
},
{
closed = 1;
nodes = (
"173 0 LINE",
"137 0 LINE",
"137 12 LINE",
"173 12 LINE"
);
}
);
width = 651;
}
);
leftKerningGroup = Cap_H_Left;
unicode = 042C;
},
{
glyphname = uni042D;
layers = (
{
layerId = "f35759b4-f9e3-4796-9f66-20855be2e20d";
paths = (
{
closed = 1;
nodes = (
"164 710 OFFCURVE",
"58 668 OFFCURVE",
"58 668 CURVE",
"58 465 LINE",
"58 465 OFFCURVE",
"328 711 OFFCURVE",
"422 674 CURVE",
"508 643 OFFCURVE",
"502 461 OFFCURVE",
"439 282 CURVE SMOOTH",
"376 103 OFFCURVE",
"281 -7 OFFCURVE",
"195 23 CURVE",
"127 50 OFFCURVE",
"156 180 OFFCURVE",
"231 351 CURVE",
"42 351 LINE",
"-21 125 OFFCURVE",
"137 -10 OFFCURVE",
"308 -10 CURVE SMOOTH",
"476 -10 OFFCURVE",
"613 134 OFFCURVE",
"613 349 CURVE",
"614 564 OFFCURVE",
"477 710 OFFCURVE",
"309 710 CURVE SMOOTH"
);
},
{
closed = 1;
nodes = (
"190 407 OFFCURVE",
"281 382 OFFCURVE",
"358 448 CURVE SMOOTH",
"440 519 OFFCURVE",
"491 463 OFFCURVE",
"445 300 CURVE",
"445 300 OFFCURVE",
"491 321 OFFCURVE",
"491 413 CURVE SMOOTH",
"491 420 OFFCURVE",
"490 428 OFFCURVE",
"489 435 CURVE",
"471 435 LINE",
"471 435 OFFCURVE",
"449 580 OFFCURVE",
"325 580 CURVE",
"302 533 OFFCURVE",
"274 472 OFFCURVE",
"190 472 CURVE"
);
}
);
width = 640;
}
);
rightKerningGroup = C1;
unicode = 042D;
},
{
glyphname = uni042E;
layers = (
{
layerId = "f35759b4-f9e3-4796-9f66-20855be2e20d";
paths = (
{
closed = 1;
nodes = (
"164 0 LINE",
"181 277 OFFCURVE",
"245 467 OFFCURVE",
"307 418 CURVE SMOOTH",
"352 383 OFFCURVE",
"380 308 OFFCURVE",
"448 283 CURVE SMOOTH",
"599 227 OFFCURVE",
"679 485 OFFCURVE",
"779 700 CURVE",
"928 672 OFFCURVE",
"1022 526 OFFCURVE",
"1022 353 CURVE SMOOTH",
"1022 137 OFFCURVE",
"888 -10 OFFCURVE",
"718 -10 CURVE SMOOTH",
"548 -10 OFFCURVE",
"439 136 OFFCURVE",
"439 353 CURVE SMOOTH",
"439 481 OFFCURVE",
"517 700 OFFCURVE",
"517 700 CURVE",
"703 700 LINE",
"703 700 OFFCURVE",
"633 563 OFFCURVE",
"581 395 CURVE SMOOTH",
"524 212 OFFCURVE",
"526 62 OFFCURVE",
"596 34 CURVE SMOOTH",
"718 -15 OFFCURVE",
"971 396 OFFCURVE",
"971 510 CURVE SMOOTH",
"971 607 OFFCURVE",
"866 570 OFFCURVE",
"766 462 CURVE SMOOTH",
"658 347 OFFCURVE",
"552 230 OFFCURVE",
"427 278 CURVE SMOOTH",
"345 310 OFFCURVE",
"196 349 OFFCURVE",
"176 0 CURVE"
);
},
{
closed = 1;
nodes = (
"208 700 LINE",
"208 700 OFFCURVE",
"154 324 OFFCURVE",
"154 0 CURVE",
"77 0 LINE",
"45 700 LINE"
);
},
{
closed = 1;
nodes = (
"170 0 LINE",
"134 0 LINE",
"134 12 LINE",
"170 12 LINE"
);
}
);
width = 1055;
}
);
leftKerningGroup = Cap_H_Left;
rightKerningGroup = C1;
unicode = 042E;
},
{
glyphname = uni042F;
layers = (
{
layerId = "f35759b4-f9e3-4796-9f66-20855be2e20d";
paths = (
{
closed = 1;
nodes = (
"639 700 LINE",
"671 0 LINE",
"508 0 LINE",
"508 0 OFFCURVE",
"561 376 OFFCURVE",
"561 700 CURVE"
);
},
{
closed = 1;
nodes = (
"550 700 LINE",
"544 595 OFFCURVE",
"521 514 OFFCURVE",
"462 514 CURVE SMOOTH",
"409 514 OFFCURVE",
"391 697 OFFCURVE",
"319 697 CURVE SMOOTH",
"177 697 OFFCURVE",
"80 294 OFFCURVE",
"176 260 CURVE SMOOTH",
"248 234 OFFCURVE",
"352 336 OFFCURVE",
"367 464 CURVE",
"536 429 LINE",
"524 303 OFFCURVE",
"480 164 OFFCURVE",
"358 -10 CURVE",
"207 -10 OFFCURVE",
"79 23 OFFCURVE",
"79 23 CURVE",
"73 180 LINE",
"73 180 OFFCURVE",
"209 123 OFFCURVE",
"298 123 CURVE SMOOTH",
"468 123 OFFCURVE",
"514 340 OFFCURVE",
"524 420 CURVE",
"513 422 LINE",
"476 276 OFFCURVE",
"347 206 OFFCURVE",
"347 206 CURVE",
"197 206 OFFCURVE",
"40 292 OFFCURVE",
"40 454 CURVE SMOOTH",
"40 629 OFFCURVE",
"165 710 OFFCURVE",
"297 710 CURVE SMOOTH",
"376 710 OFFCURVE",
"420 679 OFFCURVE",
"472 649 CURVE SMOOTH",
"504 631 OFFCURVE",
"531 633 OFFCURVE",
"539 700 CURVE"
);
},
{
closed = 1;
nodes = (
"578 688 LINE",
"542 688 LINE",
"542 700 LINE",
"578 700 LINE"
);
}
);
width = 706;
}
);
rightKerningGroup = Cap_H_Right;
unicode = 042F;
},
{
glyphname = uni0401;
layers = (
{
layerId = "f35759b4-f9e3-4796-9f66-20855be2e20d";
paths = (
{
closed = 1;
nodes = (
"170 0 LINE",
"134 0 LINE",
"134 12 LINE",
"170 12 LINE"
);
},
{
closed = 1;
nodes = (
"220 0 LINE",
"172 0 LINE",
"172 12 LINE",
"220 12 LINE"
);
},
{
closed = 1;
nodes = (
"208 700 LINE",
"208 700 OFFCURVE",
"154 324 OFFCURVE",
"154 0 CURVE",
"77 0 LINE",
"45 700 LINE"
);
},
{
closed = 1;
nodes = (
"211 0 LINE",
"216 140 OFFCURVE",
"288 169 OFFCURVE",
"346 156 CURVE SMOOTH",
"458 131 OFFCURVE",
"528 105 OFFCURVE",
"596 144 CURVE",
"602 16 LINE",
"539 -32 OFFCURVE",
"459 -5 OFFCURVE",
"388 28 CURVE SMOOTH",
"307 66 OFFCURVE",
"229 133 OFFCURVE",
"221 0 CURVE"
);
},
{
closed = 1;
nodes = (
"188 0 LINE",
"205 289 OFFCURVE",
"311 382 OFFCURVE",
"382 410 CURVE",
"457 410 OFFCURVE",
"517 373 OFFCURVE",
"592 400 CURVE",
"592 400 OFFCURVE",
"616 235 OFFCURVE",
"442 276 CURVE SMOOTH",
"384 290 OFFCURVE",
"220 348 OFFCURVE",
"200 0 CURVE"
);
},
{
closed = 1;
nodes = (
"165 0 LINE",
"175 343 OFFCURVE",
"265 643 OFFCURVE",
"334 708 CURVE",
"494 708 OFFCURVE",
"585 691 OFFCURVE",
"585 691 CURVE",
"592 549 LINE",
"592 549 OFFCURVE",
"461 596 OFFCURVE",
"394 569 CURVE SMOOTH",
"291 529 OFFCURVE",
"199 395 OFFCURVE",
"177 0 CURVE"
);
},
{
closed = 1;
nodes = (
"257 921 OFFCURVE",
"284 892 OFFCURVE",
"284 850 CURVE SMOOTH",
"284 807 OFFCURVE",
"257 779 OFFCURVE",
"224 779 CURVE SMOOTH",
"191 779 OFFCURVE",
"164 807 OFFCURVE",
"164 850 CURVE SMOOTH",
"164 892 OFFCURVE",
"191 921 OFFCURVE",
"224 921 CURVE SMOOTH"
);
},
{
closed = 1;
nodes = (
"459 921 OFFCURVE",
"486 892 OFFCURVE",
"486 850 CURVE SMOOTH",
"486 807 OFFCURVE",
"459 779 OFFCURVE",
"426 779 CURVE SMOOTH",
"393 779 OFFCURVE",
"366 807 OFFCURVE",
"366 850 CURVE SMOOTH",
"366 892 OFFCURVE",
"393 921 OFFCURVE",
"426 921 CURVE SMOOTH"
);
}
);
width = 627;
}
);
leftKerningGroup = Cap_H_Left;
rightKerningGroup = uni04011;
unicode = 0401;
},
{
glyphname = uni0430;
layers = (
{
layerId = "f35759b4-f9e3-4796-9f66-20855be2e20d";
paths = (
{
closed = 1;
nodes = (
"75 46 OFFCURVE",
"209 416 OFFCURVE",
"345 251 CURVE",
"349 264 LINE",
"259 373 OFFCURVE",
"29 341 OFFCURVE",
"29 166 CURVE SMOOTH",
"29 56 OFFCURVE",
"128 -11 OFFCURVE",
"223 -11 CURVE",
"278 5 OFFCURVE",
"379 206 OFFCURVE",
"391 447 CURVE",
"379 445 LINE",
"365 176 OFFCURVE",
"202 -5 OFFCURVE",
"138 20 CURVE SMOOTH"
);
},
{
closed = 1;
nodes = (
"400 170 OFFCURVE",
"326 0 OFFCURVE",
"326 0 CURVE",
"486 0 LINE",
"486 0 OFFCURVE",
"479 114 OFFCURVE",
"472 255 CURVE SMOOTH",
"463 417 OFFCURVE",
"375 510 OFFCURVE",
"252 510 CURVE SMOOTH",
"130 510 OFFCURVE",
"61 470 OFFCURVE",
"61 470 CURVE",
"68 325 LINE",
"68 325 OFFCURVE",
"210 448 OFFCURVE",
"400 436 CURVE"
);
}
);
width = 531;
}
);
unicode = 0430;
},
{
glyphname = uni0431;
layers = (
{
layerId = "f35759b4-f9e3-4796-9f66-20855be2e20d";
paths = (
{
closed = 1;
nodes = (
"145 509 OFFCURVE",
"46 405 OFFCURVE",
"47 250 CURVE SMOOTH",
"48 94 OFFCURVE",
"147 -10 OFFCURVE",
"269 -10 CURVE",
"390 -9 OFFCURVE",
"488 96 OFFCURVE",
"488 252 CURVE",
"487 407 OFFCURVE",
"388 511 OFFCURVE",
"266 510 CURVE SMOOTH"
);
},
{
closed = 1;
nodes = (
"310 91 OFFCURVE",
"236 3 OFFCURVE",
"188 20 CURVE SMOOTH",
"140 36 OFFCURVE",
"136 151 OFFCURVE",
"180 281 CURVE SMOOTH",
"225 410 OFFCURVE",
"299 497 OFFCURVE",
"347 481 CURVE SMOOTH",
"395 464 OFFCURVE",
"399 351 OFFCURVE",
"355 221 CURVE SMOOTH"
);
},
{
closed = 1;
nodes = (
"-32 629 OFFCURVE",
"-28 124 OFFCURVE",
"166 19 CURVE",
"165 23 LINE",
"-51 175 OFFCURVE",
"32 728 OFFCURVE",
"244 647 CURVE SMOOTH",
"317 619 OFFCURVE",
"372 543 OFFCURVE",
"428 543 CURVE SMOOTH",
"508 543 OFFCURVE",
"515 655 OFFCURVE",
"536 759 CURVE",
"525 762 LINE",
"504 671 OFFCURVE",
"482 663 OFFCURVE",
"393 706 CURVE SMOOTH",
"348 728 OFFCURVE",
"272 767 OFFCURVE",
"199 734 CURVE SMOOTH"
);
}
);
width = 533;
}
);
unicode = 0431;
},
{
glyphname = uni0432;
layers = (
{
layerId = "f35759b4-f9e3-4796-9f66-20855be2e20d";
paths = (
{
closed = 1;
nodes = (
"132 440 LINE",
"281 375 OFFCURVE",
"417 732 OFFCURVE",
"352 770 CURVE SMOOTH",
"315 792 OFFCURVE",
"234 749 OFFCURVE",
"154 455 CURVE SMOOTH",
"92 227 OFFCURVE",
"135 42 OFFCURVE",
"173 20 CURVE SMOOTH",
"261 -32 OFFCURVE",
"436 313 OFFCURVE",
"366 351 CURVE SMOOTH",
"304 385 OFFCURVE",
"172 170 OFFCURVE",
"172 170 CURVE",
"166 344 LINE",
"166 344 OFFCURVE",
"227 378 OFFCURVE",
"297 378 CURVE SMOOTH",
"382 378 OFFCURVE",
"458 318 OFFCURVE",
"458 211 CURVE SMOOTH",
"458 90 OFFCURVE",
"380 -10 OFFCURVE",
"246 -10 CURVE SMOOTH",
"125 -10 OFFCURVE",
"9 115 OFFCURVE",
"27 424 CURVE SMOOTH",
"40 659 OFFCURVE",
"138 802 OFFCURVE",
"190 822 CURVE",
"422 822 OFFCURVE",
"498 648 OFFCURVE",
"413 510 CURVE SMOOTH",
"350 407 OFFCURVE",
"202 389 OFFCURVE",
"96 442 CURVE"
);
}
);
width = 481;
}
);
leftKerningGroup = uni0432;
unicode = 0432;
},
{
glyphname = uni0433;
layers = (
{
layerId = "f35759b4-f9e3-4796-9f66-20855be2e20d";
paths = (
{
closed = 1;
nodes = (
"29 471 LINE",
"29 471 OFFCURVE",
"125 510 OFFCURVE",
"217 510 CURVE SMOOTH",
"347 510 OFFCURVE",
"389 421 OFFCURVE",
"324 336 CURVE SMOOTH",
"258 252 OFFCURVE",
"99 58 OFFCURVE",
"178 16 CURVE SMOOTH",
"222 -7 OFFCURVE",
"381 58 OFFCURVE",
"309 263 CURVE",
"473 263 LINE",
"478 183 OFFCURVE",
"430 -10 OFFCURVE",
"254 -10 CURVE SMOOTH",
"132 -10 OFFCURVE",
"43 87 OFFCURVE",
"43 166 CURVE",
"103 292 OFFCURVE",
"356 403 OFFCURVE",
"335 446 CURVE SMOOTH",
"306 508 OFFCURVE",
"37 319 OFFCURVE",
"37 319 CURVE"
);
}
);
width = 477;
}
);
unicode = 0433;
},
{
glyphname = uni0434;
layers = (
{
layerId = "f35759b4-f9e3-4796-9f66-20855be2e20d";
paths = (
{
closed = 1;
nodes = (
"304 69 OFFCURVE",
"220 3 OFFCURVE",
"172 20 CURVE SMOOTH",
"124 37 OFFCURVE",
"129 151 OFFCURVE",
"165 255 CURVE SMOOTH",
"201 359 OFFCURVE",
"280 420 OFFCURVE",
"333 407 CURVE SMOOTH",
"369 399 OFFCURVE",
"408 348 OFFCURVE",
"408 348 CURVE",
"408 348 OFFCURVE",
"435 327 OFFCURVE",
"409 364 CURVE SMOOTH",
"372 415 OFFCURVE",
"316 433 OFFCURVE",
"252 433 CURVE SMOOTH",
"131 433 OFFCURVE",
"32 349 OFFCURVE",
"32 225 CURVE SMOOTH",
"32 100 OFFCURVE",
"131 -10 OFFCURVE",
"252 -10 CURVE SMOOTH",
"374 -10 OFFCURVE",
"499 103 OFFCURVE",
"499 329 CURVE SMOOTH",
"499 543 OFFCURVE",
"395 700 OFFCURVE",
"231 700 CURVE SMOOTH",
"147 700 OFFCURVE",
"43 661 OFFCURVE",
"43 661 CURVE",
"51 510 LINE",
"51 510 OFFCURVE",
"285 669 OFFCURVE",
"359 644 CURVE SMOOTH",
"433 619 OFFCURVE",
"416 416 OFFCURVE",
"363 252 CURVE SMOOTH"
);
}
);
width = 529;
}
);
unicode = 0434;
},
{
glyphname = uni0435;
layers = (
{
layerId = "f35759b4-f9e3-4796-9f66-20855be2e20d";
paths = (
{
closed = 1;
nodes = (
"134 308 LINE",
"463 308 LINE",
"442 431 OFFCURVE",
"353 510 OFFCURVE",
"247 510 CURVE SMOOTH",
"123 510 OFFCURVE",
"27 407 OFFCURVE",
"27 250 CURVE SMOOTH",
"27 93 OFFCURVE",
"123 -10 OFFCURVE",
"246 -10 CURVE SMOOTH",
"366 -10 OFFCURVE",
"467 88 OFFCURVE",
"467 263 CURVE",
"303 263 LINE",
"364 78 OFFCURVE",
"238 -9 OFFCURVE",
"172 16 CURVE SMOOTH",
"112 39 OFFCURVE",
"112 151 OFFCURVE",
"169 308 CURVE SMOOTH",
"210 420 OFFCURVE",
"280 499 OFFCURVE",
"328 480 CURVE SMOOTH",
"383 459 OFFCURVE",
"375 321 OFFCURVE",
"244 321 CURVE SMOOTH",
"134 321 LINE"
);
}
);
width = 494;
}
);
leftKerningGroup = o_left;
rightKerningGroup = o_right;
unicode = 0435;
},
{
glyphname = uni0436;
layers = (
{
layerId = "f35759b4-f9e3-4796-9f66-20855be2e20d";
paths = (
{
closed = 1;
nodes = (
"398 0 LINE",
"371 500 LINE",
"531 500 LINE",
"522 482 OFFCURVE",
"457 323 OFFCURVE",
"457 0 CURVE"
);
},
{
closed = 1;
nodes = (
"468 0 LINE",
"481 309 OFFCURVE",
"554 464 OFFCURVE",
"599 510 CURVE",
"843 510 OFFCURVE",
"806 418 OFFCURVE",
"755 335 CURVE SMOOTH",
"705 250 OFFCURVE",
"555 60 OFFCURVE",
"615 19 CURVE SMOOTH",
"650 -4 OFFCURVE",
"755 47 OFFCURVE",
"751 263 CURVE",
"871 263 LINE",
"876 182 OFFCURVE",
"809 -10 OFFCURVE",
"674 -10 CURVE SMOOTH",
"581 -10 OFFCURVE",
"529 86 OFFCURVE",
"529 165 CURVE",
"575 290 OFFCURVE",
"793 401 OFFCURVE",
"777 444 CURVE SMOOTH",
"755 505 OFFCURVE",
"495 453 OFFCURVE",
"481 0 CURVE"
);
},
{
closed = 1;
nodes = (
"226 47 OFFCURVE",
"173 5 OFFCURVE",
"139 17 CURVE SMOOTH",
"104 29 OFFCURVE",
"106 96 OFFCURVE",
"144 173 CURVE SMOOTH",
"217 321 OFFCURVE",
"353 351 OFFCURVE",
"362 500 CURVE",
"350 500 LINE",
"330 302 OFFCURVE",
"87 298 OFFCURVE",
"39 162 CURVE",
"39 71 OFFCURVE",
"110 -10 OFFCURVE",
"197 -10 CURVE SMOOTH",
"284 -10 OFFCURVE",
"366 72 OFFCURVE",
"366 239 CURVE SMOOTH",
"366 396 OFFCURVE",
"291 510 OFFCURVE",
"174 510 CURVE SMOOTH",
"113 510 OFFCURVE",
"39 470 OFFCURVE",
"39 470 CURVE",
"45 324 LINE",
"45 324 OFFCURVE",
"210 500 OFFCURVE",
"275 458 CURVE SMOOTH",
"322 429 OFFCURVE",
"306 303 OFFCURVE",
"268 182 CURVE SMOOTH"
);
},
{
closed = 1;
nodes = (
"476 -1 LINE",
"441 -1 LINE",
"441 11 LINE",
"476 11 LINE"
);
},
{
closed = 1;
nodes = (
"390 488 LINE",
"354 488 LINE",
"354 500 LINE",
"390 500 LINE"
);
}
);
width = 894;
}
);
unicode = 0436;
},
{
glyphname = uni0437;
layers = (
{
layerId = "f35759b4-f9e3-4796-9f66-20855be2e20d";
paths = (
{
closed = 1;
nodes = (
"349 361 OFFCURVE",
"425 510 OFFCURVE",
"240 510 CURVE SMOOTH",
"137 510 OFFCURVE",
"42 471 OFFCURVE",
"42 471 CURVE",
"50 325 LINE",
"50 325 OFFCURVE",
"254 507 OFFCURVE",
"322 479 CURVE SMOOTH",
"366 461 OFFCURVE",
"280 387 OFFCURVE",
"208 322 CURVE",
"254 310 OFFCURVE",
"348 299 OFFCURVE",
"317 174 CURVE SMOOTH",
"291 67 OFFCURVE",
"226 -7 OFFCURVE",
"162 18 CURVE SMOOTH",
"113 37 OFFCURVE",
"113 144 OFFCURVE",
"195 263 CURVE",
"37 263 LINE",
"4 98 OFFCURVE",
"117 -10 OFFCURVE",
"240 -10 CURVE SMOOTH",
"337 -10 OFFCURVE",
"447 61 OFFCURVE",
"447 182 CURVE SMOOTH",
"447 314 OFFCURVE",
"299 232 OFFCURVE",
"322 290 CURVE SMOOTH"
);
}
);
width = 460;
}
);
unicode = 0437;
},
{
glyphname = uni0438;
layers = (
{
layerId = "f35759b4-f9e3-4796-9f66-20855be2e20d";
paths = (
{
closed = 1;
nodes = (
"455 492 LINE",
"455 492 LINE",
"455 493 LINE",
"455 493 LINE"
);
},
{
closed = 1;
nodes = (
"429 500 LINE",
"418 249 OFFCURVE",
"327 12 OFFCURVE",
"253 -10 CURVE",
"131 -10 OFFCURVE",
"32 95 OFFCURVE",
"32 250 CURVE SMOOTH",
"32 342 OFFCURVE",
"79 500 OFFCURVE",
"79 500 CURVE",
"252 500 LINE",
"252 500 OFFCURVE",
"208 401 OFFCURVE",
"166 281 CURVE SMOOTH",
"122 155 OFFCURVE",
"111 45 OFFCURVE",
"164 24 CURVE SMOOTH",
"235 -4 OFFCURVE",
"390 142 OFFCURVE",
"417 500 CURVE"
);
},
{
closed = 1;
nodes = (
"525 0 LINE",
"364 0 LINE",
"374 18 OFFCURVE",
"439 176 OFFCURVE",
"439 500 CURVE",
"498 500 LINE"
);
},
{
closed = 1;
nodes = (
"423 488 LINE",
"423 500 LINE",
"459 500 LINE",
"459 488 LINE"
);
}
);
width = 570;
}
);
leftKerningGroup = u_left;
rightKerningGroup = u_right;
unicode = 0438;
},
{
glyphname = uni0439;
layers = (
{
layerId = "f35759b4-f9e3-4796-9f66-20855be2e20d";
paths = (
{
closed = 1;
nodes = (
"455 492 LINE",
"455 492 LINE",
"455 493 LINE",
"455 493 LINE"
);
},
{
closed = 1;
nodes = (
"250 591 OFFCURVE",
"266 650 OFFCURVE",
"305 680 CURVE",
"305 680 OFFCURVE",
"205 710 OFFCURVE",
"185 680 CURVE SMOOTH",
"170 658 OFFCURVE",
"208 544 OFFCURVE",
"328 544 CURVE SMOOTH",
"448 544 OFFCURVE",
"472 680 OFFCURVE",
"472 680 CURVE",
"346 717 LINE",
"379 610 OFFCURVE",
"315 532 OFFCURVE",
"274 569 CURVE SMOOTH"
);
},
{
closed = 1;
nodes = (
"417 500 LINE",
"390 142 OFFCURVE",
"235 -4 OFFCURVE",
"164 24 CURVE SMOOTH",
"111 45 OFFCURVE",
"122 155 OFFCURVE",
"166 281 CURVE SMOOTH",
"208 401 OFFCURVE",
"252 500 OFFCURVE",
"252 500 CURVE",
"79 500 LINE",
"79 500 OFFCURVE",
"32 342 OFFCURVE",
"32 250 CURVE SMOOTH",
"32 95 OFFCURVE",
"131 -10 OFFCURVE",
"253 -10 CURVE",
"327 12 OFFCURVE",
"418 249 OFFCURVE",
"429 500 CURVE"
);
},
{
closed = 1;
nodes = (
"498 500 LINE",
"439 500 LINE",
"439 176 OFFCURVE",
"374 18 OFFCURVE",
"364 0 CURVE",
"525 0 LINE"
);
},
{
closed = 1;
nodes = (
"459 488 LINE",
"459 500 LINE",
"423 500 LINE",
"423 488 LINE"
);
}
);
width = 570;
}
);
leftKerningGroup = u_left;
rightKerningGroup = u_right;
unicode = 0439;
},
{
glyphname = uni043A;
layers = (
{
layerId = "f35759b4-f9e3-4796-9f66-20855be2e20d";
paths = (
{
closed = 1;
nodes = (
"177 0 LINE",
"143 0 LINE",
"143 11 LINE",
"177 11 LINE"
);
},
{
closed = 1;
nodes = (
"493 359 LINE",
"493 359 OFFCURVE",
"432 387 OFFCURVE",
"374 387 CURVE SMOOTH",
"301 387 OFFCURVE",
"185 355 OFFCURVE",
"157 0 CURVE",
"144 1 LINE",
"155 250 OFFCURVE",
"217 488 OFFCURVE",
"291 509 CURVE",
"407 509 OFFCURVE",
"486 493 OFFCURVE",
"486 493 CURVE"
);
},
{
closed = 1;
nodes = (
"429 318 OFFCURVE",
"526 233 OFFCURVE",
"526 108 CURVE SMOOTH",
"526 77 OFFCURVE",
"518 37 OFFCURVE",
"509 0 CURVE",
"333 0 LINE",
"447 133 OFFCURVE",
"447 273 OFFCURVE",
"391 290 CURVE SMOOTH",
"332 310 OFFCURVE",
"221 213 OFFCURVE",
"179 0 CURVE",
"167 0 LINE",
"191 162 OFFCURVE",
"248 303 OFFCURVE",
"309 318 CURVE"
);
},
{
closed = 1;
nodes = (
"150 0 LINE",
"116 0 LINE",
"116 11 LINE",
"150 11 LINE"
);
},
{
closed = 1;
nodes = (
"74 0 LINE",
"47 500 LINE",
"207 500 LINE",
"198 482 OFFCURVE",
"133 324 OFFCURVE",
"133 0 CURVE"
);
}
);
width = 557;
}
);
leftKerningGroup = n_left;
unicode = 043A;
},
{
glyphname = uni043B;
layers = (
{
layerId = "f35759b4-f9e3-4796-9f66-20855be2e20d";
paths = (
{
closed = 1;
nodes = (
"54 263 LINE",
"54 263 OFFCURVE",
"30 214 OFFCURVE",
"30 167 CURVE SMOOTH",
"30 57 OFFCURVE",
"124 -10 OFFCURVE",
"220 -10 CURVE",
"265 34 OFFCURVE",
"334 207 OFFCURVE",
"346 447 CURVE",
"335 446 LINE",
"316 196 OFFCURVE",
"187 3 OFFCURVE",
"130 24 CURVE SMOOTH",
"85 41 OFFCURVE",
"116 157 OFFCURVE",
"199 263 CURVE"
);
},
{
closed = 1;
nodes = (
"395 167 OFFCURVE",
"325 0 OFFCURVE",
"325 0 CURVE",
"483 0 LINE",
"483 0 OFFCURVE",
"477 113 OFFCURVE",
"470 255 CURVE",
"460 417 OFFCURVE",
"373 510 OFFCURVE",
"250 510 CURVE SMOOTH",
"126 510 OFFCURVE",
"57 471 OFFCURVE",
"57 471 CURVE",
"65 325 LINE",
"65 325 OFFCURVE",
"205 445 OFFCURVE",
"395 434 CURVE"
);
}
);
width = 506;
}
);
rightKerningGroup = u_right;
unicode = 043B;
},
{
glyphname = uni043C;
layers = (
{
layerId = "f35759b4-f9e3-4796-9f66-20855be2e20d";
paths = (
{
closed = 1;
nodes = (
"587 492 LINE",
"588 492 LINE",
"588 493 LINE",
"587 493 LINE"
);
},
{
closed = 1;
nodes = (
"550 500 LINE",
"523 142 OFFCURVE",
"368 -4 OFFCURVE",
"297 24 CURVE SMOOTH",
"244 45 OFFCURVE",
"255 155 OFFCURVE",
"299 281 CURVE SMOOTH",
"341 401 OFFCURVE",
"385 500 OFFCURVE",
"385 500 CURVE",
"212 500 LINE",
"212 500 OFFCURVE",
"165 342 OFFCURVE",
"165 250 CURVE SMOOTH",
"165 95 OFFCURVE",
"264 -10 OFFCURVE",
"386 -10 CURVE",
"460 12 OFFCURVE",
"551 249 OFFCURVE",
"562 500 CURVE"
);
},
{
closed = 1;
nodes = (
"631 500 LINE",
"572 500 LINE",
"572 176 OFFCURVE",
"507 18 OFFCURVE",
"497 0 CURVE",
"658 0 LINE"
);
},
{
closed = 1;
nodes = (
"592 488 LINE",
"592 500 LINE",
"556 500 LINE",
"556 488 LINE"
);
},
{
closed = 1;
nodes = (
"189 500 LINE",
"124 221 OFFCURVE",
"-19 142 OFFCURVE",
"26 0 CURVE",
"171 0 LINE",
"99 174 OFFCURVE",
"150 314 OFFCURVE",
"201 500 CURVE"
);
},
{
closed = 1;
nodes = (
"229 488 LINE",
"229 500 LINE",
"193 500 LINE",
"193 488 LINE"
);
}
);
width = 703;
}
);
rightKerningGroup = u_right;
unicode = 043C;
},
{
glyphname = uni043D;
layers = (
{
layerId = "f35759b4-f9e3-4796-9f66-20855be2e20d";
paths = (
{
closed = 1;
nodes = (
"176 257 OFFCURVE",
"151 136 OFFCURVE",
"144 0 CURVE",
"156 0 LINE",
"170 198 OFFCURVE",
"294 178 OFFCURVE",
"363 226 CURVE SMOOTH",
"406 256 OFFCURVE",
"425 364 OFFCURVE",
"432 500 CURVE",
"420 500 LINE",
"406 302 OFFCURVE",
"318 325 OFFCURVE",
"213 304 CURVE"
);
},
{
closed = 1;
nodes = (
"74 0 LINE",
"133 0 LINE",
"133 324 OFFCURVE",
"198 482 OFFCURVE",
"207 500 CURVE",
"47 500 LINE"
);
},
{
closed = 1;
nodes = (
"503 500 LINE",
"444 500 LINE",
"444 176 OFFCURVE",
"379 18 OFFCURVE",
"370 0 CURVE",
"530 0 LINE"
);
},
{
closed = 1;
nodes = (
"152 0 LINE",
"152 12 LINE",
"116 12 LINE",
"116 0 LINE"
);
},
{
closed = 1;
nodes = (
"462 488 LINE",
"462 500 LINE",
"426 500 LINE",
"426 488 LINE"
);
}
);
width = 575;
}
);
leftKerningGroup = n_left;
rightKerningGroup = u_right;
unicode = 043D;
},
{
glyphname = uni043E;
layers = (
{
layerId = "f35759b4-f9e3-4796-9f66-20855be2e20d";
paths = (
{
closed = 1;
nodes = (
"123 510 OFFCURVE",
"27 406 OFFCURVE",
"27 250 CURVE SMOOTH",
"27 94 OFFCURVE",
"123 -10 OFFCURVE",
"245 -10 CURVE SMOOTH",
"368 -10 OFFCURVE",
"466 94 OFFCURVE",
"466 250 CURVE SMOOTH",
"466 406 OFFCURVE",
"368 510 OFFCURVE",
"245 510 CURVE SMOOTH"
);
},
{
closed = 1;
nodes = (
"290 89 OFFCURVE",
"212 3 OFFCURVE",
"165 19 CURVE SMOOTH",
"115 37 OFFCURVE",
"113 149 OFFCURVE",
"160 279 CURVE SMOOTH",
"206 406 OFFCURVE",
"279 495 OFFCURVE",
"329 479 CURVE SMOOTH",
"375 464 OFFCURVE",
"378 349 OFFCURVE",
"334 219 CURVE SMOOTH"
);
},
{
closed = 1;
nodes = (
"123 510 OFFCURVE",
"27 406 OFFCURVE",
"27 250 CURVE SMOOTH",
"27 94 OFFCURVE",
"123 -10 OFFCURVE",
"245 -10 CURVE SMOOTH",
"368 -10 OFFCURVE",
"466 94 OFFCURVE",
"466 250 CURVE SMOOTH",
"466 406 OFFCURVE",
"368 510 OFFCURVE",
"245 510 CURVE SMOOTH"
);
},
{
closed = 1;
nodes = (
"290 89 OFFCURVE",
"212 3 OFFCURVE",
"165 19 CURVE SMOOTH",
"115 37 OFFCURVE",
"113 149 OFFCURVE",
"160 279 CURVE SMOOTH",
"206 406 OFFCURVE",
"279 495 OFFCURVE",
"329 479 CURVE SMOOTH",
"375 464 OFFCURVE",
"378 349 OFFCURVE",
"334 219 CURVE SMOOTH"
);
}
);
width = 493;
}
);
leftKerningGroup = o_left;
rightKerningGroup = o_right;
unicode = 043E;
},
{
glyphname = uni043F;
layers = (
{
layerId = "f35759b4-f9e3-4796-9f66-20855be2e20d";
paths = (
{
closed = 1;
nodes = (
"146 0 LINE",
"112 0 LINE",
"112 11 LINE",
"146 11 LINE"
);
},
{
closed = 1;
nodes = (
"143 0 LINE",
"153 251 OFFCURVE",
"245 488 OFFCURVE",
"318 510 CURVE",
"440 510 OFFCURVE",
"539 405 OFFCURVE",
"539 250 CURVE SMOOTH",
"539 158 OFFCURVE",
"492 0 OFFCURVE",
"492 0 CURVE",
"319 0 LINE",
"319 0 OFFCURVE",
"364 99 OFFCURVE",
"405 219 CURVE SMOOTH",
"449 345 OFFCURVE",
"460 455 OFFCURVE",
"407 476 CURVE SMOOTH",
"336 504 OFFCURVE",
"181 358 OFFCURVE",
"154 0 CURVE"
);
},
{
closed = 1;
nodes = (
"73 0 LINE",
"47 500 LINE",
"207 500 LINE",
"198 482 OFFCURVE",
"132 324 OFFCURVE",
"132 0 CURVE"
);
}
);
width = 571;
}
);
leftKerningGroup = n_left;
rightKerningGroup = n_right;
unicode = 043F;
},
{
glyphname = uni0440;
layers = (
{
layerId = "f35759b4-f9e3-4796-9f66-20855be2e20d";
paths = (
{
closed = 1;
nodes = (
"85 -285 LINE",
"85 103 OFFCURVE",
"107 318 OFFCURVE",
"183 500 CURVE",
"23 500 LINE",
"63 -285 LINE"
);
},
{
closed = 1;
nodes = (
"160 330 OFFCURVE",
"311 504 OFFCURVE",
"380 477 CURVE",
"435 455 OFFCURVE",
"423 350 OFFCURVE",
"379 220 CURVE",
"334 91 OFFCURVE",
"263 7 OFFCURVE",
"212 22 CURVE SMOOTH",
"178 32 OFFCURVE",
"147 63 OFFCURVE",
"131 90 CURVE",
"126 73 LINE",
"178 9 OFFCURVE",
"239 -10 OFFCURVE",
"292 -10 CURVE SMOOTH",
"414 -10 OFFCURVE",
"512 95 OFFCURVE",
"512 251 CURVE SMOOTH",
"512 405 OFFCURVE",
"414 510 OFFCURVE",
"292 510 CURVE",
"218 488 OFFCURVE",
"96 170 OFFCURVE",
"96 -285 CURVE",
"190 -285 LINE",
"190 -285 OFFCURVE",
"122 -118 OFFCURVE",
"137 62 CURVE SMOOTH"
);
},
{
closed = 1;
nodes = (
"75 -273 LINE",
"75 -285 LINE",
"111 -285 LINE",
"111 -273 LINE"
);
}
);
width = 539;
}
);
rightKerningGroup = o_right;
unicode = 0440;
},
{
glyphname = uni0441;
layers = (
{
layerId = "f35759b4-f9e3-4796-9f66-20855be2e20d";
paths = (
{
closed = 1;
nodes = (
"205 411 OFFCURVE",
"274 501 OFFCURVE",
"327 481 CURVE SMOOTH",
"380 460 OFFCURVE",
"365 346 OFFCURVE",
"303 308 CURVE",
"462 308 LINE",
"441 431 OFFCURVE",
"353 510 OFFCURVE",
"247 510 CURVE SMOOTH",
"124 510 OFFCURVE",
"27 408 OFFCURVE",
"27 250 CURVE SMOOTH",
"27 92 OFFCURVE",
"124 -10 OFFCURVE",
"247 -10 CURVE SMOOTH",
"366 -10 OFFCURVE",
"467 89 OFFCURVE",
"467 263 CURVE",
"303 263 LINE",
"363 83 OFFCURVE",
"239 -9 OFFCURVE",
"172 17 CURVE SMOOTH",
"113 39 OFFCURVE",
"111 150 OFFCURVE",
"168 308 CURVE SMOOTH"
);
}
);
width = 494;
}
);
leftKerningGroup = o_left;
rightKerningGroup = o_right;
unicode = 0441;
},
{
glyphname = uni0442;
layers = (
{
layerId = "f35759b4-f9e3-4796-9f66-20855be2e20d";
paths = (
{
closed = 1;
nodes = (
"362 0 LINE",
"362 0 OFFCURVE",
"361 40 OFFCURVE",
"354 155 CURVE SMOOTH",
"341 394 OFFCURVE",
"258 516 OFFCURVE",
"87 516 CURVE SMOOTH",
"-40 516 OFFCURVE",
"-42 355 OFFCURVE",
"142 348 CURVE SMOOTH",
"245 344 OFFCURVE",
"317 448 OFFCURVE",
"574 356 CURVE",
"569 494 LINE",
"569 494 OFFCURVE",
"479 517 OFFCURVE",
"400 509 CURVE",
"283 394 OFFCURVE",
"214 360 OFFCURVE",
"139 360 CURVE SMOOTH",
"60 360 OFFCURVE",
"111 501 OFFCURVE",
"192 479 CURVE SMOOTH",
"325 444 OFFCURVE",
"277 202 OFFCURVE",
"203 0 CURVE"
);
}
);
width = 574;
}
);
unicode = 0442;
},
{
glyphname = uni0443;
layers = (
{
layerId = "f35759b4-f9e3-4796-9f66-20855be2e20d";
paths = (
{
closed = 1;
nodes = (
"403 500 LINE",
"403 102 OFFCURVE",
"321 -102 OFFCURVE",
"321 -102 CURVE",
"232 -5 OFFCURVE",
"24 18 OFFCURVE",
"24 -133 CURVE SMOOTH",
"24 -246 OFFCURVE",
"227 -322 OFFCURVE",
"335 -322 CURVE",
"416 -290 OFFCURVE",
"495 -116 OFFCURVE",
"462 500 CURVE"
);
},
{
closed = 1;
nodes = (
"91 -225 OFFCURVE",
"142 -1 OFFCURVE",
"265 -73 CURVE SMOOTH",
"301 -95 OFFCURVE",
"316 -117 OFFCURVE",
"316 -117 CURVE",
"275 -234 OFFCURVE",
"205 -292 OFFCURVE",
"161 -266 CURVE SMOOTH"
);
},
{
closed = 1;
nodes = (
"388 492 LINE",
"388 492 LINE",
"388 492 LINE",
"388 492 LINE"
);
},
{
closed = 1;
nodes = (
"380 500 LINE",
"353 142 OFFCURVE",
"218 -4 OFFCURVE",
"147 24 CURVE SMOOTH",
"94 45 OFFCURVE",
"105 155 OFFCURVE",
"149 281 CURVE SMOOTH",
"191 401 OFFCURVE",
"235 500 OFFCURVE",
"235 500 CURVE",
"62 500 LINE",
"62 500 OFFCURVE",
"16 342 OFFCURVE",
"16 250 CURVE SMOOTH",
"16 95 OFFCURVE",
"114 -10 OFFCURVE",
"236 -10 CURVE",
"310 12 OFFCURVE",
"382 249 OFFCURVE",
"392 500 CURVE"
);
},
{
closed = 1;
nodes = (
"425 488 LINE",
"425 500 LINE",
"388 500 LINE",
"388 488 LINE"
);
}
);
width = 494;
}
);
unicode = 0443;
},
{
glyphname = uni0444;
layers = (
{
layerId = "f35759b4-f9e3-4796-9f66-20855be2e20d";
paths = (
{
closed = 1;
nodes = (
"530 491 OFFCURVE",
"406 263 OFFCURVE",
"406 -271 CURVE",
"394 -271 LINE",
"386 130 OFFCURVE",
"455 368 OFFCURVE",
"579 685 CURVE",
"433 685 LINE",
"433 685 OFFCURVE",
"433 563 OFFCURVE",
"413 445 CURVE",
"365 494 OFFCURVE",
"300 513 OFFCURVE",
"249 513 CURVE SMOOTH",
"127 513 OFFCURVE",
"28 408 OFFCURVE",
"28 253 CURVE SMOOTH",
"28 97 OFFCURVE",
"127 -7 OFFCURVE",
"249 -7 CURVE",
"322 14 OFFCURVE",
"444 350 OFFCURVE",
"445 673 CURVE",
"457 673 LINE",
"449 308 OFFCURVE",
"367 221 OFFCURVE",
"383 -283 CURVE",
"525 -283 LINE",
"525 -283 OFFCURVE",
"423 -115 OFFCURVE",
"437 64 CURVE",
"484 14 OFFCURVE",
"566 -7 OFFCURVE",
"617 -7 CURVE SMOOTH",
"704 -7 OFFCURVE",
"838 97 OFFCURVE",
"838 253 CURVE SMOOTH",
"838 408 OFFCURVE",
"726 513 OFFCURVE",
"604 513 CURVE"
);
},
{
closed = 1;
nodes = (
"107 48 OFFCURVE",
"117 153 OFFCURVE",
"162 283 CURVE SMOOTH",
"207 413 OFFCURVE",
"276 496 OFFCURVE",
"331 482 CURVE SMOOTH",
"345 479 OFFCURVE",
"368 473 OFFCURVE",
"410 431 CURVE",
"365 143 OFFCURVE",
"231 -1 OFFCURVE",
"164 26 CURVE SMOOTH"
);
},
{
closed = 1;
nodes = (
"646 93 OFFCURVE",
"581 11 OFFCURVE",
"526 25 CURVE SMOOTH",
"511 29 OFFCURVE",
"482 35 OFFCURVE",
"439 78 CURVE",
"466 338 OFFCURVE",
"623 509 OFFCURVE",
"690 482 CURVE SMOOTH",
"746 460 OFFCURVE",
"735 352 OFFCURVE",
"691 223 CURVE SMOOTH"
);
}
);
width = 868;
}
);
leftKerningGroup = o_left;
rightKerningGroup = o_right;
unicode = 0444;
},
{
glyphname = uni0445;
layers = (
{
layerId = "f35759b4-f9e3-4796-9f66-20855be2e20d";
paths = (
{
closed = 1;
nodes = (
"339 500 LINE",
"300 252 LINE",
"293 252 LINE",
"199 366 OFFCURVE",
"193 462 OFFCURVE",
"193 500 CURVE",
"12 500 LINE",
"215 266 LINE",
"178 90 OFFCURVE",
"6 0 OFFCURVE",
"6 0 CURVE",
"184 0 LINE",
"224 247 LINE",
"230 247 LINE",
"324 134 OFFCURVE",
"331 38 OFFCURVE",
"331 0 CURVE",
"511 0 LINE",
"309 234 LINE",
"345 410 OFFCURVE",
"517 500 OFFCURVE",
"517 500 CURVE"
);
}
);
width = 519;
}
);
unicode = 0445;
},
{
glyphname = uni0446;
layers = (
{
layerId = "f35759b4-f9e3-4796-9f66-20855be2e20d";
paths = (
{
closed = 1;
nodes = (
"444 1 OFFCURVE",
"641 9 OFFCURVE",
"643 42 CURVE SMOOTH",
"645 69 OFFCURVE",
"550 79 OFFCURVE",
"480 64 CURVE",
"458 500 LINE",
"378 500 LINE",
"351 139 OFFCURVE",
"201 -7 OFFCURVE",
"132 21 CURVE SMOOTH",
"76 43 OFFCURVE",
"85 150 OFFCURVE",
"129 280 CURVE SMOOTH",
"171 401 OFFCURVE",
"213 500 OFFCURVE",
"213 500 CURVE",
"42 500 LINE",
"42 500 OFFCURVE",
"-4 341 OFFCURVE",
"-4 250 CURVE SMOOTH",
"-4 94 OFFCURVE",
"95 -11 OFFCURVE",
"216 -11 CURVE",
"290 11 OFFCURVE",
"377 238 OFFCURVE",
"388 489 CURVE",
"398 489 LINE",
"398 301 OFFCURVE",
"369 147 OFFCURVE",
"347 66 CURVE SMOOTH",
"327 -8 OFFCURVE",
"438 47 OFFCURVE",
"493 55 CURVE SMOOTH",
"577 68 OFFCURVE",
"330 -146 OFFCURVE",
"391 -264 CURVE SMOOTH",
"442 -363 OFFCURVE",
"642 -243 OFFCURVE",
"642 -65 CURVE",
"507 -65 LINE",
"665 -370 OFFCURVE",
"444 -215 OFFCURVE",
"444 -114 CURVE SMOOTH"
);
}
);
width = 627;
}
);
leftKerningGroup = u_left;
unicode = 0446;
},
{
glyphname = uni0447;
layers = (
{
layerId = "f35759b4-f9e3-4796-9f66-20855be2e20d";
paths = (
{
closed = 1;
nodes = (
"334 500 LINE",
"317 271 OFFCURVE",
"211 184 OFFCURVE",
"150 203 CURVE",
"94 222 OFFCURVE",
"85 333 OFFCURVE",
"174 500 CURVE",
"5 500 LINE",
"-4 463 OFFCURVE",
"-12 422 OFFCURVE",
"-12 390 CURVE SMOOTH",
"-12 263 OFFCURVE",
"113 177 OFFCURVE",
"234 177 CURVE",
"304 212 OFFCURVE",
"336 348 OFFCURVE",
"346 500 CURVE"
);
},
{
closed = 1;
nodes = (
"415 500 LINE",
"356 500 LINE",
"356 176 OFFCURVE",
"291 18 OFFCURVE",
"282 0 CURVE",
"442 0 LINE"
);
},
{
closed = 1;
nodes = (
"376 488 LINE",
"376 500 LINE",
"340 500 LINE",
"340 488 LINE"
);
}
);
width = 487;
}
);
rightKerningGroup = u_right;
unicode = 0447;
},
{
glyphname = uni0448;
layers = (
{
layerId = "f35759b4-f9e3-4796-9f66-20855be2e20d";
paths = (
{
closed = 1;
nodes = (
"845 500 LINE",
"873 0 LINE",
"712 0 LINE",
"721 17 OFFCURVE",
"786 175 OFFCURVE",
"786 500 CURVE"
);
},
{
closed = 1;
nodes = (
"434 500 LINE",
"423 249 OFFCURVE",
"332 12 OFFCURVE",
"258 -11 CURVE",
"136 -11 OFFCURVE",
"37 94 OFFCURVE",
"37 250 CURVE SMOOTH",
"37 342 OFFCURVE",
"84 500 OFFCURVE",
"84 500 CURVE",
"257 500 LINE",
"257 500 OFFCURVE",
"213 401 OFFCURVE",
"171 280 CURVE",
"127 154 OFFCURVE",
"116 45 OFFCURVE",
"169 24 CURVE SMOOTH",
"240 -4 OFFCURVE",
"395 142 OFFCURVE",
"422 500 CURVE"
);
},
{
closed = 1;
nodes = (
"579 500 LINE",
"579 500 OFFCURVE",
"579 401 OFFCURVE",
"538 280 CURVE SMOOTH",
"494 151 OFFCURVE",
"456 47 OFFCURVE",
"512 25 CURVE SMOOTH",
"580 -2 OFFCURVE",
"738 139 OFFCURVE",
"764 500 CURVE",
"776 500 LINE",
"765 249 OFFCURVE",
"677 12 OFFCURVE",
"603 -10 CURVE",
"512 -10 OFFCURVE",
"435 47 OFFCURVE",
"401 140 CURVE",
"423 222 OFFCURVE",
"444 348 OFFCURVE",
"444 500 CURVE"
);
},
{
closed = 1;
nodes = (
"769 500 LINE",
"805 500 LINE",
"805 487 LINE",
"769 487 LINE"
);
},
{
closed = 1;
nodes = (
"422 500 LINE",
"458 500 LINE",
"458 487 LINE",
"422 487 LINE"
);
}
);
width = 918;
}
);
leftKerningGroup = u_left;
rightKerningGroup = u_right;
unicode = 0448;
},
{
glyphname = uni0449;
layers = (
{
layerId = "f35759b4-f9e3-4796-9f66-20855be2e20d";
paths = (
{
closed = 1;
nodes = (
"787 500 LINE",
"787 312 OFFCURVE",
"758 148 OFFCURVE",
"737 67 CURVE SMOOTH",
"717 -7 OFFCURVE",
"828 47 OFFCURVE",
"884 55 CURVE SMOOTH",
"968 68 OFFCURVE",
"720 -145 OFFCURVE",
"781 -263 CURVE SMOOTH",
"831 -362 OFFCURVE",
"1031 -242 OFFCURVE",
"1031 -64 CURVE",
"897 -64 LINE",
"1054 -369 OFFCURVE",
"836 -214 OFFCURVE",
"836 -113 CURVE SMOOTH",
"836 2 OFFCURVE",
"1031 10 OFFCURVE",
"1033 43 CURVE SMOOTH",
"1034 70 OFFCURVE",
"938 80 OFFCURVE",
"869 65 CURVE",
"847 500 LINE"
);
},
{
closed = 1;
nodes = (
"422 500 LINE",
"395 142 OFFCURVE",
"240 -4 OFFCURVE",
"169 24 CURVE SMOOTH",
"116 45 OFFCURVE",
"127 154 OFFCURVE",
"171 280 CURVE",
"213 401 OFFCURVE",
"257 500 OFFCURVE",
"257 500 CURVE",
"84 500 LINE",
"84 500 OFFCURVE",
"37 342 OFFCURVE",
"37 250 CURVE SMOOTH",
"37 94 OFFCURVE",
"136 -11 OFFCURVE",
"258 -11 CURVE",
"332 12 OFFCURVE",
"423 249 OFFCURVE",
"434 500 CURVE"
);
},
{
closed = 1;
nodes = (
"444 500 LINE",
"444 348 OFFCURVE",
"423 222 OFFCURVE",
"401 140 CURVE",
"435 47 OFFCURVE",
"512 -10 OFFCURVE",
"603 -10 CURVE",
"677 12 OFFCURVE",
"765 249 OFFCURVE",
"776 500 CURVE",
"764 500 LINE",
"738 139 OFFCURVE",
"580 -2 OFFCURVE",
"512 25 CURVE SMOOTH",
"456 47 OFFCURVE",
"494 151 OFFCURVE",
"538 280 CURVE SMOOTH",
"579 401 OFFCURVE",
"579 500 OFFCURVE",
"579 500 CURVE"
);
},
{
closed = 1;
nodes = (
"769 487 LINE",
"805 487 LINE",
"805 500 LINE",
"769 500 LINE"
);
},
{
closed = 1;
nodes = (
"422 487 LINE",
"458 487 LINE",
"458 500 LINE",
"422 500 LINE"
);
}
);
width = 993;
}
);
leftKerningGroup = u_left;
unicode = 0449;
},
{
glyphname = uni044A;
layers = (
{
layerId = "f35759b4-f9e3-4796-9f66-20855be2e20d";
paths = (
{
closed = 1;
nodes = (
"227 -12 OFFCURVE",
"165 99 OFFCURVE",
"150 248 CURVE SMOOTH",
"137 376 OFFCURVE",
"164 467 OFFCURVE",
"192 510 CURVE",
"414 531 OFFCURVE",
"489 468 OFFCURVE",
"463 422 CURVE SMOOTH",
"436 375 OFFCURVE",
"312 396 OFFCURVE",
"215 439 CURVE SMOOTH",
"94 493 OFFCURVE",
"34 316 OFFCURVE",
"34 316 CURVE",
"34 316 OFFCURVE",
"-20 462 OFFCURVE",
"34 500 CURVE SMOOTH",
"68 524 OFFCURVE",
"112 503 OFFCURVE",
"195 457 CURVE SMOOTH",
"288 405 OFFCURVE",
"345 425 OFFCURVE",
"374 449 CURVE SMOOTH",
"393 465 OFFCURVE",
"389 490 OFFCURVE",
"366 497 CURVE SMOOTH",
"311 512 OFFCURVE",
"266 398 OFFCURVE",
"244 273 CURVE SMOOTH",
"222 147 OFFCURVE",
"227 46 OFFCURVE",
"265 24 CURVE SMOOTH",
"353 -28 OFFCURVE",
"536 289 OFFCURVE",
"466 327 CURVE SMOOTH",
"405 360 OFFCURVE",
"274 145 OFFCURVE",
"274 145 CURVE",
"268 319 LINE",
"268 319 OFFCURVE",
"330 353 OFFCURVE",
"399 353 CURVE SMOOTH",
"484 353 OFFCURVE",
"560 293 OFFCURVE",
"560 187 CURVE SMOOTH",
"560 91 OFFCURVE",
"473 -12 OFFCURVE",
"349 -12 CURVE SMOOTH"
);
}
);
width = 582;
}
);
unicode = 044A;
},
{
glyphname = uni044B;
layers = (
{
layerId = "f35759b4-f9e3-4796-9f66-20855be2e20d";
paths = (
{
closed = 1;
nodes = (
"341 -93 OFFCURVE",
"498 -13 OFFCURVE",
"507 168 CURVE SMOOTH",
"516 348 OFFCURVE",
"384 416 OFFCURVE",
"275 416 CURVE",
"204 396 OFFCURVE",
"144 226 OFFCURVE",
"133 0 CURVE",
"144 0 LINE",
"170 326 OFFCURVE",
"302 413 OFFCURVE",
"357 391 CURVE SMOOTH",
"403 372 OFFCURVE",
"419 279 OFFCURVE",
"386 148 CURVE",
"348 -9 OFFCURVE",
"276 -63 OFFCURVE",
"236 -20 CURVE SMOOTH",
"193 28 OFFCURVE",
"211 204 OFFCURVE",
"334 360 CURVE SMOOTH",
"435 488 OFFCURVE",
"476 360 OFFCURVE",
"529 360 CURVE SMOOTH",
"564 360 OFFCURVE",
"588 424 OFFCURVE",
"592 500 CURVE",
"580 500 LINE",
"575 449 OFFCURVE",
"552 452 OFFCURVE",
"529 466 CURVE SMOOTH",
"333 582 OFFCURVE",
"105 35 OFFCURVE",
"245 -41 CURVE SMOOTH"
);
},
{
closed = 1;
nodes = (
"660 500 LINE",
"601 500 LINE",
"601 176 OFFCURVE",
"536 18 OFFCURVE",
"527 0 CURVE",
"687 0 LINE"
);
},
{
closed = 1;
nodes = (
"64 0 LINE",
"123 0 LINE",
"123 324 OFFCURVE",
"188 482 OFFCURVE",
"197 500 CURVE",
"37 500 LINE"
);
},
{
closed = 1;
nodes = (
"143 0 LINE",
"143 12 LINE",
"107 12 LINE",
"107 0 LINE"
);
},
{
closed = 1;
nodes = (
"621 488 LINE",
"621 500 LINE",
"585 500 LINE",
"585 488 LINE"
);
}
);
width = 710;
}
);
leftKerningGroup = n_left;
rightKerningGroup = u_right;
unicode = 044B;
},
{
glyphname = uni044C;
layers = (
{
layerId = "f35759b4-f9e3-4796-9f66-20855be2e20d";
paths = (
{
closed = 1;
nodes = (
"137 -10 OFFCURVE",
"88 98 OFFCURVE",
"60 251 CURVE SMOOTH",
"43 349 OFFCURVE",
"40 500 OFFCURVE",
"40 500 CURVE SMOOTH",
"200 500 LINE",
"200 500 OFFCURVE",
"178 422 OFFCURVE",
"149 281 CURVE SMOOTH",
"122 147 OFFCURVE",
"136 50 OFFCURVE",
"174 28 CURVE SMOOTH",
"262 -24 OFFCURVE",
"446 292 OFFCURVE",
"376 330 CURVE SMOOTH",
"315 364 OFFCURVE",
"184 148 OFFCURVE",
"184 148 CURVE",
"178 322 LINE",
"178 322 OFFCURVE",
"239 356 OFFCURVE",
"309 356 CURVE SMOOTH",
"394 356 OFFCURVE",
"470 296 OFFCURVE",
"470 189 CURVE SMOOTH",
"470 83 OFFCURVE",
"378 -10 OFFCURVE",
"259 -10 CURVE SMOOTH"
);
}
);
width = 508;
}
);
leftKerningGroup = n_left;
unicode = 044C;
},
{
glyphname = uni044D;
layers = (
{
layerId = "f35759b4-f9e3-4796-9f66-20855be2e20d";
paths = (
{
closed = 1;
nodes = (
"135 510 OFFCURVE",
"58 471 OFFCURVE",
"58 471 CURVE",
"58 325 LINE",
"58 325 OFFCURVE",
"237 518 OFFCURVE",
"317 482 CURVE SMOOTH",
"383 453 OFFCURVE",
"371 331 OFFCURVE",
"321 201 CURVE SMOOTH",
"271 73 OFFCURVE",
"198 -1 OFFCURVE",
"149 24 CURVE SMOOTH",
"100 49 OFFCURVE",
"129 177 OFFCURVE",
"180 263 CURVE",
"31 263 LINE",
"2 116 OFFCURVE",
"108 -10 OFFCURVE",
"239 -10 CURVE SMOOTH",
"360 -10 OFFCURVE",
"459 94 OFFCURVE",
"459 250 CURVE",
"460 405 OFFCURVE",
"361 510 OFFCURVE",
"239 510 CURVE SMOOTH"
);
},
{
closed = 1;
nodes = (
"139 291 OFFCURVE",
"207 273 OFFCURVE",
"263 321 CURVE SMOOTH",
"322 372 OFFCURVE",
"361 304 OFFCURVE",
"323 206 CURVE",
"323 206 OFFCURVE",
"356 229 OFFCURVE",
"356 296 CURVE SMOOTH",
"356 301 OFFCURVE",
"355 306 OFFCURVE",
"354 311 CURVE",
"345 311 LINE",
"345 311 OFFCURVE",
"326 417 OFFCURVE",
"236 417 CURVE",
"219 383 OFFCURVE",
"199 339 OFFCURVE",
"139 339 CURVE"
);
}
);
width = 486;
}
);
leftKerningGroup = o_left;
rightKerningGroup = o_right;
unicode = 044D;
},
{
glyphname = uni044E;
layers = (
{
layerId = "f35759b4-f9e3-4796-9f66-20855be2e20d";
paths = (
{
closed = 1;
nodes = (
"143 0 LINE",
"155 199 OFFCURVE",
"204 332 OFFCURVE",
"249 297 CURVE SMOOTH",
"281 272 OFFCURVE",
"301 220 OFFCURVE",
"350 202 CURVE SMOOTH",
"458 162 OFFCURVE",
"531 346 OFFCURVE",
"603 500 CURVE",
"710 480 OFFCURVE",
"778 375 OFFCURVE",
"778 250 CURVE SMOOTH",
"778 95 OFFCURVE",
"676 -10 OFFCURVE",
"547 -10 CURVE SMOOTH",
"419 -10 OFFCURVE",
"337 95 OFFCURVE",
"337 250 CURVE SMOOTH",
"337 342 OFFCURVE",
"395 500 OFFCURVE",
"395 500 CURVE",
"549 500 LINE",
"549 500 OFFCURVE",
"497 401 OFFCURVE",
"457 280 CURVE SMOOTH",
"414 149 OFFCURVE",
"420 37 OFFCURVE",
"473 16 CURVE SMOOTH",
"565 -19 OFFCURVE",
"721 307 OFFCURVE",
"721 389 CURVE SMOOTH",
"721 458 OFFCURVE",
"665 406 OFFCURVE",
"593 329 CURVE SMOOTH",
"516 246 OFFCURVE",
"425 162 OFFCURVE",
"335 197 CURVE SMOOTH",
"276 219 OFFCURVE",
"169 251 OFFCURVE",
"155 0 CURVE"
);
},
{
closed = 1;
nodes = (
"148 0 LINE",
"112 0 LINE",
"112 12 LINE",
"148 12 LINE"
);
},
{
closed = 1;
nodes = (
"74 0 LINE",
"47 500 LINE",
"207 500 LINE",
"198 482 OFFCURVE",
"133 324 OFFCURVE",
"133 0 CURVE"
);
}
);
width = 805;
}
);
leftKerningGroup = n_left;
rightKerningGroup = o_right;
unicode = 044E;
},
{
glyphname = uni044F;
layers = (
{
layerId = "f35759b4-f9e3-4796-9f66-20855be2e20d";
paths = (
{
closed = 1;
nodes = (
"140 260 OFFCURVE",
"118 225 OFFCURVE",
"95 236 CURVE SMOOTH",
"39 264 OFFCURVE",
"164 541 OFFCURVE",
"254 478 CURVE SMOOTH",
"378 391 OFFCURVE",
"203 -7 OFFCURVE",
"135 11 CURVE SMOOTH",
"99 20 OFFCURVE",
"112 91 OFFCURVE",
"140 161 CURVE",
"16 161 LINE",
"16 40 OFFCURVE",
"113 -10 OFFCURVE",
"196 -10 CURVE",
"288 38 OFFCURVE",
"427 510 OFFCURVE",
"183 510 CURVE SMOOTH",
"95 510 OFFCURVE",
"24 461 OFFCURVE",
"15 360 CURVE",
"9 277 OFFCURVE",
"72 208 OFFCURVE",
"159 208 CURVE",
"159 208 OFFCURVE",
"188 260 OFFCURVE",
"241 319 CURVE SMOOTH",
"399 491 OFFCURVE",
"383 204 OFFCURVE",
"309 0 CURVE",
"467 0 LINE",
"455 239 LINE",
"446 391 OFFCURVE",
"333 428 OFFCURVE",
"227 336 CURVE SMOOTH"
);
}
);
width = 482;
}
);
rightKerningGroup = u_right;
unicode = 044F;
},
{
glyphname = uni0451;
layers = (
{
layerId = "f35759b4-f9e3-4796-9f66-20855be2e20d";
paths = (
{
closed = 1;
nodes = (
"134 308 LINE",
"463 308 LINE",
"442 431 OFFCURVE",
"353 510 OFFCURVE",
"247 510 CURVE SMOOTH",
"123 510 OFFCURVE",
"27 407 OFFCURVE",
"27 250 CURVE SMOOTH",
"27 93 OFFCURVE",
"123 -10 OFFCURVE",
"246 -10 CURVE SMOOTH",
"366 -10 OFFCURVE",
"467 88 OFFCURVE",
"467 263 CURVE",
"303 263 LINE",
"364 78 OFFCURVE",
"238 -9 OFFCURVE",
"172 16 CURVE SMOOTH",
"112 39 OFFCURVE",
"112 151 OFFCURVE",
"169 308 CURVE SMOOTH",
"210 420 OFFCURVE",
"280 499 OFFCURVE",
"328 480 CURVE SMOOTH",
"383 459 OFFCURVE",
"375 321 OFFCURVE",
"244 321 CURVE SMOOTH",
"134 321 LINE"
);
},
{
closed = 1;
nodes = (
"121 701 OFFCURVE",
"94 672 OFFCURVE",
"94 630 CURVE SMOOTH",
"94 587 OFFCURVE",
"121 559 OFFCURVE",
"154 559 CURVE SMOOTH",
"187 559 OFFCURVE",
"214 587 OFFCURVE",
"214 630 CURVE SMOOTH",
"214 672 OFFCURVE",
"187 701 OFFCURVE",
"154 701 CURVE SMOOTH"
);
},
{
closed = 1;
nodes = (
"323 701 OFFCURVE",
"295 672 OFFCURVE",
"295 630 CURVE SMOOTH",
"295 587 OFFCURVE",
"323 559 OFFCURVE",
"356 559 CURVE SMOOTH",
"389 559 OFFCURVE",
"416 587 OFFCURVE",
"416 630 CURVE SMOOTH",
"416 672 OFFCURVE",
"389 701 OFFCURVE",
"356 701 CURVE SMOOTH"
);
}
);
width = 494;
}
);
leftKerningGroup = o_left;
rightKerningGroup = o_right;
unicode = 0451;
},
{
glyphname = breve;
layers = (
{
layerId = "f35759b4-f9e3-4796-9f66-20855be2e20d";
paths = (
{
closed = 1;
nodes = (
"183 537 OFFCURVE",
"247 615 OFFCURVE",
"214 722 CURVE",
"340 685 LINE",
"340 685 OFFCURVE",
"316 549 OFFCURVE",
"196 549 CURVE SMOOTH",
"76 549 OFFCURVE",
"38 663 OFFCURVE",
"53 685 CURVE SMOOTH",
"73 715 OFFCURVE",
"173 685 OFFCURVE",
"173 685 CURVE",
"134 655 OFFCURVE",
"118 596 OFFCURVE",
"142 574 CURVE SMOOTH"
);
}
);
width = 357;
}
);
unicode = 02D8;
},
{
glyphname = dieresis;
layers = (
{
layerId = "f35759b4-f9e3-4796-9f66-20855be2e20d";
paths = (
{
closed = 1;
nodes = (
"91 701 OFFCURVE",
"64 672 OFFCURVE",
"64 630 CURVE SMOOTH",
"64 587 OFFCURVE",
"91 559 OFFCURVE",
"124 559 CURVE SMOOTH",
"157 559 OFFCURVE",
"184 587 OFFCURVE",
"184 630 CURVE SMOOTH",
"184 672 OFFCURVE",
"157 701 OFFCURVE",
"124 701 CURVE SMOOTH"
);
},
{
closed = 1;
nodes = (
"293 701 OFFCURVE",
"266 672 OFFCURVE",
"266 630 CURVE SMOOTH",
"266 587 OFFCURVE",
"293 559 OFFCURVE",
"326 559 CURVE SMOOTH",
"359 559 OFFCURVE",
"386 587 OFFCURVE",
"386 630 CURVE SMOOTH",
"386 672 OFFCURVE",
"359 701 OFFCURVE",
"326 701 CURVE SMOOTH"
);
}
);
width = 527;
}
);
unicode = 00A8;
},
{
glyphname = comma;
layers = (
{
layerId = "f35759b4-f9e3-4796-9f66-20855be2e20d";
paths = (
{
closed = 1;
nodes = (
"121 114 OFFCURVE",
"92 141 OFFCURVE",
"57 141 CURVE SMOOTH",
"22 141 OFFCURVE",
"-7 111 OFFCURVE",
"-7 66 CURVE SMOOTH",
"-7 21 OFFCURVE",
"22 -10 OFFCURVE",
"57 -10 CURVE SMOOTH",
"85 -10 OFFCURVE",
"111 -13 OFFCURVE",
"42 -127 CURVE",
"56 -127 LINE",
"109 -46 OFFCURVE",
"121 25 OFFCURVE",
"121 66 CURVE SMOOTH"
);
}
);
width = 130;
}
);
leftKerningGroup = comma;
rightKerningGroup = comma1;
unicode = 002C;
},
{
glyphname = period;
layers = (
{
layerId = "f35759b4-f9e3-4796-9f66-20855be2e20d";
paths = (
{
closed = 1;
nodes = (
"29 114 OFFCURVE",
"0 84 OFFCURVE",
"0 39 CURVE SMOOTH",
"0 -6 OFFCURVE",
"29 -37 OFFCURVE",
"64 -37 CURVE SMOOTH",
"99 -37 OFFCURVE",
"128 -6 OFFCURVE",
"128 39 CURVE SMOOTH",
"128 84 OFFCURVE",
"99 114 OFFCURVE",
"64 114 CURVE SMOOTH"
);
}
);
width = 168;
}
);
leftKerningGroup = period;
rightKerningGroup = period1;
unicode = 002E;
},
{
glyphname = emdash;
layers = (
{
layerId = "f35759b4-f9e3-4796-9f66-20855be2e20d";
paths = (
{
closed = 1;
nodes = (
"771 245 LINE",
"36 245 LINE",
"33 271 LINE",
"769 271 LINE"
);
}
);
width = 804;
}
);
leftKerningGroup = minus;
rightKerningGroup = minus1;
unicode = 2014;
},
{
glyphname = exclam;
layers = (
{
layerId = "f35759b4-f9e3-4796-9f66-20855be2e20d";
paths = (
{
closed = 1;
nodes = (
"41 201 LINE",
"12 705 LINE",
"157 705 LINE",
"157 705 OFFCURVE",
"110 434 OFFCURVE",
"110 201 CURVE"
);
},
{
closed = 1;
nodes = (
"120 141 OFFCURVE",
"149 111 OFFCURVE",
"149 66 CURVE SMOOTH",
"149 21 OFFCURVE",
"120 -10 OFFCURVE",
"85 -10 CURVE SMOOTH",
"49 -10 OFFCURVE",
"21 21 OFFCURVE",
"21 66 CURVE SMOOTH",
"21 111 OFFCURVE",
"49 141 OFFCURVE",
"85 141 CURVE SMOOTH"
);
}
);
width = 157;
}
);
unicode = 0021;
},
{
glyphname = zero;
layers = (
{
layerId = "f35759b4-f9e3-4796-9f66-20855be2e20d";
paths = (
{
closed = 1;
nodes = (
"119 710 OFFCURVE",
"26 544 OFFCURVE",
"26 351 CURVE SMOOTH",
"26 157 OFFCURVE",
"117 -10 OFFCURVE",
"286 -10 CURVE",
"454 -11 OFFCURVE",
"546 155 OFFCURVE",
"546 349 CURVE",
"547 543 OFFCURVE",
"455 710 OFFCURVE",
"287 710 CURVE SMOOTH"
);
},
{
closed = 1;
nodes = (
"338 120 OFFCURVE",
"271 -1 OFFCURVE",
"185 29 CURVE SMOOTH",
"99 59 OFFCURVE",
"121 258 OFFCURVE",
"178 418 CURVE SMOOTH",
"235 579 OFFCURVE",
"301 701 OFFCURVE",
"388 671 CURVE SMOOTH",
"474 641 OFFCURVE",
"451 440 OFFCURVE",
"395 281 CURVE SMOOTH"
);
}
);
width = 572;
}
);
unicode = 0030;
},
{
glyphname = one;
layers = (
{
layerId = "f35759b4-f9e3-4796-9f66-20855be2e20d";
paths = (
{
closed = 1;
nodes = (
"149 0 LINE",
"149 0 OFFCURVE",
"203 376 OFFCURVE",
"203 700 CURVE",
"280 700 LINE",
"312 0 LINE"
);
},
{
closed = 1;
nodes = (
"191 700 LINE",
"191 577 OFFCURVE",
"114 565 OFFCURVE",
"67 388 CURVE",
"-1 489 LINE",
"-83 606 OFFCURVE",
"178 597 OFFCURVE",
"178 700 CURVE"
);
},
{
closed = 1;
nodes = (
"216 688 LINE",
"180 688 LINE",
"180 700 LINE",
"216 700 LINE"
);
}
);
width = 343;
}
);
unicode = 0031;
},
{
glyphname = two;
layers = (
{
layerId = "f35759b4-f9e3-4796-9f66-20855be2e20d";
paths = (
{
closed = 1;
nodes = (
"98 0 LINE",
"75 0 LINE",
"75 12 LINE",
"98 12 LINE"
);
},
{
closed = 1;
nodes = (
"496 17 LINE",
"496 17 OFFCURVE",
"450 -48 OFFCURVE",
"292 25 CURVE SMOOTH",
"189 72 OFFCURVE",
"67 130 OFFCURVE",
"103 0 CURVE",
"93 0 LINE",
"51 122 OFFCURVE",
"128 172 OFFCURVE",
"232 157 CURVE SMOOTH",
"332 143 OFFCURVE",
"421 97 OFFCURVE",
"491 164 CURVE"
);
},
{
closed = 1;
nodes = (
"356 731 OFFCURVE",
"47 488 OFFCURVE",
"47 488 CURVE",
"47 668 LINE",
"47 668 OFFCURVE",
"153 710 OFFCURVE",
"298 710 CURVE SMOOTH",
"435 710 OFFCURVE",
"467 649 OFFCURVE",
"467 582 CURVE SMOOTH",
"467 262 OFFCURVE",
"-47 254 OFFCURVE",
"85 0 CURVE",
"73 0 LINE",
"-143 360 OFFCURVE",
"543 545 OFFCURVE",
"428 659 CURVE SMOOTH"
);
}
);
width = 514;
}
);
unicode = 0032;
},
{
glyphname = three;
layers = (
{
layerId = "f35759b4-f9e3-4796-9f66-20855be2e20d";
paths = (
{
closed = 1;
nodes = (
"123 341 OFFCURVE",
"302 414 OFFCURVE",
"381 414 CURVE SMOOTH",
"558 414 OFFCURVE",
"572 301 OFFCURVE",
"564 240 CURVE SMOOTH",
"553 160 OFFCURVE",
"496 54 OFFCURVE",
"395 -10 CURVE",
"198 -19 OFFCURVE",
"33 24 OFFCURVE",
"33 24 CURVE",
"24 177 LINE",
"24 177 OFFCURVE",
"425 7 OFFCURVE",
"531 251 CURVE SMOOTH",
"574 352 OFFCURVE",
"476 441 OFFCURVE",
"370 318 CURVE SMOOTH",
"201 123 OFFCURVE",
"74 372 OFFCURVE",
"229 486 CURVE SMOOTH",
"305 541 OFFCURVE",
"415 617 OFFCURVE",
"398 661 CURVE SMOOTH",
"361 756 OFFCURVE",
"24 490 OFFCURVE",
"24 490 CURVE",
"24 667 LINE",
"24 667 OFFCURVE",
"130 710 OFFCURVE",
"274 710 CURVE SMOOTH",
"494 710 OFFCURVE",
"476 542 OFFCURVE",
"441 480 CURVE SMOOTH",
"372 356 OFFCURVE",
"351 593 OFFCURVE",
"205 445 CURVE"
);
}
);
width = 580;
}
);
unicode = 0033;
},
{
glyphname = four;
layers = (
{
layerId = "f35759b4-f9e3-4796-9f66-20855be2e20d";
paths = (
{
closed = 1;
nodes = (
"356 0 LINE",
"356 0 OFFCURVE",
"410 376 OFFCURVE",
"410 700 CURVE",
"487 700 LINE",
"519 0 LINE"
);
},
{
closed = 1;
nodes = (
"400 700 LINE",
"385 483 OFFCURVE",
"344 290 OFFCURVE",
"250 226 CURVE",
"109 226 OFFCURVE",
"-12 303 OFFCURVE",
"2 447 CURVE SMOOTH",
"20 634 OFFCURVE",
"-6 700 OFFCURVE",
"-6 700 CURVE",
"162 700 LINE",
"162 700 OFFCURVE",
"196 654 OFFCURVE",
"154 525 CURVE SMOOTH",
"115 405 OFFCURVE",
"44 280 OFFCURVE",
"122 261 CURVE SMOOTH",
"216 237 OFFCURVE",
"350 388 OFFCURVE",
"387 700 CURVE"
);
},
{
closed = 1;
nodes = (
"429 688 LINE",
"393 688 LINE",
"393 700 LINE",
"429 700 LINE"
);
}
);
width = 555;
}
);
unicode = 0034;
},
{
glyphname = five;
layers = (
{
layerId = "f35759b4-f9e3-4796-9f66-20855be2e20d";
paths = (
{
closed = 1;
nodes = (
"-25 563 OFFCURVE",
"109 700 OFFCURVE",
"109 700 CURVE",
"277 742 OFFCURVE",
"395 666 OFFCURVE",
"496 714 CURVE",
"503 555 LINE",
"403 507 OFFCURVE",
"6 725 OFFCURVE",
"54 398 CURVE SMOOTH",
"93 137 OFFCURVE",
"144 436 OFFCURVE",
"223 488 CURVE",
"373 488 OFFCURVE",
"538 409 OFFCURVE",
"538 247 CURVE SMOOTH",
"538 72 OFFCURVE",
"413 -10 OFFCURVE",
"281 -10 CURVE SMOOTH",
"178 -10 OFFCURVE",
"38 53 OFFCURVE",
"38 210 CURVE",
"205 210 LINE",
"178 115 OFFCURVE",
"190 4 OFFCURVE",
"258 4 CURVE SMOOTH",
"374 4 OFFCURVE",
"476 405 OFFCURVE",
"386 442 CURVE SMOOTH",
"321 469 OFFCURVE",
"284 394 OFFCURVE",
"243 306 CURVE",
"197 211 OFFCURVE",
"82 236 OFFCURVE",
"51 331 CURVE SMOOTH"
);
}
);
width = 557;
}
);
unicode = 0035;
},
{
glyphname = six;
layers = (
{
layerId = "f35759b4-f9e3-4796-9f66-20855be2e20d";
paths = (
{
closed = 1;
nodes = (
"536 86 OFFCURVE",
"414 -10 OFFCURVE",
"307 -10 CURVE SMOOTH",
"139 -10 OFFCURVE",
"25 109 OFFCURVE",
"25 327 CURVE SMOOTH",
"25 543 OFFCURVE",
"139 710 OFFCURVE",
"307 710 CURVE SMOOTH",
"406 710 OFFCURVE",
"506 656 OFFCURVE",
"517 473 CURVE",
"345 473 LINE",
"393 562 OFFCURVE",
"437 669 OFFCURVE",
"374 688 CURVE SMOOTH",
"207 739 OFFCURVE",
"77 124 OFFCURVE",
"166 41 CURVE SMOOTH",
"276 -63 OFFCURVE",
"512 344 OFFCURVE",
"435 381 CURVE SMOOTH",
"403 397 OFFCURVE",
"196 188 OFFCURVE",
"196 188 CURVE",
"189 377 LINE",
"189 377 OFFCURVE",
"287 409 OFFCURVE",
"362 409 CURVE SMOOTH",
"454 409 OFFCURVE",
"536 344 OFFCURVE",
"536 228 CURVE SMOOTH"
);
}
);
width = 561;
}
);
unicode = 0036;
},
{
glyphname = seven;
layers = (
{
layerId = "f35759b4-f9e3-4796-9f66-20855be2e20d";
paths = (
{
closed = 1;
nodes = (
"455 700 LINE",
"455 700 OFFCURVE",
"457 623 OFFCURVE",
"401 555 CURVE SMOOTH",
"331 469 OFFCURVE",
"232 378 OFFCURVE",
"193 312 CURVE SMOOTH",
"109 172 OFFCURVE",
"146 0 OFFCURVE",
"146 0 CURVE",
"309 0 LINE",
"260 383 OFFCURVE",
"332 438 OFFCURVE",
"420 559 CURVE SMOOTH",
"467 624 OFFCURVE",
"467 700 OFFCURVE",
"467 700 CURVE"
);
},
{
closed = 1;
nodes = (
"36 537 LINE",
"87 602 OFFCURVE",
"203 558 OFFCURVE",
"303 544 CURVE SMOOTH",
"408 529 OFFCURVE",
"441 631 OFFCURVE",
"445 700 CURVE",
"434 700 LINE",
"427 586 OFFCURVE",
"340 618 OFFCURVE",
"244 677 CURVE SMOOTH",
"101 764 OFFCURVE",
"30 687 OFFCURVE",
"30 687 CURVE"
);
},
{
closed = 1;
nodes = (
"461 700 LINE",
"435 700 LINE",
"435 688 LINE",
"461 688 LINE"
);
}
);
width = 483;
}
);
unicode = 0037;
},
{
glyphname = eight;
layers = (
{
layerId = "f35759b4-f9e3-4796-9f66-20855be2e20d";
paths = (
{
closed = 1;
nodes = (
"380 679 OFFCURVE",
"401 601 OFFCURVE",
"286 499 CURVE SMOOTH",
"111 343 OFFCURVE",
"38 328 OFFCURVE",
"29 206 CURVE SMOOTH",
"19 78 OFFCURVE",
"122 -9 OFFCURVE",
"264 -9 CURVE SMOOTH",
"407 -9 OFFCURVE",
"522 77 OFFCURVE",
"522 207 CURVE SMOOTH",
"522 427 OFFCURVE",
"214 386 OFFCURVE",
"157 432 CURVE SMOOTH",
"97 482 OFFCURVE",
"244 708 OFFCURVE",
"342 687 CURVE SMOOTH"
);
},
{
closed = 1;
nodes = (
"119 38 OFFCURVE",
"103 109 OFFCURVE",
"183 214 CURVE SMOOTH",
"272 331 OFFCURVE",
"454 440 OFFCURVE",
"463 556 CURVE SMOOTH",
"470 648 OFFCURVE",
"386 710 OFFCURVE",
"264 710 CURVE SMOOTH",
"142 710 OFFCURVE",
"44 648 OFFCURVE",
"44 555 CURVE SMOOTH",
"44 378 OFFCURVE",
"289 405 OFFCURVE",
"365 368 CURVE SMOOTH",
"468 318 OFFCURVE",
"315 -32 OFFCURVE",
"173 18 CURVE"
);
}
);
width = 541;
}
);
unicode = 0038;
},
{
glyphname = nine;
layers = (
{
layerId = "f35759b4-f9e3-4796-9f66-20855be2e20d";
paths = (
{
closed = 1;
nodes = (
"25 614 OFFCURVE",
"147 710 OFFCURVE",
"254 710 CURVE SMOOTH",
"422 710 OFFCURVE",
"536 591 OFFCURVE",
"536 373 CURVE SMOOTH",
"536 157 OFFCURVE",
"422 -10 OFFCURVE",
"254 -10 CURVE SMOOTH",
"155 -10 OFFCURVE",
"55 44 OFFCURVE",
"44 227 CURVE",
"216 227 LINE",
"168 138 OFFCURVE",
"124 31 OFFCURVE",
"187 12 CURVE SMOOTH",
"354 -39 OFFCURVE",
"484 576 OFFCURVE",
"395 659 CURVE SMOOTH",
"285 763 OFFCURVE",
"49 356 OFFCURVE",
"126 319 CURVE SMOOTH",
"158 303 OFFCURVE",
"365 512 OFFCURVE",
"365 512 CURVE",
"372 323 LINE",
"372 323 OFFCURVE",
"274 291 OFFCURVE",
"199 291 CURVE SMOOTH",
"107 291 OFFCURVE",
"25 356 OFFCURVE",
"25 472 CURVE SMOOTH"
);
}
);
width = 561;
}
);
unicode = 0039;
},
{
glyphname = colon;
layers = (
{
layerId = "f35759b4-f9e3-4796-9f66-20855be2e20d";
paths = (
{
closed = 1;
nodes = (
"51 141 OFFCURVE",
"22 111 OFFCURVE",
"22 66 CURVE SMOOTH",
"22 21 OFFCURVE",
"51 -10 OFFCURVE",
"86 -10 CURVE SMOOTH",
"121 -10 OFFCURVE",
"150 21 OFFCURVE",
"150 66 CURVE SMOOTH",
"150 111 OFFCURVE",
"121 141 OFFCURVE",
"86 141 CURVE SMOOTH"
);
},
{
closed = 1;
nodes = (
"51 431 OFFCURVE",
"22 401 OFFCURVE",
"22 356 CURVE SMOOTH",
"22 311 OFFCURVE",
"51 280 OFFCURVE",
"86 280 CURVE SMOOTH",
"121 280 OFFCURVE",
"150 311 OFFCURVE",
"150 356 CURVE SMOOTH",
"150 401 OFFCURVE",
"121 431 OFFCURVE",
"86 431 CURVE SMOOTH"
);
}
);
width = 172;
}
);
unicode = 003A;
},
{
glyphname = semicolon;
layers = (
{
layerId = "f35759b4-f9e3-4796-9f66-20855be2e20d";
paths = (
{
closed = 1;
nodes = (
"123 114 OFFCURVE",
"94 141 OFFCURVE",
"59 141 CURVE SMOOTH",
"24 141 OFFCURVE",
"-5 111 OFFCURVE",
"-5 66 CURVE SMOOTH",
"-5 21 OFFCURVE",
"24 -10 OFFCURVE",
"59 -10 CURVE SMOOTH",
"87 -10 OFFCURVE",
"113 -13 OFFCURVE",
"44 -127 CURVE",
"58 -127 LINE",
"111 -46 OFFCURVE",
"123 25 OFFCURVE",
"123 66 CURVE SMOOTH"
);
},
{
closed = 1;
nodes = (
"24 431 OFFCURVE",
"-5 401 OFFCURVE",
"-5 356 CURVE SMOOTH",
"-5 311 OFFCURVE",
"24 280 OFFCURVE",
"59 280 CURVE SMOOTH",
"94 280 OFFCURVE",
"123 311 OFFCURVE",
"123 356 CURVE SMOOTH",
"123 401 OFFCURVE",
"94 431 OFFCURVE",
"59 431 CURVE SMOOTH"
);
}
);
width = 130;
}
);
unicode = 003B;
},
{
glyphname = quotedblleft;
layers = (
{
layerId = "f35759b4-f9e3-4796-9f66-20855be2e20d";
paths = (
{
closed = 1;
nodes = (
"28 478.315 OFFCURVE",
"57 451.315 OFFCURVE",
"92 451.315 CURVE SMOOTH",
"127 451.315 OFFCURVE",
"156 481.315 OFFCURVE",
"156 526.315 CURVE SMOOTH",
"156 571.315 OFFCURVE",
"127 602.315 OFFCURVE",
"92 602.315 CURVE SMOOTH",
"64 602.315 OFFCURVE",
"38 605.315 OFFCURVE",
"107 719.315 CURVE",
"93 719.315 LINE",
"40 638.315 OFFCURVE",
"28 567.315 OFFCURVE",
"28 526.315 CURVE SMOOTH"
);
},
{
closed = 1;
nodes = (
"176 478.315 OFFCURVE",
"205 451.315 OFFCURVE",
"240 451.315 CURVE SMOOTH",
"275 451.315 OFFCURVE",
"304 481.315 OFFCURVE",
"304 526.315 CURVE SMOOTH",
"304 571.315 OFFCURVE",
"275 602.315 OFFCURVE",
"240 602.315 CURVE SMOOTH",
"212 602.315 OFFCURVE",
"186 605.315 OFFCURVE",
"255 719.315 CURVE",
"241 719.315 LINE",
"188 638.315 OFFCURVE",
"176 567.315 OFFCURVE",
"176 526.315 CURVE SMOOTH"
);
}
);
width = 318;
}
);
leftKerningGroup = quoteleft;
rightKerningGroup = quoteleft1;
unicode = 201C;
},
{
glyphname = quotedblright;
layers = (
{
layerId = "f35759b4-f9e3-4796-9f66-20855be2e20d";
paths = (
{
closed = 1;
nodes = (
"143 683 OFFCURVE",
"114 710 OFFCURVE",
"79 710 CURVE SMOOTH",
"44 710 OFFCURVE",
"15 680 OFFCURVE",
"15 635 CURVE SMOOTH",
"15 590 OFFCURVE",
"44 559 OFFCURVE",
"79 559 CURVE SMOOTH",
"107 559 OFFCURVE",
"133 556 OFFCURVE",
"64 442 CURVE",
"78 442 LINE",
"131 523 OFFCURVE",
"143 594 OFFCURVE",
"143 635 CURVE SMOOTH"
);
},
{
closed = 1;
nodes = (
"291 683 OFFCURVE",
"262 710 OFFCURVE",
"227 710 CURVE SMOOTH",
"192 710 OFFCURVE",
"163 680 OFFCURVE",
"163 635 CURVE SMOOTH",
"163 590 OFFCURVE",
"192 559 OFFCURVE",
"227 559 CURVE SMOOTH",
"255 559 OFFCURVE",
"281 556 OFFCURVE",
"212 442 CURVE",
"226 442 LINE",
"279 523 OFFCURVE",
"291 594 OFFCURVE",
"291 635 CURVE SMOOTH"
);
}
);
width = 317;
}
);
leftKerningGroup = quoteright;
rightKerningGroup = quoteright1;
unicode = 201D;
},
{
glyphname = quoteleft;
layers = (
{
layerId = "f35759b4-f9e3-4796-9f66-20855be2e20d";
paths = (
{
closed = 1;
nodes = (
"12 478 OFFCURVE",
"41 451 OFFCURVE",
"76 451 CURVE SMOOTH",
"111 451 OFFCURVE",
"140 481 OFFCURVE",
"140 526 CURVE SMOOTH",
"140 571 OFFCURVE",
"111 602 OFFCURVE",
"76 602 CURVE SMOOTH",
"48 602 OFFCURVE",
"22 605 OFFCURVE",
"91 719 CURVE",
"77 719 LINE",
"24 638 OFFCURVE",
"12 567 OFFCURVE",
"12 526 CURVE SMOOTH"
);
}
);
width = 130;
}
);
leftKerningGroup = quoteleft;
rightKerningGroup = quoteleft1;
unicode = 2018;
},
{
glyphname = quoteright;
layers = (
{
layerId = "f35759b4-f9e3-4796-9f66-20855be2e20d";
paths = (
{
closed = 1;
nodes = (
"121 683 OFFCURVE",
"92 710 OFFCURVE",
"57 710 CURVE SMOOTH",
"22 710 OFFCURVE",
"-7 680 OFFCURVE",
"-7 635 CURVE SMOOTH",
"-7 590 OFFCURVE",
"22 559 OFFCURVE",
"57 559 CURVE SMOOTH",
"85 559 OFFCURVE",
"111 556 OFFCURVE",
"42 442 CURVE",
"56 442 LINE",
"109 523 OFFCURVE",
"121 594 OFFCURVE",
"121 635 CURVE SMOOTH"
);
}
);
width = 130;
}
);
leftKerningGroup = quoteright;
rightKerningGroup = quoteright1;
unicode = 2019;
},
{
glyphname = endash;
layers = (
{
layerId = "f35759b4-f9e3-4796-9f66-20855be2e20d";
paths = (
{
closed = 1;
nodes = (
"470 245 LINE",
"35 245 LINE",
"32 271 LINE",
"468 271 LINE"
);
}
);
width = 502;
}
);
leftKerningGroup = minus;
rightKerningGroup = minus1;
unicode = 2013;
},
{
glyphname = underscore;
layers = (
{
layerId = "f35759b4-f9e3-4796-9f66-20855be2e20d";
paths = (
{
closed = 1;
nodes = (
"470 -107 LINE",
"35 -107 LINE",
"32 -81 LINE",
"468 -81 LINE"
);
}
);
width = 502;
}
);
unicode = 005F;
},
{
glyphname = minus;
layers = (
{
layerId = "f35759b4-f9e3-4796-9f66-20855be2e20d";
paths = (
{
closed = 1;
nodes = (
"370 245 LINE",
"35 245 LINE",
"32 271 LINE",
"368 271 LINE"
);
}
);
width = 402;
}
);
leftKerningGroup = minus;
rightKerningGroup = minus1;
unicode = 2212;
},
{
glyphname = plusminus;
layers = (
{
components = (
{
alignment = -1;
name = minus;
transform = "{1, 0, 0, 1, -59, -244}";
}
);
layerId = "f35759b4-f9e3-4796-9f66-20855be2e20d";
paths = (
{
closed = 1;
nodes = (
"310 275 LINE",
"-25 275 LINE",
"-28 301 LINE",
"308 301 LINE"
);
},
{
closed = 1;
nodes = (
"154 455.764 LINE",
"154 120.764 LINE",
"128 117.764 LINE",
"128 453.764 LINE"
);
}
);
width = 283;
}
);
unicode = 00B1;
},
{
glyphname = plus;
layers = (
{
layerId = "f35759b4-f9e3-4796-9f66-20855be2e20d";
paths = (
{
closed = 1;
nodes = (
"312 275 LINE",
"-23 275 LINE",
"-26 301 LINE",
"310 301 LINE"
);
},
{
closed = 1;
nodes = (
"156 456 LINE",
"156 121 LINE",
"130 118 LINE",
"130 454 LINE"
);
}
);
width = 286;
}
);
unicode = 002B;
},
{
glyphname = hyphen;
lastChange = "2021-04-28 07:09:55 +0000";
layers = (
{
layerId = "f35759b4-f9e3-4796-9f66-20855be2e20d";
paths = (
{
closed = 1;
nodes = (
"370 245 LINE",
"368 271 LINE",
"32 271 LINE",
"35 245 LINE"
);
}
);
width = 402;
}
);
leftKerningGroup = minus;
rightKerningGroup = minus1;
unicode = 002D;
},
{
glyphname = equal;
layers = (
{
layerId = "f35759b4-f9e3-4796-9f66-20855be2e20d";
paths = (
{
closed = 1;
nodes = (
"366 309 LINE",
"-9 309 LINE",
"-12 335 LINE",
"364 335 LINE"
);
},
{
closed = 1;
nodes = (
"366 194 LINE",
"-9 194 LINE",
"-12 220 LINE",
"364 220 LINE"
);
}
);
width = 354;
}
);
unicode = 003D;
},
{
glyphname = slash;
layers = (
{
layerId = "f35759b4-f9e3-4796-9f66-20855be2e20d";
paths = (
{
closed = 1;
nodes = (
"257 700 LINE",
"3 -190 LINE",
"-25 -190 LINE",
"229 700 LINE"
);
}
);
width = 231;
}
);
leftKerningGroup = slash;
rightKerningGroup = slash1;
unicode = 002F;
},
{
glyphname = backslash;
layers = (
{
layerId = "f35759b4-f9e3-4796-9f66-20855be2e20d";
paths = (
{
closed = 1;
nodes = (
"-25 700 LINE",
"229 -190 LINE",
"257 -190 LINE",
"3 700 LINE"
);
}
);
width = 231;
}
);
unicode = 005C;
},
{
glyphname = bar;
lastChange = "2021-04-28 07:10:03 +0000";
layers = (
{
layerId = "f35759b4-f9e3-4796-9f66-20855be2e20d";
paths = (
{
closed = 1;
nodes = (
"55 -190 LINE",
"55 700 LINE",
"29 700 LINE",
"29 -190 LINE"
);
}
);
width = 70;
}
);
unicode = 007C;
},
{
glyphname = parenleft;
layers = (
{
layerId = "f35759b4-f9e3-4796-9f66-20855be2e20d";
paths = (
{
closed = 1;
nodes = (
"235.145 -190 LINE",
"2.145 133 OFFCURVE",
"101.145 560 OFFCURVE",
"235.145 700 CURVE",
"210.145 704 LINE",
"-80.855 482 OFFCURVE",
"-69.855 128 OFFCURVE",
"210.145 -194 CURVE"
);
}
);
width = 222;
}
);
unicode = 0028;
},
{
glyphname = parenright;
layers = (
{
layerId = "f35759b4-f9e3-4796-9f66-20855be2e20d";
paths = (
{
closed = 1;
nodes = (
"-12 700 LINE",
"221 377 OFFCURVE",
"122 -50 OFFCURVE",
"-12 -190 CURVE",
"13 -194 LINE",
"304 28 OFFCURVE",
"293 382 OFFCURVE",
"13 704 CURVE"
);
}
);
width = 222;
}
);
unicode = 0029;
},
{
glyphname = braceleft;
layers = (
{
layerId = "f35759b4-f9e3-4796-9f66-20855be2e20d";
paths = (
{
closed = 1;
nodes = (
"231 684 LINE",
"183 684 OFFCURVE",
"145 648 OFFCURVE",
"143 604 CURVE SMOOTH",
"140 506 OFFCURVE",
"167 281 OFFCURVE",
"63 238 CURVE",
"176 216 OFFCURVE",
"151 3 OFFCURVE",
"159 -98 CURVE SMOOTH",
"162 -141 OFFCURVE",
"179 -173 OFFCURVE",
"248 -173 CURVE",
"248 -189 LINE",
"216 -189 LINE SMOOTH",
"143 -189 OFFCURVE",
"78 -129 OFFCURVE",
"73 -55 CURVE SMOOTH",
"54 199 OFFCURVE",
"72 210 OFFCURVE",
"-14 225 CURVE",
"-14 248 LINE",
"81 276 OFFCURVE",
"57 363 OFFCURVE",
"64 538 CURVE",
"66 627 OFFCURVE",
"142 700 OFFCURVE",
"231 700 CURVE"
);
}
);
width = 230;
}
);
unicode = 007B;
},
{
glyphname = braceright;
layers = (
{
layerId = "f35759b4-f9e3-4796-9f66-20855be2e20d";
paths = (
{
closed = 1;
nodes = (
"0 -172.944 LINE",
"48 -172.944 OFFCURVE",
"86 -136.944 OFFCURVE",
"88 -92.944 CURVE SMOOTH",
"91 5.056 OFFCURVE",
"64 230.056 OFFCURVE",
"168 273.056 CURVE",
"55 295.056 OFFCURVE",
"80 508.056 OFFCURVE",
"72 609.056 CURVE SMOOTH",
"69 652.056 OFFCURVE",
"52 684.056 OFFCURVE",
"-17 684.056 CURVE",
"-17 700.056 LINE",
"15 700.056 LINE SMOOTH",
"88 700.056 OFFCURVE",
"153 640.056 OFFCURVE",
"158 566.056 CURVE SMOOTH",
"177 312.056 OFFCURVE",
"159 301.056 OFFCURVE",
"245 286.056 CURVE",
"245 263.056 LINE",
"150 235.056 OFFCURVE",
"174 148.056 OFFCURVE",
"167 -26.944 CURVE",
"165 -115.944 OFFCURVE",
"89 -188.944 OFFCURVE",
"0 -188.944 CURVE"
);
}
);
width = 230;
}
);
unicode = 007D;
},
{
glyphname = bracketleft;
layers = (
{
layerId = "f35759b4-f9e3-4796-9f66-20855be2e20d";
paths = (
{
closed = 1;
nodes = (
"20 700 LINE",
"179 700 LINE",
"179 674 LINE",
"105 674 LINE",
"146 -164 LINE",
"220 -164 LINE",
"220 -190 LINE",
"60 -190 LINE"
);
}
);
width = 194;
}
);
unicode = 005B;
},
{
glyphname = bracketright;
layers = (
{
layerId = "f35759b4-f9e3-4796-9f66-20855be2e20d";
paths = (
{
closed = 1;
nodes = (
"174 -190 LINE",
"15 -190 LINE",
"15 -164 LINE",
"89 -164 LINE",
"48 674 LINE",
"-26 674 LINE",
"-26 700 LINE",
"134 700 LINE"
);
}
);
width = 193;
}
);
unicode = 005D;
},
{
glyphname = asterisk;
layers = (
{
layerId = "f35759b4-f9e3-4796-9f66-20855be2e20d";
paths = (
{
closed = 1;
nodes = (
"164 488 LINE",
"174 542 OFFCURVE",
"138 582 OFFCURVE",
"96 599 CURVE",
"130 650 LINE",
"164 632 OFFCURVE",
"187 611 OFFCURVE",
"193 589 CURVE",
"194 550 OFFCURVE",
"185 516 OFFCURVE",
"169 486 CURVE"
);
},
{
closed = 1;
nodes = (
"168 518 LINE",
"120 545 OFFCURVE",
"69 522 OFFCURVE",
"40 488 CURVE",
"2 536 LINE",
"31 563 OFFCURVE",
"57 578 OFFCURVE",
"80 578 CURVE",
"116 566 OFFCURVE",
"147 547 OFFCURVE",
"172 522 CURVE"
);
},
{
closed = 1;
nodes = (
"139 531 LINE",
"100 494 OFFCURVE",
"105 439 OFFCURVE",
"129 401 CURVE",
"72 379 LINE",
"55 414 OFFCURVE",
"49 445 OFFCURVE",
"56 466 CURVE",
"79 498 OFFCURVE",
"106 521 OFFCURVE",
"136 536 CURVE"
);
},
{
closed = 1;
nodes = (
"120 510 LINE",
"144 461 OFFCURVE",
"197 450 OFFCURVE",
"240 461 CURVE",
"244 399 LINE",
"204 394 OFFCURVE",
"174 398 OFFCURVE",
"156 411 CURVE",
"133 442 OFFCURVE",
"120 475 OFFCURVE",
"114 510 CURVE"
);
},
{
closed = 1;
nodes = (
"136 482 LINE",
"189 490 OFFCURVE",
"217 537 OFFCURVE",
"220 582 CURVE",
"280 566 LINE",
"272 526 OFFCURVE",
"260 499 OFFCURVE",
"240 486 CURVE",
"204 474 OFFCURVE",
"168 471 OFFCURVE",
"135 477 CURVE"
);
}
);
width = 282;
}
);
unicode = 002A;
},
{
glyphname = greater;
layers = (
{
layerId = "f35759b4-f9e3-4796-9f66-20855be2e20d";
paths = (
{
closed = 1;
nodes = (
"330.607 229.593 LINE",
"6 41.725 LINE",
"6 71.725 LINE",
"315.875 251.109 LINE"
);
},
{
closed = 1;
nodes = (
"330.606 229.593 LINE",
"5 417.725 LINE",
"5 447.725 LINE",
"330.616 259.609 LINE"
);
}
);
width = 306;
}
);
unicode = 003E;
},
{
glyphname = less;
layers = (
{
layerId = "f35759b4-f9e3-4796-9f66-20855be2e20d";
paths = (
{
closed = 1;
nodes = (
"-24.99 261.561 LINE",
"299.616 449.429 LINE",
"299.616 419.43 LINE",
"-10.258 240.045 LINE"
);
},
{
closed = 1;
nodes = (
"-24.99 261.561 LINE",
"300.616 73.429 LINE",
"300.616 43.43 LINE",
"-25 231.545 LINE"
);
}
);
width = 306;
}
);
unicode = 003C;
},
{
glyphname = guillemotleft;
layers = (
{
layerId = "f35759b4-f9e3-4796-9f66-20855be2e20d";
paths = (
{
closed = 1;
nodes = (
"327 505 LINE",
"340 497 LINE",
"240 234 LINE",
"340 15 LINE",
"327 7 LINE",
"134 234 LINE"
);
},
{
closed = 1;
nodes = (
"176 461 LINE",
"189 453 LINE",
"90 234 LINE",
"189 59 LINE",
"176 51 LINE",
"-17 234 LINE"
);
}
);
width = 363;
}
);
unicode = 00AB;
},
{
glyphname = guilsinglleft;
layers = (
{
layerId = "f35759b4-f9e3-4796-9f66-20855be2e20d";
paths = (
{
closed = 1;
nodes = (
"167 505 LINE",
"180 497 LINE",
"80 234 LINE",
"180 15 LINE",
"167 7 LINE",
"-26 234 LINE"
);
}
);
width = 190;
}
);
unicode = 2039;
},
{
glyphname = guilsinglright;
layers = (
{
layerId = "f35759b4-f9e3-4796-9f66-20855be2e20d";
paths = (
{
closed = 1;
nodes = (
"25 7 LINE",
"12 15 LINE",
"112 278 LINE",
"12 497 LINE",
"25 505 LINE",
"218 278 LINE"
);
}
);
width = 192;
}
);
leftKerningGroup = guillemotright;
unicode = 203A;
},
{
glyphname = guillemotright;
layers = (
{
layerId = "f35759b4-f9e3-4796-9f66-20855be2e20d";
paths = (
{
closed = 1;
nodes = (
"37 7 LINE",
"24 15 LINE",
"124 278 LINE",
"24 497 LINE",
"37 505 LINE",
"230 278 LINE"
);
},
{
closed = 1;
nodes = (
"188 51 LINE",
"175 59 LINE",
"274 278 LINE",
"175 453 LINE",
"188 461 LINE",
"381 278 LINE"
);
}
);
width = 364;
}
);
leftKerningGroup = guillemotright;
unicode = 00BB;
},
{
glyphname = multiply;
layers = (
{
layerId = "f35759b4-f9e3-4796-9f66-20855be2e20d";
paths = (
{
closed = 1;
nodes = (
"274.384 405.305 LINE",
"37.506 168.426 LINE",
"17 184.69 LINE",
"254.586 422.275 LINE"
);
},
{
closed = 1;
nodes = (
"36.092 422.982 LINE",
"272.97 186.104 LINE",
"256.707 165.598 LINE",
"19.121 403.184 LINE"
);
}
);
width = 291;
}
);
unicode = 00D7;
},
{
glyphname = trademark;
layers = (
{
layerId = "f35759b4-f9e3-4796-9f66-20855be2e20d";
paths = (
{
closed = 1;
nodes = (
"213 417 LINE",
"213 417 OFFCURVE",
"213 437 OFFCURVE",
"208 502 CURVE",
"201 637 OFFCURVE",
"155 709 OFFCURVE",
"67 709 CURVE SMOOTH",
"-5 709 OFFCURVE",
"-11 606 OFFCURVE",
"80 613 CURVE SMOOTH",
"146 619 OFFCURVE",
"206 681 OFFCURVE",
"312 640 CURVE",
"309 697 LINE",
"309 697 OFFCURVE",
"259 710 OFFCURVE",
"214 706 CURVE",
"194 683 OFFCURVE",
"157 632 OFFCURVE",
"86 624 CURVE SMOOTH",
"53 621 OFFCURVE",
"71 701 OFFCURVE",
"108 693 CURVE SMOOTH",
"160 682 OFFCURVE",
"168 602 OFFCURVE",
"146 417 CURVE"
);
},
{
closed = 1;
nodes = (
"547 700 LINE",
"532 499 OFFCURVE",
"464 419 OFFCURVE",
"427 434 CURVE SMOOTH",
"395 446 OFFCURVE",
"411 520 OFFCURVE",
"432 594 CURVE SMOOTH",
"452 671 OFFCURVE",
"435 700 OFFCURVE",
"435 700 CURVE",
"375 700 LINE",
"375 700 OFFCURVE",
"355 597 OFFCURVE",
"364 528 CURVE SMOOTH",
"373 458 OFFCURVE",
"415 413 OFFCURVE",
"474 413 CURVE",
"515 425 OFFCURVE",
"549 560 OFFCURVE",
"555 700 CURVE"
);
},
{
closed = 1;
nodes = (
"358 700 LINE",
"331 553 OFFCURVE",
"262 497 OFFCURVE",
"287 417 CURVE",
"351 417 LINE",
"311 515 OFFCURVE",
"346 595 OFFCURVE",
"368 700 CURVE"
);
},
{
closed = 1;
nodes = (
"606 417 LINE",
"593 700 LINE",
"562 700 LINE",
"562 569 OFFCURVE",
"540 417 OFFCURVE",
"540 417 CURVE"
);
},
{
closed = 1;
nodes = (
"382 691 LINE",
"382 700 LINE",
"365 700 LINE",
"365 691 LINE"
);
},
{
closed = 1;
nodes = (
"567 691 LINE",
"567 700 LINE",
"553 700 LINE",
"553 691 LINE"
);
}
);
width = 646;
}
);
unicode = 2122;
},
{
glyphname = registered;
layers = (
{
layerId = "f35759b4-f9e3-4796-9f66-20855be2e20d";
paths = (
{
closed = 1;
nodes = (
"162 710 OFFCURVE",
"25 566 OFFCURVE",
"25 351 CURVE SMOOTH",
"25 136 OFFCURVE",
"161 -10 OFFCURVE",
"329 -10 CURVE",
"497 -11 OFFCURVE",
"634 135 OFFCURVE",
"634 350 CURVE SMOOTH",
"634 565 OFFCURVE",
"498 710 OFFCURVE",
"330 710 CURVE SMOOTH"
);
},
{
closed = 1;
nodes = (
"528 97 OFFCURVE",
"375 -15 OFFCURVE",
"237 23 CURVE SMOOTH",
"99 61 OFFCURVE",
"29 236 OFFCURVE",
"80 420 CURVE SMOOTH",
"131 604 OFFCURVE",
"284 716 OFFCURVE",
"422 678 CURVE SMOOTH",
"560 640 OFFCURVE",
"630 465 OFFCURVE",
"579 281 CURVE SMOOTH"
);
},
{
closed = 1;
nodes = (
"167 543 LINE",
"184 165 LINE",
"226 165 LINE",
"226 340 OFFCURVE",
"255 543 OFFCURVE",
"255 543 CURVE"
);
},
{
closed = 1;
nodes = (
"241 165 LINE",
"260 429 OFFCURVE",
"354 544 OFFCURVE",
"399 527 CURVE SMOOTH",
"434 514 OFFCURVE",
"426 451 OFFCURVE",
"399 372 CURVE SMOOTH",
"371 293 OFFCURVE",
"331 244 OFFCURVE",
"298 253 CURVE SMOOTH",
"289 255 OFFCURVE",
"269 266 OFFCURVE",
"251 288 CURVE",
"248 277 LINE",
"277 244 OFFCURVE",
"315 233 OFFCURVE",
"348 233 CURVE SMOOTH",
"422 233 OFFCURVE",
"488 296 OFFCURVE",
"488 390 CURVE SMOOTH",
"488 485 OFFCURVE",
"425 548 OFFCURVE",
"343 548 CURVE",
"290 538 OFFCURVE",
"240 352 OFFCURVE",
"231 165 CURVE"
);
},
{
closed = 1;
nodes = (
"236 175 LINE",
"217 175 LINE",
"217 165 LINE",
"236 165 LINE"
);
},
{
closed = 1;
nodes = (
"244 260 LINE",
"326 159 OFFCURVE",
"379 82 OFFCURVE",
"467 138 CURVE",
"463 237 LINE",
"432 204 OFFCURVE",
"339 143 OFFCURVE",
"247 271 CURVE"
);
}
);
width = 659;
}
);
leftKerningGroup = copyright;
rightKerningGroup = copyright1;
unicode = 00AE;
},
{
glyphname = copyright;
layers = (
{
layerId = "f35759b4-f9e3-4796-9f66-20855be2e20d";
paths = (
{
closed = 1;
nodes = (
"162 710 OFFCURVE",
"25 566 OFFCURVE",
"25 351 CURVE SMOOTH",
"25 136 OFFCURVE",
"161 -10 OFFCURVE",
"329 -10 CURVE",
"497 -11 OFFCURVE",
"634 135 OFFCURVE",
"634 350 CURVE SMOOTH",
"634 565 OFFCURVE",
"498 710 OFFCURVE",
"330 710 CURVE SMOOTH"
);
},
{
closed = 1;
nodes = (
"528 97 OFFCURVE",
"375 -15 OFFCURVE",
"237 23 CURVE SMOOTH",
"99 61 OFFCURVE",
"29 236 OFFCURVE",
"80 420 CURVE SMOOTH",
"131 604 OFFCURVE",
"284 716 OFFCURVE",
"422 678 CURVE SMOOTH",
"560 640 OFFCURVE",
"630 465 OFFCURVE",
"579 281 CURVE SMOOTH"
);
},
{
closed = 1;
nodes = (
"385 348 LINE",
"409 217 OFFCURVE",
"320 158 OFFCURVE",
"269 179 CURVE SMOOTH",
"223 198 OFFCURVE",
"226 291 OFFCURVE",
"259 388 CURVE SMOOTH",
"293 485 OFFCURVE",
"344 539 OFFCURVE",
"390 523 CURVE SMOOTH",
"424 511 OFFCURVE",
"429 461 OFFCURVE",
"385 395 CURVE",
"490 395 LINE",
"474 486 OFFCURVE",
"409 546 OFFCURVE",
"329 546 CURVE SMOOTH",
"239 546 OFFCURVE",
"165 467 OFFCURVE",
"165 351 CURVE SMOOTH",
"165 235 OFFCURVE",
"239 157 OFFCURVE",
"329 157 CURVE SMOOTH",
"431 157 OFFCURVE",
"490 238 OFFCURVE",
"494 348 CURVE"
);
}
);
width = 659;
}
);
leftKerningGroup = copyright;
rightKerningGroup = copyright1;
unicode = 00A9;
},
{
glyphname = degree;
layers = (
{
layerId = "f35759b4-f9e3-4796-9f66-20855be2e20d";
paths = (
{
closed = 1;
nodes = (
"85 750 OFFCURVE",
"23 694 OFFCURVE",
"23 611 CURVE SMOOTH",
"23 527 OFFCURVE",
"84 471 OFFCURVE",
"160 471 CURVE SMOOTH",
"237 471 OFFCURVE",
"298 527 OFFCURVE",
"299 611 CURVE",
"299 694 OFFCURVE",
"237 750 OFFCURVE",
"161 750 CURVE SMOOTH"
);
},
{
closed = 1;
nodes = (
"196 515 OFFCURVE",
"149 479 OFFCURVE",
"113 492 CURVE SMOOTH",
"76 506 OFFCURVE",
"72 571 OFFCURVE",
"99 639 CURVE SMOOTH",
"126 707 OFFCURVE",
"175 741 OFFCURVE",
"211 728 CURVE SMOOTH",
"247 715 OFFCURVE",
"251 651 OFFCURVE",
"223 583 CURVE SMOOTH"
);
}
);
width = 322;
}
);
unicode = 00B0;
},
{
glyphname = exclamdown;
layers = (
{
layerId = "f35759b4-f9e3-4796-9f66-20855be2e20d";
paths = (
{
closed = 1;
nodes = (
"117 344 LINE",
"146 -160 LINE",
"1 -160 LINE",
"1 -160 OFFCURVE",
"48 111 OFFCURVE",
"48 344 CURVE"
);
},
{
closed = 1;
nodes = (
"38 404 OFFCURVE",
"9 434 OFFCURVE",
"9 479 CURVE SMOOTH",
"9 524 OFFCURVE",
"38 555 OFFCURVE",
"73 555 CURVE SMOOTH",
"109 555 OFFCURVE",
"137 524 OFFCURVE",
"137 479 CURVE SMOOTH",
"137 434 OFFCURVE",
"109 404 OFFCURVE",
"73 404 CURVE SMOOTH"
);
}
);
width = 157;
}
);
unicode = 00A1;
},
{
glyphname = questiondown;
layers = (
{
layerId = "f35759b4-f9e3-4796-9f66-20855be2e20d";
paths = (
{
closed = 1;
nodes = (
"99 -186 OFFCURVE",
"408 57 OFFCURVE",
"408 57 CURVE",
"408 -123 LINE",
"408 -123 OFFCURVE",
"302 -165 OFFCURVE",
"157 -165 CURVE SMOOTH",
"20 -165 OFFCURVE",
"-12 -104 OFFCURVE",
"-12 -37 CURVE SMOOTH",
"-12 249 OFFCURVE",
"391 113 OFFCURVE",
"260 343 CURVE",
"274 343 LINE",
"479 29 OFFCURVE",
"-67 -21 OFFCURVE",
"27 -114 CURVE SMOOTH"
);
},
{
closed = 1;
nodes = (
"216 404 OFFCURVE",
"187 434 OFFCURVE",
"187 479 CURVE SMOOTH",
"187 524 OFFCURVE",
"216 555 OFFCURVE",
"251 555 CURVE SMOOTH",
"287 555 OFFCURVE",
"315 524 OFFCURVE",
"315 479 CURVE SMOOTH",
"315 434 OFFCURVE",
"287 404 OFFCURVE",
"251 404 CURVE SMOOTH"
);
}
);
width = 411;
}
);
unicode = 00BF;
},
{
glyphname = onequarter;
layers = (
{
layerId = "f35759b4-f9e3-4796-9f66-20855be2e20d";
paths = (
{
closed = 1;
nodes = (
"362 700 LINE",
"162 0 LINE",
"134 0 LINE",
"334 700 LINE"
);
},
{
closed = 1;
nodes = (
"88 350 LINE",
"88 350 OFFCURVE",
"115 538 OFFCURVE",
"115 700 CURVE",
"153 700 LINE",
"169 350 LINE"
);
},
{
closed = 1;
nodes = (
"105 700 LINE",
"105 638 OFFCURVE",
"70 632 OFFCURVE",
"47 544 CURVE",
"13 594 LINE",
"-28 653 OFFCURVE",
"95 648 OFFCURVE",
"95 700 CURVE"
);
},
{
closed = 1;
nodes = (
"121 688 LINE",
"99 688 LINE",
"99 700 LINE",
"121 700 LINE"
);
},
{
closed = 1;
nodes = (
"490 2 LINE",
"490 2 OFFCURVE",
"517 190 OFFCURVE",
"517 352 CURVE",
"556 352 LINE",
"572 2 LINE"
);
},
{
closed = 1;
nodes = (
"508 352 LINE",
"501 244 OFFCURVE",
"484 147 OFFCURVE",
"437 115 CURVE",
"367 115 OFFCURVE",
"306 154 OFFCURVE",
"313 226 CURVE SMOOTH",
"322 319 OFFCURVE",
"309 352 OFFCURVE",
"309 352 CURVE",
"393 352 LINE",
"393 352 OFFCURVE",
"410 329 OFFCURVE",
"389 265 CURVE SMOOTH",
"370 205 OFFCURVE",
"335 151 OFFCURVE",
"374 142 CURVE SMOOTH",
"421 130 OFFCURVE",
"477 196 OFFCURVE",
"496 352 CURVE"
);
},
{
closed = 1;
nodes = (
"527 340 LINE",
"505 340 LINE",
"505 352 LINE",
"527 352 LINE"
);
}
);
width = 577;
}
);
unicode = 00BC;
},
{
glyphname = onehalf;
layers = (
{
layerId = "f35759b4-f9e3-4796-9f66-20855be2e20d";
paths = (
{
closed = 1;
nodes = (
"358 700 LINE",
"158 0 LINE",
"130 0 LINE",
"330 700 LINE"
);
},
{
closed = 1;
nodes = (
"84 350 LINE",
"84 350 OFFCURVE",
"111 538 OFFCURVE",
"111 700 CURVE",
"149 700 LINE",
"165 350 LINE"
);
},
{
closed = 1;
nodes = (
"101 700 LINE",
"101 638 OFFCURVE",
"66 632 OFFCURVE",
"43 544 CURVE",
"9 594 LINE",
"-32 653 OFFCURVE",
"91 648 OFFCURVE",
"91 700 CURVE"
);
},
{
closed = 1;
nodes = (
"117 688 LINE",
"95 688 LINE",
"95 700 LINE",
"117 700 LINE"
);
},
{
closed = 1;
nodes = (
"530 9 LINE",
"530 9 OFFCURVE",
"507 -24 OFFCURVE",
"428 13 CURVE SMOOTH",
"377 36 OFFCURVE",
"327 65 OFFCURVE",
"345 0 CURVE",
"333 0 LINE",
"313 49 OFFCURVE",
"346 86 OFFCURVE",
"398 79 CURVE SMOOTH",
"448 72 OFFCURVE",
"493 49 OFFCURVE",
"528 82 CURVE"
);
},
{
closed = 1;
nodes = (
"455 362 OFFCURVE",
"306 244 OFFCURVE",
"306 244 CURVE",
"306 334 LINE",
"306 334 OFFCURVE",
"359 355 OFFCURVE",
"431 355 CURVE SMOOTH",
"500 355 OFFCURVE",
"516 324 OFFCURVE",
"516 291 CURVE SMOOTH",
"516 131 OFFCURVE",
"259 127 OFFCURVE",
"325 0 CURVE",
"312 0 LINE",
"204 180 OFFCURVE",
"550 267 OFFCURVE",
"492 325 CURVE SMOOTH"
);
},
{
closed = 1;
nodes = (
"335 0 LINE",
"316 0 LINE",
"316 12 LINE",
"335 12 LINE"
);
}
);
width = 531;
}
);
unicode = 00BD;
},
{
glyphname = threequarters;
layers = (
{
layerId = "f35759b4-f9e3-4796-9f66-20855be2e20d";
paths = (
{
closed = 1;
nodes = (
"414 700 LINE",
"214 0 LINE",
"186 0 LINE",
"386 700 LINE"
);
},
{
closed = 1;
nodes = (
"541 2 LINE",
"541 2 OFFCURVE",
"568 190 OFFCURVE",
"568 352 CURVE",
"607 352 LINE",
"623 2 LINE"
);
},
{
closed = 1;
nodes = (
"559 352 LINE",
"552 244 OFFCURVE",
"535 147 OFFCURVE",
"488 115 CURVE",
"418 115 OFFCURVE",
"357 154 OFFCURVE",
"364 226 CURVE SMOOTH",
"373 319 OFFCURVE",
"360 352 OFFCURVE",
"360 352 CURVE",
"444 352 LINE",
"444 352 OFFCURVE",
"461 329 OFFCURVE",
"440 265 CURVE SMOOTH",
"421 205 OFFCURVE",
"386 151 OFFCURVE",
"425 142 CURVE SMOOTH",
"472 130 OFFCURVE",
"528 196 OFFCURVE",
"547 352 CURVE"
);
},
{
closed = 1;
nodes = (
"578 340 LINE",
"556 340 LINE",
"556 352 LINE",
"578 352 LINE"
);
},
{
closed = 1;
nodes = (
"62 525 OFFCURVE",
"145 562 OFFCURVE",
"184 562 CURVE SMOOTH",
"273 562 OFFCURVE",
"280 505 OFFCURVE",
"276 475 CURVE SMOOTH",
"270 435 OFFCURVE",
"242 382 OFFCURVE",
"191 350 CURVE",
"93 345 OFFCURVE",
"10 367 OFFCURVE",
"10 367 CURVE",
"6 443 LINE",
"6 443 OFFCURVE",
"200 355 OFFCURVE",
"253 477 CURVE SMOOTH",
"275 528 OFFCURVE",
"226 572 OFFCURVE",
"173 511 CURVE SMOOTH",
"88 413 OFFCURVE",
"31 541 OFFCURVE",
"108 598 CURVE SMOOTH",
"146 625 OFFCURVE",
"196 658 OFFCURVE",
"188 680 CURVE SMOOTH",
"169 728 OFFCURVE",
"6 600 OFFCURVE",
"6 600 CURVE",
"6 688 LINE",
"6 688 OFFCURVE",
"59 710 OFFCURVE",
"131 710 CURVE SMOOTH",
"241 710 OFFCURVE",
"231 626 OFFCURVE",
"214 595 CURVE SMOOTH",
"179 533 OFFCURVE",
"176 651 OFFCURVE",
"103 577 CURVE"
);
}
);
width = 629;
}
);
unicode = 00BE;
},
{
glyphname = section;
layers = (
{
layerId = "f35759b4-f9e3-4796-9f66-20855be2e20d";
paths = (
{
closed = 1;
nodes = (
"310.3 235.3 LINE",
"310.3 235.3 OFFCURVE",
"394.9 391.5 OFFCURVE",
"292.3 439.9 CURVE SMOOTH",
"178.9 492.7 OFFCURVE",
"47.5 457.5 OFFCURVE",
"47.5 559.8 CURVE SMOOTH",
"47.5 667.6 OFFCURVE",
"145.6 716 OFFCURVE",
"226.6 716 CURVE SMOOTH",
"316.6 716 OFFCURVE",
"367 679.7 OFFCURVE",
"426.4 634.6 CURVE SMOOTH",
"462.4 608.2 OFFCURVE",
"497.5 592.8 OFFCURVE",
"507.4 697.3 CURVE",
"519.1 697.3 LINE",
"504.7 545.5 OFFCURVE",
"470.5 445.4 OFFCURVE",
"414.7 468.5 CURVE SMOOTH",
"357.1 491.6 OFFCURVE",
"383.2 699.5 OFFCURVE",
"252.7 699.5 CURVE SMOOTH",
"186.1 699.5 OFFCURVE",
"135.7 625.8 OFFCURVE",
"164.5 537.8 CURVE SMOOTH",
"182.5 482.8 OFFCURVE",
"247.3 470.7 OFFCURVE",
"323.8 448.7 CURVE SMOOTH",
"474.1 405.8 OFFCURVE",
"504.7 290.3 OFFCURVE",
"403.9 217.7 CURVE"
);
},
{
closed = 1;
nodes = (
"233.8 469.6 LINE",
"233.8 469.6 OFFCURVE",
"149.2 313.4 OFFCURVE",
"251.8 266.1 CURVE SMOOTH",
"366.1 212.2 OFFCURVE",
"496.6 247.4 OFFCURVE",
"496.6 145.1 CURVE SMOOTH",
"496.6 37.3 OFFCURVE",
"398.5 -10 OFFCURVE",
"317.5 -10 CURVE SMOOTH",
"227.5 -10 OFFCURVE",
"177.1 26.3 OFFCURVE",
"117.7 70.3 CURVE SMOOTH",
"81.7 97.8 OFFCURVE",
"46.6 105.5 OFFCURVE",
"36.7 1 CURVE",
"25 1 LINE",
"39.4 153.9 OFFCURVE",
"73.6 260.6 OFFCURVE",
"130.3 237.5 CURVE SMOOTH",
"187 213.3 OFFCURVE",
"160.9 5.4 OFFCURVE",
"291.4 5.4 CURVE SMOOTH",
"358 5.4 OFFCURVE",
"408.4 79.1 OFFCURVE",
"379.6 168.2 CURVE SMOOTH",
"361.6 223.2 OFFCURVE",
"296.8 235.3 OFFCURVE",
"220.3 257.3 CURVE SMOOTH",
"70 300.2 OFFCURVE",
"37.6 400.3 OFFCURVE",
"140.2 487.2 CURVE"
);
}
);
width = 544;
}
);
unicode = 00A7;
},
{
glyphname = dotaccent;
lastChange = "2021-04-28 07:09:32 +0000";
layers = (
{
layerId = "f35759b4-f9e3-4796-9f66-20855be2e20d";
paths = (
{
closed = 1;
nodes = (
"76 721 OFFCURVE",
"50 692 OFFCURVE",
"50 650 CURVE SMOOTH",
"50 607 OFFCURVE",
"76 579 OFFCURVE",
"110 579 CURVE SMOOTH",
"143 579 OFFCURVE",
"170 607 OFFCURVE",
"170 650 CURVE SMOOTH",
"170 692 OFFCURVE",
"143 721 OFFCURVE",
"110 721 CURVE SMOOTH"
);
}
);
width = 202;
}
);
unicode = 02D9;
},
{
glyphname = ring;
lastChange = "2021-04-28 07:09:31 +0000";
layers = (
{
layerId = "f35759b4-f9e3-4796-9f66-20855be2e20d";
paths = (
{
closed = 1;
nodes = (
"92 757 OFFCURVE",
"48 716 OFFCURVE",
"48 654 CURVE SMOOTH",
"48 593 OFFCURVE",
"92 552 OFFCURVE",
"147 552 CURVE SMOOTH",
"203 552 OFFCURVE",
"248 593 OFFCURVE",
"248 654 CURVE SMOOTH",
"248 716 OFFCURVE",
"203 757 OFFCURVE",
"147 757 CURVE SMOOTH"
);
},
{
closed = 1;
nodes = (
"171 588 OFFCURVE",
"144 560 OFFCURVE",
"123 567 CURVE SMOOTH",
"102 574 OFFCURVE",
"95 614 OFFCURVE",
"110 667 CURVE SMOOTH",
"125 721 OFFCURVE",
"151 749 OFFCURVE",
"172 742 CURVE SMOOTH",
"193 735 OFFCURVE",
"200 695 OFFCURVE",
"186 642 CURVE SMOOTH"
);
}
);
width = 273;
}
);
unicode = 02DA;
},
{
glyphname = hungarumlaut;
lastChange = "2021-04-28 07:09:29 +0000";
layers = (
{
layerId = "f35759b4-f9e3-4796-9f66-20855be2e20d";
paths = (
{
closed = 1;
nodes = (
"109 700 LINE",
"124 638 OFFCURVE",
"107 565 OFFCURVE",
"38 537 CURVE",
"38 529 LINE",
"86 532 OFFCURVE",
"133 548 OFFCURVE",
"176 578 CURVE",
"187 592 OFFCURVE",
"193 611 OFFCURVE",
"196 635 CURVE SMOOTH",
"200 670 OFFCURVE",
"171 700 OFFCURVE",
"135 700 CURVE SMOOTH"
);
},
{
closed = 1;
nodes = (
"264 700 LINE",
"279 638 OFFCURVE",
"262 565 OFFCURVE",
"193 537 CURVE",
"193 529 LINE",
"241 532 OFFCURVE",
"288 548 OFFCURVE",
"331 578 CURVE",
"342 592 OFFCURVE",
"348 611 OFFCURVE",
"351 635 CURVE SMOOTH",
"355 670 OFFCURVE",
"326 700 OFFCURVE",
"290 700 CURVE SMOOTH"
);
}
);
width = 370;
}
);
unicode = 02DD;
},
{
glyphname = ogonek;
lastChange = "2021-04-28 07:09:25 +0000";
layers = (
{
layerId = "f35759b4-f9e3-4796-9f66-20855be2e20d";
paths = (
{
closed = 1;
nodes = (
"204 -184 LINE",
"182 -239 OFFCURVE",
"110 -280 OFFCURVE",
"64 -229 CURVE SMOOTH",
"14 -173 OFFCURVE",
"78 -63 OFFCURVE",
"142 8 CURVE",
"154 5 LINE",
"63 -96 OFFCURVE",
"93 -210 OFFCURVE",
"199 -178 CURVE"
);
}
);
width = 210;
}
);
unicode = 02DB;
},
{
glyphname = caron;
layers = (
{
layerId = "f35759b4-f9e3-4796-9f66-20855be2e20d";
paths = (
{
closed = 1;
nodes = (
"25 687 LINE",
"31 696 LINE",
"90 676 LINE SMOOTH",
"140 658 OFFCURVE",
"195 658 OFFCURVE",
"246 676 CURVE SMOOTH",
"305 696 LINE",
"311 687 LINE",
"168 560 LINE"
);
}
);
width = 333;
}
);
unicode = 02C7;
},
{
glyphname = dotlessi;
layers = (
{
layerId = "f35759b4-f9e3-4796-9f66-20855be2e20d";
paths = (
{
closed = 1;
nodes = (
"72 500 LINE",
"72 175 OFFCURVE",
"7 17 OFFCURVE",
"-3 -1 CURVE",
"158 -1 LINE",
"131 500 LINE"
);
},
{
closed = 1;
nodes = (
"52 701 OFFCURVE",
"26 672 OFFCURVE",
"26 629 CURVE SMOOTH",
"26 587 OFFCURVE",
"52 559 OFFCURVE",
"86 559 CURVE SMOOTH",
"119 559 OFFCURVE",
"146 587 OFFCURVE",
"146 629 CURVE SMOOTH",
"146 672 OFFCURVE",
"119 701 OFFCURVE",
"86 701 CURVE SMOOTH"
);
}
);
width = 199;
}
);
leftKerningGroup = i;
rightKerningGroup = i1;
unicode = 0131;
},
{
glyphname = grave;
layers = (
{
layerId = "f35759b4-f9e3-4796-9f66-20855be2e20d";
paths = (
{
closed = 1;
nodes = (
"80 706 LINE",
"98 644 OFFCURVE",
"152 591 OFFCURVE",
"225 601 CURVE",
"228 593 LINE",
"184 572 OFFCURVE",
"136 562 OFFCURVE",
"83 566 CURVE",
"67 573 OFFCURVE",
"52 586 OFFCURVE",
"38 605 CURVE SMOOTH",
"16 634 OFFCURVE",
"26 675 OFFCURVE",
"57 692 CURVE"
);
}
);
width = 273;
}
);
unicode = 0060;
},
{
glyphname = circumflex;
layers = (
{
layerId = "f35759b4-f9e3-4796-9f66-20855be2e20d";
paths = (
{
closed = 1;
nodes = (
"313 572 LINE",
"307 563 LINE",
"248 583 LINE SMOOTH",
"198 601 OFFCURVE",
"143 601 OFFCURVE",
"92 583 CURVE SMOOTH",
"33 563 LINE",
"27 572 LINE",
"170 699 LINE"
);
}
);
width = 333;
}
);
unicode = 02C6;
},
{
glyphname = acute;
lastChange = "2021-04-28 07:09:27 +0000";
layers = (
{
layerId = "f35759b4-f9e3-4796-9f66-20855be2e20d";
paths = (
{
closed = 1;
nodes = (
"125 739 LINE",
"140 677 OFFCURVE",
"123 604 OFFCURVE",
"54 576 CURVE",
"54 568 LINE",
"102 571 OFFCURVE",
"149 587 OFFCURVE",
"192 617 CURVE",
"203 631 OFFCURVE",
"209 650 OFFCURVE",
"212 674 CURVE SMOOTH",
"216 709 OFFCURVE",
"187 739 OFFCURVE",
"151 739 CURVE SMOOTH"
);
}
);
width = 194;
}
);
unicode = 00B4;
},
{
glyphname = cedilla;
lastChange = "2021-04-28 07:09:22 +0000";
layers = (
{
layerId = "f35759b4-f9e3-4796-9f66-20855be2e20d";
paths = (
{
closed = 1;
nodes = (
"14 -197 LINE",
"63 -197 OFFCURVE",
"126 -172 OFFCURVE",
"139 -108 CURVE SMOOTH",
"147 -72 OFFCURVE",
"133 -41 OFFCURVE",
"84 -33 CURVE",
"86 -20 LINE",
"176 -33 OFFCURVE",
"237 -94 OFFCURVE",
"216 -157 CURVE SMOOTH",
"203 -193 OFFCURVE",
"172 -230 OFFCURVE",
"151 -237 CURVE",
"113 -237 OFFCURVE",
"60 -227 OFFCURVE",
"14 -209 CURVE"
);
},
{
closed = 1;
nodes = (
"99.102 1.818 LINE",
"95.962 -34.045 LINE",
"84.008 -32.998 LINE",
"87.147 2.865 LINE"
);
}
);
width = 230;
}
);
unicode = 00B8;
},
{
glyphname = numbersign;
layers = (
{
layerId = "f35759b4-f9e3-4796-9f66-20855be2e20d";
paths = (
{
closed = 1;
nodes = (
"299 700 LINE",
"99 0 LINE",
"71 0 LINE",
"271 700 LINE"
);
},
{
closed = 1;
nodes = (
"478 700 LINE",
"278 0 LINE",
"250 0 LINE",
"450 700 LINE"
);
},
{
closed = 1;
nodes = (
"527 239 LINE",
"-8 239 LINE",
"-11 265 LINE",
"525 265 LINE"
);
},
{
closed = 1;
nodes = (
"582 453 LINE",
"47 453 LINE",
"44 479 LINE",
"580 479 LINE"
);
}
);
width = 566;
}
);
unicode = 0023;
},
{
glyphname = at;
layers = (
{
layerId = "f35759b4-f9e3-4796-9f66-20855be2e20d";
paths = (
{
closed = 1;
nodes = (
"775 477 OFFCURVE",
"603 629 OFFCURVE",
"389 629 CURVE",
"176 630 OFFCURVE",
"25 478 OFFCURVE",
"24 252 CURVE SMOOTH",
"23 27 OFFCURVE",
"218 -126 OFFCURVE",
"432 -126 CURVE SMOOTH",
"614 -126 OFFCURVE",
"681 -21 OFFCURVE",
"681 -21 CURVE",
"677 65 LINE",
"677 65 OFFCURVE",
"525 -142 OFFCURVE",
"315 -95 CURVE SMOOTH",
"140 -56 OFFCURVE",
"28 131 OFFCURVE",
"93 325 CURVE SMOOTH",
"158 518 OFFCURVE",
"331 637 OFFCURVE",
"506 597 CURVE SMOOTH",
"681 557 OFFCURVE",
"764 374 OFFCURVE",
"706 179 CURVE SMOOTH",
"673 69 OFFCURVE",
"608 160 OFFCURVE",
"498 255 CURVE SMOOTH",
"382 355 OFFCURVE",
"200 343 OFFCURVE",
"200 171 CURVE SMOOTH",
"200 61 OFFCURVE",
"285 -6 OFFCURVE",
"410 -6 CURVE SMOOTH",
"532 -6 OFFCURVE",
"630 99 OFFCURVE",
"630 254 CURVE SMOOTH",
"630 410 OFFCURVE",
"532 514 OFFCURVE",
"410 514 CURVE SMOOTH",
"308 514 OFFCURVE",
"232 482 OFFCURVE",
"232 482 CURVE",
"239 350 LINE",
"239 350 OFFCURVE",
"391 522 OFFCURVE",
"485 486 CURVE",
"530 471 OFFCURVE",
"539 335 OFFCURVE",
"505 212 CURVE SMOOTH",
"470 89 OFFCURVE",
"383 0 OFFCURVE",
"335 17 CURVE SMOOTH",
"254 45 OFFCURVE",
"345 387 OFFCURVE",
"493 242 CURVE SMOOTH",
"676 62 OFFCURVE",
"775 17 OFFCURVE",
"775 251 CURVE SMOOTH"
);
}
);
width = 799;
}
);
unicode = 0040;
},
{
glyphname = Euro;
layers = (
{
layerId = "f35759b4-f9e3-4796-9f66-20855be2e20d";
paths = (
{
closed = 1;
nodes = (
"668 364 LINE",
"580 178 OFFCURVE",
"347 -6 OFFCURVE",
"270 25 CURVE SMOOTH",
"186 60 OFFCURVE",
"191 237 OFFCURVE",
"252 415 CURVE SMOOTH",
"314 594 OFFCURVE",
"409 700 OFFCURVE",
"494 671 CURVE SMOOTH",
"557 649 OFFCURVE",
"566 551 OFFCURVE",
"485 427 CURVE",
"679 427 LINE",
"650 597 OFFCURVE",
"528 706 OFFCURVE",
"382 706 CURVE SMOOTH",
"214 706 OFFCURVE",
"79 562 OFFCURVE",
"79 348 CURVE SMOOTH",
"79 133 OFFCURVE",
"214 -10 OFFCURVE",
"382 -10 CURVE SMOOTH",
"553 -10 OFFCURVE",
"679 140 OFFCURVE",
"679 140 CURVE"
);
},
{
closed = 1;
nodes = (
"414 358 LINE",
"412 384 LINE",
"6 384 LINE",
"9 358 LINE"
);
},
{
closed = 1;
nodes = (
"420 283 LINE",
"418 309 LINE",
"18 309 LINE",
"21 283 LINE"
);
}
);
width = 708;
}
);
unicode = 20AC;
},
{
glyphname = percent;
layers = (
{
layerId = "f35759b4-f9e3-4796-9f66-20855be2e20d";
paths = (
{
closed = 1;
nodes = (
"399.325 338 OFFCURVE",
"354.325 259 OFFCURVE",
"354.325 164 CURVE SMOOTH",
"354.325 71 OFFCURVE",
"398.325 -10 OFFCURVE",
"480.325 -10 CURVE",
"561.325 -10 OFFCURVE",
"606.325 70 OFFCURVE",
"606.325 164 CURVE",
"606.325 257 OFFCURVE",
"562.325 338 OFFCURVE",
"480.325 338 CURVE SMOOTH"
);
},
{
closed = 1;
nodes = (
"505.325 53 OFFCURVE",
"473.325 2 OFFCURVE",
"431.325 17 CURVE SMOOTH",
"389.325 31 OFFCURVE",
"400.325 119 OFFCURVE",
"428.325 197 CURVE SMOOTH",
"456.325 275 OFFCURVE",
"487.325 326 OFFCURVE",
"529.325 312 CURVE SMOOTH",
"571.325 297 OFFCURVE",
"560.325 208 OFFCURVE",
"533.325 130 CURVE SMOOTH"
);
},
{
closed = 1;
nodes = (
"388 700 LINE",
"188 0 LINE",
"216 0 LINE",
"416 700 LINE"
);
},
{
closed = 1;
nodes = (
"51.5 707.309 OFFCURVE",
"6.5 628.309 OFFCURVE",
"6.5 533.309 CURVE SMOOTH",
"6.5 440.309 OFFCURVE",
"50.5 359.309 OFFCURVE",
"132.5 359.309 CURVE",
"213.5 359.309 OFFCURVE",
"258.5 439.309 OFFCURVE",
"258.5 533.309 CURVE",
"258.5 626.309 OFFCURVE",
"214.5 707.309 OFFCURVE",
"132.5 707.309 CURVE SMOOTH"
);
},
{
closed = 1;
nodes = (
"157.5 422.309 OFFCURVE",
"125.5 371.309 OFFCURVE",
"83.5 386.309 CURVE SMOOTH",
"41.5 400.309 OFFCURVE",
"52.5 488.309 OFFCURVE",
"80.5 566.309 CURVE SMOOTH",
"108.5 644.309 OFFCURVE",
"139.5 695.309 OFFCURVE",
"181.5 681.309 CURVE SMOOTH",
"223.5 666.309 OFFCURVE",
"212.5 577.309 OFFCURVE",
"185.5 499.309 CURVE SMOOTH"
);
}
);
width = 613;
}
);
unicode = 0025;
},
{
glyphname = ampersand;
layers = (
{
layerId = "f35759b4-f9e3-4796-9f66-20855be2e20d";
paths = (
{
closed = 1;
nodes = (
"504 616 OFFCURVE",
"597 525 OFFCURVE",
"673 531 CURVE SMOOTH",
"726 535 OFFCURVE",
"808 696 OFFCURVE",
"808 696 CURVE",
"797 700 LINE",
"797 700 OFFCURVE",
"787 685 OFFCURVE",
"774 672 CURVE SMOOTH",
"716 613 OFFCURVE",
"521 759 OFFCURVE",
"433 673 CURVE SMOOTH",
"344 586 OFFCURVE",
"227 300 OFFCURVE",
"307 193 CURVE SMOOTH",
"352 134 OFFCURVE",
"451 191 OFFCURVE",
"505 356 CURVE SMOOTH",
"548 487 OFFCURVE",
"616 472 OFFCURVE",
"625 445 CURVE SMOOTH",
"658 341 OFFCURVE",
"320 -1 OFFCURVE",
"223 44 CURVE SMOOTH",
"166 70 OFFCURVE",
"172 199 OFFCURVE",
"210 326 CURVE SMOOTH",
"241 428 OFFCURVE",
"328 584 OFFCURVE",
"184 541 CURVE SMOOTH",
"87 513 OFFCURVE",
"46 499 OFFCURVE",
"36 524 CURVE SMOOTH",
"17 570 OFFCURVE",
"112 602 OFFCURVE",
"197 587 CURVE",
"264 574 OFFCURVE",
"311 542 OFFCURVE",
"311 542 CURVE",
"306 694 LINE",
"306 694 OFFCURVE",
"197 710 OFFCURVE",
"85 710 CURVE",
"8 634 OFFCURVE",
"-40 413 OFFCURVE",
"177 473 CURVE SMOOTH",
"222 485 OFFCURVE",
"246 496 OFFCURVE",
"249 481 CURVE SMOOTH",
"257 434 OFFCURVE",
"59 379 OFFCURVE",
"59 379 CURVE",
"59 146 OFFCURVE",
"194 -10 OFFCURVE",
"363 -10 CURVE SMOOTH",
"546 -10 OFFCURVE",
"655 208 OFFCURVE",
"655 356 CURVE SMOOTH",
"655 405 OFFCURVE",
"648 522 OFFCURVE",
"494 522 CURVE SMOOTH",
"349 522 OFFCURVE",
"416 429 OFFCURVE",
"445 318 CURVE SMOOTH",
"474 208 OFFCURVE",
"371 213 OFFCURVE",
"357 356 CURVE SMOOTH",
"348 447 OFFCURVE",
"347 616 OFFCURVE",
"433 616 CURVE SMOOTH"
);
}
);
width = 673;
}
);
unicode = 0026;
},
{
glyphname = question;
layers = (
{
layerId = "f35759b4-f9e3-4796-9f66-20855be2e20d";
paths = (
{
closed = 1;
nodes = (
"312 731 OFFCURVE",
"3 488 OFFCURVE",
"3 488 CURVE",
"3 668 LINE",
"3 668 OFFCURVE",
"109 710 OFFCURVE",
"254 710 CURVE SMOOTH",
"391 710 OFFCURVE",
"423 649 OFFCURVE",
"423 582 CURVE SMOOTH",
"423 296 OFFCURVE",
"20 432 OFFCURVE",
"151 202 CURVE",
"137 202 LINE",
"-68 516 OFFCURVE",
"478 566 OFFCURVE",
"384 659 CURVE SMOOTH"
);
},
{
closed = 1;
nodes = (
"195 141 OFFCURVE",
"224 111 OFFCURVE",
"224 66 CURVE SMOOTH",
"224 21 OFFCURVE",
"195 -10 OFFCURVE",
"160 -10 CURVE SMOOTH",
"124 -10 OFFCURVE",
"96 21 OFFCURVE",
"96 66 CURVE SMOOTH",
"96 111 OFFCURVE",
"124 141 OFFCURVE",
"160 141 CURVE SMOOTH"
);
}
);
width = 410;
}
);
unicode = 003F;
},
{
glyphname = quotesingle;
layers = (
{
layerId = "f35759b4-f9e3-4796-9f66-20855be2e20d";
paths = (
{
closed = 1;
nodes = (
"35 700 LINE",
"63 636 OFFCURVE",
"59 553 OFFCURVE",
"-11 510 CURVE",
"-9 501 LINE",
"42 513 OFFCURVE",
"90 540 OFFCURVE",
"131 580 CURVE",
"140 598 OFFCURVE",
"143 619 OFFCURVE",
"142 646 CURVE SMOOTH",
"140 685 OFFCURVE",
"102 712 OFFCURVE",
"63 705 CURVE SMOOTH"
);
}
);
width = 148;
}
);
unicode = 0027;
},
{
glyphname = quotedbl;
layers = (
{
layerId = "f35759b4-f9e3-4796-9f66-20855be2e20d";
paths = (
{
closed = 1;
nodes = (
"55 700 LINE",
"83 636 OFFCURVE",
"78 553 OFFCURVE",
"9 510 CURVE",
"11 501 LINE",
"62 513 OFFCURVE",
"110 540 OFFCURVE",
"151 580 CURVE",
"160 598 OFFCURVE",
"163 619 OFFCURVE",
"161 646 CURVE SMOOTH",
"159 685 OFFCURVE",
"122 712 OFFCURVE",
"83 705 CURVE SMOOTH"
);
},
{
closed = 1;
nodes = (
"187 700 LINE",
"215 635 OFFCURVE",
"210 553 OFFCURVE",
"141 509 CURVE",
"142 501 LINE",
"194 513 OFFCURVE",
"242 540 OFFCURVE",
"283 580 CURVE",
"292 598 OFFCURVE",
"295 619 OFFCURVE",
"293 646 CURVE SMOOTH",
"291 684 OFFCURVE",
"254 711 OFFCURVE",
"215 705 CURVE SMOOTH"
);
}
);
width = 314;
}
);
unicode = 0022;
},
{
glyphname = tilde;
lastChange = "2021-04-28 07:09:19 +0000";
layers = (
{
layerId = "f35759b4-f9e3-4796-9f66-20855be2e20d";
paths = (
{
closed = 1;
nodes = (
"241 655 LINE",
"228 601 OFFCURVE",
"212 603 OFFCURVE",
"149 639 CURVE SMOOTH",
"93 671 OFFCURVE",
"34 650 OFFCURVE",
"34 595 CURVE",
"116 582 LINE",
"127 635 OFFCURVE",
"131 637 OFFCURVE",
"197 602 CURVE SMOOTH",
"255 572 OFFCURVE",
"323 580 OFFCURVE",
"323 639 CURVE"
);
}
);
width = 357;
}
);
unicode = 02DC;
},
{
glyphname = asciitilde;
layers = (
{
layerId = "f35759b4-f9e3-4796-9f66-20855be2e20d";
paths = (
{
closed = 1;
nodes = (
"319 413 LINE",
"302 345 OFFCURVE",
"283 343 OFFCURVE",
"184 396 CURVE SMOOTH",
"112 434 OFFCURVE",
"30 409 OFFCURVE",
"30 340 CURVE",
"132 324 LINE",
"146 390 OFFCURVE",
"158 396 OFFCURVE",
"259 344 CURVE SMOOTH",
"333 306 OFFCURVE",
"416 322 OFFCURVE",
"416 395 CURVE"
);
}
);
width = 446;
}
);
unicode = 007E;
},
{
glyphname = bullet;
layers = (
{
layerId = "f35759b4-f9e3-4796-9f66-20855be2e20d";
paths = (
{
closed = 1;
nodes = (
"92.878 468 OFFCURVE",
"298.878 390 OFFCURVE",
"281.878 321 CURVE SMOOTH",
"264.878 252 OFFCURVE",
"147.878 176 OFFCURVE",
"84.878 213 CURVE SMOOTH",
"21.878 251 OFFCURVE",
"14.878 358 OFFCURVE",
"54.878 414 CURVE SMOOTH"
);
}
);
width = 292;
}
);
unicode = 2022;
},
{
glyphname = sterling;
layers = (
{
components = (
{
alignment = -1;
name = hyphen;
transform = "{1, 0, 0, 1, -18, 38}";
}
);
layerId = "f35759b4-f9e3-4796-9f66-20855be2e20d";
paths = (
{
closed = 1;
nodes = (
"85 0 OFFCURVE",
"167 0 OFFCURVE",
"167 0 CURVE",
"177 585 OFFCURVE",
"297 705 OFFCURVE",
"370 675 CURVE SMOOTH",
"432 649 OFFCURVE",
"444 553 OFFCURVE",
"366 428 CURVE",
"568 428 LINE",
"531 639 OFFCURVE",
"382 708 OFFCURVE",
"265 708 CURVE SMOOTH",
"97 708 OFFCURVE",
"54 625 OFFCURVE",
"85 0 CURVE"
);
},
{
closed = 1;
nodes = (
"182 12 LINE",
"146 12 LINE",
"146 0 LINE",
"182 0 LINE"
);
},
{
closed = 1;
nodes = (
"186 0 LINE",
"194 133 OFFCURVE",
"272 66 OFFCURVE",
"353 28 CURVE SMOOTH",
"424 -5 OFFCURVE",
"504 -32 OFFCURVE",
"567 16 CURVE",
"561 144 LINE",
"493 105 OFFCURVE",
"423 131 OFFCURVE",
"311 156 CURVE SMOOTH",
"253 169 OFFCURVE",
"181 140 OFFCURVE",
"176 0 CURVE"
);
}
);
width = 582;
}
);
unicode = 00A3;
},
{
glyphname = yen;
layers = (
{
layerId = "f35759b4-f9e3-4796-9f66-20855be2e20d";
paths = (
{
closed = 1;
nodes = (
"598 700 LINE",
"321 0 LINE",
"136 0 LINE",
"136 0 OFFCURVE",
"374 335 OFFCURVE",
"499 700 CURVE"
);
},
{
closed = 1;
nodes = (
"488 700 LINE",
"429 539 OFFCURVE",
"285 291 OFFCURVE",
"192 227 CURVE",
"-18 227 OFFCURVE",
"146 430 OFFCURVE",
"9 700 CURVE",
"184 700 LINE",
"184 700 OFFCURVE",
"237 651 OFFCURVE",
"211 536 CURVE SMOOTH",
"184 413 OFFCURVE",
"53 299 OFFCURVE",
"110 271 CURVE SMOOTH",
"176 239 OFFCURVE",
"389 467 OFFCURVE",
"475 700 CURVE"
);
},
{
closed = 1;
nodes = (
"514 688 LINE",
"478 688 LINE",
"478 700 LINE",
"514 700 LINE"
);
},
{
closed = 1;
nodes = (
"490 154 LINE",
"155 154 LINE",
"152 180 LINE",
"488 180 LINE"
);
},
{
closed = 1;
nodes = (
"486 221 LINE",
"358 221 LINE",
"355 247 LINE",
"484 247 LINE"
);
}
);
width = 597;
}
);
unicode = 00A5;
},
{
glyphname = dagger;
lastChange = "2021-04-28 07:09:40 +0000";
layers = (
{
layerId = "f35759b4-f9e3-4796-9f66-20855be2e20d";
paths = (
{
closed = 1;
nodes = (
"89 271 LINE SMOOTH",
"119 271 OFFCURVE",
"139 291 OFFCURVE",
"139 321 CURVE SMOOTH",
"139 700 LINE",
"165 700 LINE",
"165 321 LINE SMOOTH",
"165 291 OFFCURVE",
"185 271 OFFCURVE",
"215 271 CURVE SMOOTH",
"307 271 LINE",
"309 245 LINE",
"215 245 LINE SMOOTH",
"185 245 OFFCURVE",
"165 225 OFFCURVE",
"165 195 CURVE SMOOTH",
"165 -190 LINE",
"139 -190 LINE",
"139 195 LINE SMOOTH",
"139 225 OFFCURVE",
"119 245 OFFCURVE",
"89 245 CURVE SMOOTH",
"-26 245 LINE",
"-29 271 LINE"
);
}
);
width = 283;
}
);
unicode = 2020;
},
{
glyphname = daggerdbl;
lastChange = "2021-04-28 07:09:35 +0000";
layers = (
{
layerId = "f35759b4-f9e3-4796-9f66-20855be2e20d";
paths = (
{
closed = 1;
nodes = (
"105 220 LINE SMOOTH",
"131 220 OFFCURVE",
"149 238 OFFCURVE",
"149 264 CURVE SMOOTH",
"149 291 OFFCURVE",
"131 309 OFFCURVE",
"105 309 CURVE SMOOTH",
"-23 309 LINE",
"-26 335 LINE",
"99 335 LINE SMOOTH",
"129 335 OFFCURVE",
"149 355 OFFCURVE",
"149 385 CURVE SMOOTH",
"149 700 LINE",
"175 700 LINE",
"175 385 LINE SMOOTH",
"175 355 OFFCURVE",
"195 335 OFFCURVE",
"225 335 CURVE SMOOTH",
"350 335 LINE",
"352 309 LINE",
"219 309 LINE SMOOTH",
"193 309 OFFCURVE",
"175 291 OFFCURVE",
"175 265 CURVE SMOOTH",
"175 238 OFFCURVE",
"193 220 OFFCURVE",
"219 220 CURVE SMOOTH",
"350 220 LINE",
"352 194 LINE",
"225 194 LINE SMOOTH",
"195 194 OFFCURVE",
"175 174 OFFCURVE",
"175 144 CURVE SMOOTH",
"175 -190 LINE",
"149 -190 LINE",
"149 144 LINE SMOOTH",
"149 174 OFFCURVE",
"129 194 OFFCURVE",
"99 194 CURVE SMOOTH",
"-23 194 LINE",
"-26 220 LINE"
);
}
);
width = 325;
}
);
unicode = 2021;
},
{
glyphname = mu;
layers = (
{
layerId = "f35759b4-f9e3-4796-9f66-20855be2e20d";
paths = (
{
closed = 1;
nodes = (
"140 500 LINE",
"11 176 OFFCURVE",
"19 -3 OFFCURVE",
"82 -203 CURVE",
"242 -203 LINE",
"94 19 OFFCURVE",
"39 201 OFFCURVE",
"153 500 CURVE"
);
},
{
closed = 1;
nodes = (
"539 492 LINE",
"539 492 LINE",
"539 492 LINE",
"539 492 LINE"
);
},
{
closed = 1;
nodes = (
"501 500 LINE",
"474 142 OFFCURVE",
"319 -4 OFFCURVE",
"248 24 CURVE SMOOTH",
"195 45 OFFCURVE",
"206 155 OFFCURVE",
"250 281 CURVE SMOOTH",
"292 401 OFFCURVE",
"336 500 OFFCURVE",
"336 500 CURVE",
"163 500 LINE",
"163 500 OFFCURVE",
"116 342 OFFCURVE",
"116 250 CURVE SMOOTH",
"116 95 OFFCURVE",
"215 -10 OFFCURVE",
"337 -10 CURVE",
"411 12 OFFCURVE",
"502 249 OFFCURVE",
"513 500 CURVE"
);
},
{
closed = 1;
nodes = (
"582 500 LINE",
"523 500 LINE",
"523 176 OFFCURVE",
"458 18 OFFCURVE",
"448 0 CURVE",
"609 0 LINE"
);
},
{
closed = 1;
nodes = (
"543 488 LINE",
"543 500 LINE",
"507 500 LINE",
"507 488 LINE"
);
},
{
closed = 1;
nodes = (
"178 488 LINE",
"178 500 LINE",
"142 500 LINE",
"142 488 LINE"
);
}
);
width = 600;
}
);
unicode = 03BC;
},
{
glyphname = quotedblbase;
layers = (
{
layerId = "f35759b4-f9e3-4796-9f66-20855be2e20d";
paths = (
{
closed = 1;
nodes = (
"143 114 OFFCURVE",
"114 141 OFFCURVE",
"79 141 CURVE SMOOTH",
"44 141 OFFCURVE",
"15 111 OFFCURVE",
"15 66 CURVE SMOOTH",
"15 21 OFFCURVE",
"44 -10 OFFCURVE",
"79 -10 CURVE SMOOTH",
"107 -10 OFFCURVE",
"133 -13 OFFCURVE",
"64 -127 CURVE",
"78 -127 LINE",
"131 -46 OFFCURVE",
"143 25 OFFCURVE",
"143 66 CURVE SMOOTH"
);
},
{
closed = 1;
nodes = (
"291 114 OFFCURVE",
"262 141 OFFCURVE",
"227 141 CURVE SMOOTH",
"192 141 OFFCURVE",
"163 111 OFFCURVE",
"163 66 CURVE SMOOTH",
"163 21 OFFCURVE",
"192 -10 OFFCURVE",
"227 -10 CURVE SMOOTH",
"255 -10 OFFCURVE",
"281 -13 OFFCURVE",
"212 -127 CURVE",
"226 -127 LINE",
"279 -46 OFFCURVE",
"291 25 OFFCURVE",
"291 66 CURVE SMOOTH"
);
}
);
width = 317;
}
);
leftKerningGroup = comma;
unicode = 201E;
},
{
glyphname = quotesinglbase;
layers = (
{
layerId = "f35759b4-f9e3-4796-9f66-20855be2e20d";
paths = (
{
closed = 1;
nodes = (
"121 114 OFFCURVE",
"92 141 OFFCURVE",
"57 141 CURVE SMOOTH",
"22 141 OFFCURVE",
"-7 111 OFFCURVE",
"-7 66 CURVE SMOOTH",
"-7 21 OFFCURVE",
"22 -10 OFFCURVE",
"57 -10 CURVE SMOOTH",
"85 -10 OFFCURVE",
"111 -13 OFFCURVE",
"42 -127 CURVE",
"56 -127 LINE",
"109 -46 OFFCURVE",
"121 25 OFFCURVE",
"121 66 CURVE SMOOTH"
);
}
);
width = 130;
}
);
leftKerningGroup = comma;
rightKerningGroup = comma1;
unicode = 201A;
},
{
glyphname = macron;
lastChange = "2021-04-28 07:09:38 +0000";
layers = (
{
layerId = "f35759b4-f9e3-4796-9f66-20855be2e20d";
paths = (
{
closed = 1;
nodes = (
"309 588 LINE",
"64 588 LINE",
"61 614 LINE",
"307 614 LINE"
);
}
);
width = 333;
}
);
unicode = 00AF;
},
{
glyphname = uni0431.alt;
layers = (
{
layerId = "f35759b4-f9e3-4796-9f66-20855be2e20d";
paths = (
{
closed = 1;
nodes = (
"415 521 LINE",
"445 515 LINE",
"448 505 LINE",
"415 509 LINE"
);
},
{
closed = 1;
nodes = (
"527 510 OFFCURVE",
"625 406 OFFCURVE",
"626 250 CURVE SMOOTH",
"625 95 OFFCURVE",
"527 -10 OFFCURVE",
"405 -9 CURVE SMOOTH",
"282 -9 OFFCURVE",
"186 94 OFFCURVE",
"186 250 CURVE SMOOTH",
"186 407 OFFCURVE",
"282 510 OFFCURVE",
"404 510 CURVE SMOOTH"
);
},
{
closed = 1;
nodes = (
"537 350 OFFCURVE",
"535 463 OFFCURVE",
"487 479 CURVE SMOOTH",
"438 495 OFFCURVE",
"365 406 OFFCURVE",
"319 279 CURVE SMOOTH",
"272 149 OFFCURVE",
"275 37 OFFCURVE",
"324 19 CURVE SMOOTH",
"371 3 OFFCURVE",
"448 89 OFFCURVE",
"493 219 CURVE SMOOTH"
);
},
{
closed = 1;
nodes = (
"527 510 OFFCURVE",
"625 406 OFFCURVE",
"626 250 CURVE SMOOTH",
"625 95 OFFCURVE",
"527 -10 OFFCURVE",
"405 -9 CURVE SMOOTH",
"282 -9 OFFCURVE",
"186 94 OFFCURVE",
"186 250 CURVE SMOOTH",
"186 407 OFFCURVE",
"282 510 OFFCURVE",
"404 510 CURVE SMOOTH"
);
},
{
closed = 1;
nodes = (
"537 350 OFFCURVE",
"535 463 OFFCURVE",
"487 479 CURVE SMOOTH",
"438 495 OFFCURVE",
"365 406 OFFCURVE",
"319 279 CURVE SMOOTH",
"272 149 OFFCURVE",
"275 37 OFFCURVE",
"324 19 CURVE SMOOTH",
"371 3 OFFCURVE",
"448 89 OFFCURVE",
"493 219 CURVE SMOOTH"
);
},
{
closed = 1;
nodes = (
"497 475 LINE",
"333 565 OFFCURVE",
"319 574 OFFCURVE",
"229 623 CURVE SMOOTH",
"-15 756 OFFCURVE",
"-55 877 OFFCURVE",
"48 877 CURVE SMOOTH",
"109 877 OFFCURVE",
"188 848 OFFCURVE",
"311 791 CURVE SMOOTH",
"467 720 OFFCURVE",
"532 718 OFFCURVE",
"663 803 CURVE SMOOTH",
"747 858 OFFCURVE",
"782 954 OFFCURVE",
"747 980 CURVE SMOOTH",
"694 1019 OFFCURVE",
"611 969 OFFCURVE",
"475 845 CURVE",
"463 1013 LINE",
"463 1013 OFFCURVE",
"551 1040 OFFCURVE",
"603 1040 CURVE SMOOTH",
"718 1040 OFFCURVE",
"817 971 OFFCURVE",
"817 844 CURVE SMOOTH",
"817 743 OFFCURVE",
"733 643 OFFCURVE",
"622 643 CURVE",
"367 752 OFFCURVE",
"348 762 OFFCURVE",
"304 781 CURVE SMOOTH",
"155 844 OFFCURVE",
"90 723 OFFCURVE",
"249 629 CURVE SMOOTH",
"346 572 OFFCURVE",
"360 564 OFFCURVE",
"502 486 CURVE"
);
}
);
width = 828;
}
);
},
{
glyphname = uni20BD;
layers = (
{
components = (
{
alignment = -1;
name = hyphen;
transform = "{1, 0, 0, 1, -11, 38}";
}
);
layerId = "f35759b4-f9e3-4796-9f66-20855be2e20d";
paths = (
{
closed = 1;
nodes = (
"200 0 LINE",
"236 488 OFFCURVE",
"416 708 OFFCURVE",
"500 677 CURVE SMOOTH",
"564 653 OFFCURVE",
"549 529 OFFCURVE",
"499 383 CURVE SMOOTH",
"448 237 OFFCURVE",
"373 141 OFFCURVE",
"312 157 CURVE SMOOTH",
"295 161 OFFCURVE",
"258 181 OFFCURVE",
"225 221 CURVE",
"220 207 LINE",
"274 146 OFFCURVE",
"344 125 OFFCURVE",
"404 125 CURVE SMOOTH",
"541 125 OFFCURVE",
"665 242 OFFCURVE",
"665 417 CURVE SMOOTH",
"665 592 OFFCURVE",
"547 710 OFFCURVE",
"396 710 CURVE",
"297 690 OFFCURVE",
"205 347 OFFCURVE",
"189 0 CURVE"
);
},
{
closed = 1;
nodes = (
"70 700 LINE",
"102 0 LINE",
"179 0 LINE",
"179 324 OFFCURVE",
"233 700 OFFCURVE",
"233 700 CURVE"
);
},
{
closed = 1;
nodes = (
"197 12 LINE",
"161 12 LINE",
"161 0 LINE",
"197 0 LINE"
);
},
{
closed = 1;
nodes = (
"158 247 LINE",
"29 247 LINE",
"32 221 LINE",
"160 221 LINE"
);
}
);
width = 676;
}
);
unicode = 20BD;
},
{
glyphname = fi;
layers = (
{
layerId = "f35759b4-f9e3-4796-9f66-20855be2e20d";
paths = (
{
closed = 1;
nodes = (
"172 476 OFFCURVE",
"116 256 OFFCURVE",
"105 12 CURVE",
"93 12 LINE",
"105 680 OFFCURVE",
"274 769 OFFCURVE",
"322 742 CURVE SMOOTH",
"348 727 OFFCURVE",
"330 653 OFFCURVE",
"294 610 CURVE",
"419 610 LINE",
"419 736 OFFCURVE",
"267 800 OFFCURVE",
"159 800 CURVE",
"92 779 OFFCURVE",
"0 621 OFFCURVE",
"34 0 CURVE",
"117 0 LINE",
"148 404 OFFCURVE",
"289 406 OFFCURVE",
"342 394 CURVE SMOOTH",
"401 381 OFFCURVE",
"411 304 OFFCURVE",
"324 271 CURVE",
"303 94 OFFCURVE",
"265 0 OFFCURVE",
"265 0 CURVE",
"419 0 LINE",
"394 487 LINE",
"394 487 OFFCURVE",
"313 497 OFFCURVE",
"244 497 CURVE"
);
},
{
closed = 1;
nodes = (
"294 610 LINE",
"294 566 OFFCURVE",
"322 537 OFFCURVE",
"357 537 CURVE SMOOTH",
"391 537 OFFCURVE",
"419 566 OFFCURVE",
"419 610 CURVE SMOOTH",
"419 654 OFFCURVE",
"391 684 OFFCURVE",
"357 684 CURVE"
);
}
);
width = 444;
}
);
leftKerningGroup = fi;
unicode = FB01;
},
{
glyphname = fl;
layers = (
{
layerId = "f35759b4-f9e3-4796-9f66-20855be2e20d";
paths = (
{
closed = 1;
nodes = (
"352 766 LINE",
"387 0 LINE",
"446 0 LINE",
"446 316 OFFCURVE",
"497 766 OFFCURVE",
"497 766 CURVE"
);
},
{
closed = 1;
nodes = (
"318 479 LINE",
"292 491 OFFCURVE",
"276 497 OFFCURVE",
"247 497 CURVE",
"175 476 OFFCURVE",
"118 256 OFFCURVE",
"107 12 CURVE",
"96 12 LINE",
"108 680 OFFCURVE",
"281 804 OFFCURVE",
"330 777 CURVE SMOOTH",
"356 762 OFFCURVE",
"356 676 OFFCURVE",
"359 606 CURVE",
"497 766 LINE",
"497 766 OFFCURVE",
"352 800 OFFCURVE",
"162 800 CURVE",
"95 779 OFFCURVE",
"3 621 OFFCURVE",
"37 0 CURVE",
"119 0 LINE",
"156 357 OFFCURVE",
"255 390 OFFCURVE",
"323 355 CURVE"
);
}
);
width = 527;
}
);
leftKerningGroup = fi;
unicode = FB02;
},
{
glyphname = igrave;
layers = (
{
components = (
{
alignment = -1;
name = grave;
transform = "{1, 0, 0, 1, -23.224, 0}";
}
);
layerId = "f35759b4-f9e3-4796-9f66-20855be2e20d";
paths = (
{
closed = 1;
nodes = (
"99 500 LINE",
"99 175 OFFCURVE",
"34 17 OFFCURVE",
"24 -1 CURVE",
"185 -1 LINE",
"158 500 LINE"
);
}
);
width = 230;
}
);
leftKerningGroup = igrave;
rightKerningGroup = i1;
unicode = 00EC;
},
{
glyphname = iacute;
layers = (
{
components = (
{
alignment = -1;
name = acute;
transform = "{1, 0, 0, 1, 29.674, 0}";
}
);
layerId = "f35759b4-f9e3-4796-9f66-20855be2e20d";
paths = (
{
closed = 1;
nodes = (
"99 500 LINE",
"99 175 OFFCURVE",
"34 17 OFFCURVE",
"24 -1 CURVE",
"185 -1 LINE",
"158 500 LINE"
);
}
);
width = 230;
}
);
leftKerningGroup = i;
rightKerningGroup = i1;
unicode = 00ED;
},
{
glyphname = icircumflex;
layers = (
{
components = (
{
alignment = -1;
name = circumflex;
transform = "{1, 0, 0, 1, -48.141, 0}";
}
);
layerId = "f35759b4-f9e3-4796-9f66-20855be2e20d";
paths = (
{
closed = 1;
nodes = (
"99 500 LINE",
"99 175 OFFCURVE",
"34 17 OFFCURVE",
"24 -1 CURVE",
"185 -1 LINE",
"158 500 LINE"
);
}
);
width = 230;
}
);
leftKerningGroup = igrave;
rightKerningGroup = i1;
unicode = 00EE;
},
{
glyphname = idieresis;
layers = (
{
components = (
{
alignment = -1;
name = dieresis;
transform = "{1, 0, 0, 1, -103.024, 0}";
}
);
layerId = "f35759b4-f9e3-4796-9f66-20855be2e20d";
paths = (
{
closed = 1;
nodes = (
"99 500 LINE",
"99 175 OFFCURVE",
"34 17 OFFCURVE",
"24 -1 CURVE",
"185 -1 LINE",
"158 500 LINE"
);
}
);
width = 230;
}
);
leftKerningGroup = i;
rightKerningGroup = i1;
unicode = 00EF;
},
{
glyphname = oslash;
layers = (
{
components = (
{
alignment = -1;
name = o;
}
);
layerId = "f35759b4-f9e3-4796-9f66-20855be2e20d";
paths = (
{
closed = 1;
nodes = (
"360 611 LINE",
"154 -105 LINE",
"126 -105 LINE",
"332 611 LINE"
);
}
);
width = 493;
}
);
unicode = 00F8;
},
{
glyphname = Aogonek;
layers = (
{
components = (
{
alignment = -1;
name = A;
}
);
layerId = "f35759b4-f9e3-4796-9f66-20855be2e20d";
paths = (
{
closed = 1;
nodes = (
"605 -188 LINE",
"583 -243 OFFCURVE",
"499 -293 OFFCURVE",
"465 -233 CURVE SMOOTH",
"434 -178 OFFCURVE",
"520 -113 OFFCURVE",
"520 0 CURVE",
"708 0 LINE",
"433 0 OFFCURVE",
"494 -214 OFFCURVE",
"600 -182 CURVE"
);
}
);
width = 714;
}
);
unicode = 0104;
},
{
glyphname = aogonek;
layers = (
{
components = (
{
alignment = -1;
name = a;
}
);
layerId = "f35759b4-f9e3-4796-9f66-20855be2e20d";
paths = (
{
closed = 1;
nodes = (
"389 -188 LINE",
"367 -243 OFFCURVE",
"283 -293 OFFCURVE",
"249 -233 CURVE SMOOTH",
"218 -178 OFFCURVE",
"286 -98 OFFCURVE",
"326 0 CURVE",
"486 0 LINE",
"211 0 OFFCURVE",
"278 -214 OFFCURVE",
"384 -182 CURVE"
);
}
);
width = 515;
}
);
unicode = 0105;
},
{
glyphname = eogonek;
layers = (
{
components = (
{
alignment = -1;
name = e;
transform = "{1, 0, 0, 1, -3, 0}";
}
);
layerId = "f35759b4-f9e3-4796-9f66-20855be2e20d";
paths = (
{
closed = 1;
nodes = (
"369 -184 LINE",
"347 -239 OFFCURVE",
"275 -280 OFFCURVE",
"229 -229 CURVE SMOOTH",
"179 -173 OFFCURVE",
"243 -63 OFFCURVE",
"307 8 CURVE",
"342 15 LINE",
"225 -43 OFFCURVE",
"258 -210 OFFCURVE",
"364 -178 CURVE"
);
}
);
width = 488;
}
);
unicode = 0119;
},
{
glyphname = itilde;
layers = (
{
components = (
{
alignment = -1;
name = tilde;
transform = "{1, 0, 0, 1, -65.141, 0}";
}
);
layerId = "f35759b4-f9e3-4796-9f66-20855be2e20d";
paths = (
{
closed = 1;
nodes = (
"99 500 LINE",
"99 175 OFFCURVE",
"34 17 OFFCURVE",
"24 -1 CURVE",
"185 -1 LINE",
"158 500 LINE"
);
}
);
width = 230;
}
);
leftKerningGroup = i;
rightKerningGroup = i1;
unicode = 0129;
},
{
glyphname = Iogonek;
layers = (
{
components = (
{
alignment = -1;
name = I;
transform = "{1, 0, 0, 1, 0.333, 0}";
}
);
layerId = "f35759b4-f9e3-4796-9f66-20855be2e20d";
paths = (
{
closed = 1;
nodes = (
"172 -188 LINE",
"150 -243 OFFCURVE",
"66 -293 OFFCURVE",
"32 -233 CURVE SMOOTH",
"1 -178 OFFCURVE",
"68 -113 OFFCURVE",
"85 0 CURVE",
"247 0 LINE",
"-5 0 OFFCURVE",
"61 -214 OFFCURVE",
"167 -182 CURVE"
);
}
);
width = 273;
}
);
rightKerningGroup = I1;
unicode = 012E;
},
{
glyphname = iogonek;
layers = (
{
components = (
{
alignment = -1;
name = i;
transform = "{1, 0, 0, 1, -0.034, 0}";
}
);
layerId = "f35759b4-f9e3-4796-9f66-20855be2e20d";
paths = (
{
closed = 1;
nodes = (
"93 -188 LINE",
"71 -243 OFFCURVE",
"-13 -293 OFFCURVE",
"-47 -233 CURVE SMOOTH",
"-78 -178 OFFCURVE",
"-19 -108 OFFCURVE",
"26 0 CURVE",
"187 0 LINE",
"-88 0 OFFCURVE",
"-18 -214 OFFCURVE",
"88 -182 CURVE"
);
}
);
width = 232;
}
);
unicode = 012F;
},
{
glyphname = jcircumflex;
layers = (
{
components = (
{
alignment = -1;
name = circumflex;
transform = "{1, 0, 0, 1, -81, 10}";
}
);
layerId = "f35759b4-f9e3-4796-9f66-20855be2e20d";
paths = (
{
closed = 1;
nodes = (
"-186 -274 LINE",
"-124 -305 OFFCURVE",
"-52 -322 OFFCURVE",
"1 -322 CURVE",
"82 -290 OFFCURVE",
"160 -116 OFFCURVE",
"128 500 CURVE",
"68 500 LINE",
"54 -243 OFFCURVE",
"-130 -294 OFFCURVE",
"-186 -261 CURVE"
);
}
);
width = 72;
}
);
leftKerningGroup = j;
rightKerningGroup = g11;
unicode = 0135;
},
{
glyphname = uogonek;
layers = (
{
components = (
{
alignment = -1;
name = u;
}
);
layerId = "f35759b4-f9e3-4796-9f66-20855be2e20d";
paths = (
{
closed = 1;
nodes = (
"428 -188 LINE",
"406 -243 OFFCURVE",
"322 -293 OFFCURVE",
"288 -233 CURVE SMOOTH",
"257 -178 OFFCURVE",
"319 -98 OFFCURVE",
"364 0 CURVE",
"524 0 LINE",
"249 0 OFFCURVE",
"317 -214 OFFCURVE",
"423 -182 CURVE"
);
}
);
width = 557;
}
);
unicode = 0173;
},
{
glyphname = uni0162;
layers = (
{
components = (
{
alignment = -1;
name = T;
transform = "{1, 0, 0, 1, -110, 0}";
}
);
layerId = "f35759b4-f9e3-4796-9f66-20855be2e20d";
paths = (
{
closed = 1;
nodes = (
"143 -185 LINE",
"192 -185 OFFCURVE",
"255 -160 OFFCURVE",
"268 -96 CURVE SMOOTH",
"276 -60 OFFCURVE",
"262 -29 OFFCURVE",
"213 -21 CURVE",
"215 -8 LINE",
"305 -21 OFFCURVE",
"366 -82 OFFCURVE",
"345 -145 CURVE SMOOTH",
"332 -181 OFFCURVE",
"301 -218 OFFCURVE",
"280 -225 CURVE",
"242 -225 OFFCURVE",
"189 -215 OFFCURVE",
"143 -197 CURVE"
);
},
{
closed = 1;
nodes = (
"228 14 LINE",
"225 -22 LINE",
"213 -21 LINE",
"215 0 LINE"
);
}
);
width = 406;
}
);
unicode = 0162;
},
{
glyphname = ae;
layers = (
{
components = (
{
alignment = -1;
name = e;
transform = "{1, 0, 0, 1, 324, 0}";
}
);
layerId = "f35759b4-f9e3-4796-9f66-20855be2e20d";
paths = (
{
closed = 1;
nodes = (
"141 510 OFFCURVE",
"65 478 OFFCURVE",
"65 478 CURVE",
"73 324 LINE",
"73 324 OFFCURVE",
"249 500 OFFCURVE",
"323 480 CURVE",
"368 465 OFFCURVE",
"370 353 OFFCURVE",
"338 244 CURVE",
"248 341 OFFCURVE",
"33 343 OFFCURVE",
"33 167 CURVE SMOOTH",
"33 57 OFFCURVE",
"118 -10 OFFCURVE",
"243 -10 CURVE SMOOTH",
"365 -10 OFFCURVE",
"463 94 OFFCURVE",
"463 250 CURVE SMOOTH",
"463 405 OFFCURVE",
"365 510 OFFCURVE",
"243 510 CURVE SMOOTH"
);
},
{
closed = 1;
nodes = (
"91 51 OFFCURVE",
"192 388 OFFCURVE",
"334 233 CURVE",
"292 114 OFFCURVE",
"215 -15 OFFCURVE",
"157 16 CURVE SMOOTH"
);
}
);
width = 822;
}
);
unicode = 00E6;
},
{
glyphname = AE;
layers = (
{
layerId = "f35759b4-f9e3-4796-9f66-20855be2e20d";
paths = (
{
closed = 1;
nodes = (
"618 0 LINE",
"582 0 LINE",
"582 12 LINE",
"618 12 LINE"
);
},
{
closed = 1;
nodes = (
"668 0 LINE",
"620 0 LINE",
"620 12 LINE",
"668 12 LINE"
);
},
{
closed = 1;
nodes = (
"582 700 LINE",
"582 700 OFFCURVE",
"602 324 OFFCURVE",
"602 0 CURVE",
"525 0 LINE",
"504 276 OFFCURVE",
"474 536 OFFCURVE",
"435 700 CURVE"
);
},
{
closed = 1;
nodes = (
"659 0 LINE",
"664 140 OFFCURVE",
"736 169 OFFCURVE",
"794 156 CURVE SMOOTH",
"906 131 OFFCURVE",
"976 105 OFFCURVE",
"1044 144 CURVE",
"1050 16 LINE",
"987 -32 OFFCURVE",
"907 -5 OFFCURVE",
"836 28 CURVE SMOOTH",
"755 66 OFFCURVE",
"677 133 OFFCURVE",
"669 0 CURVE"
);
},
{
closed = 1;
nodes = (
"636 0 LINE",
"653 289 OFFCURVE",
"759 382 OFFCURVE",
"830 410 CURVE",
"905 410 OFFCURVE",
"965 373 OFFCURVE",
"1040 400 CURVE",
"1040 400 OFFCURVE",
"1064 235 OFFCURVE",
"890 276 CURVE SMOOTH",
"832 290 OFFCURVE",
"668 348 OFFCURVE",
"648 0 CURVE"
);
},
{
closed = 1;
nodes = (
"613 0 LINE",
"623 343 OFFCURVE",
"713 643 OFFCURVE",
"782 708 CURVE",
"942 708 OFFCURVE",
"1033 691 OFFCURVE",
"1033 691 CURVE",
"1040 549 LINE",
"1040 549 OFFCURVE",
"909 596 OFFCURVE",
"842 569 CURVE SMOOTH",
"739 529 OFFCURVE",
"647 395 OFFCURVE",
"625 0 CURVE"
);
},
{
closed = 1;
nodes = (
"52 0 LINE",
"16 0 LINE",
"267 700 LINE",
"417 700 LINE",
"417 700 OFFCURVE",
"146 382 OFFCURVE",
"33 12 CURVE",
"52 12 LINE"
);
},
{
closed = 1;
nodes = (
"289 221 OFFCURVE",
"-42 254 OFFCURVE",
"207 0 CURVE",
"43 0 LINE",
"43 7 LINE",
"104 221 OFFCURVE",
"183 264 OFFCURVE",
"269 321 CURVE SMOOTH",
"394 403 OFFCURVE",
"456 485 OFFCURVE",
"413 697 CURVE",
"424 697 LINE",
"454 574 OFFCURVE",
"450 365 OFFCURVE",
"414 239 CURVE"
);
},
{
closed = 1;
nodes = (
"440 688 LINE",
"404 688 LINE",
"404 700 LINE",
"440 700 LINE"
);
}
);
width = 1077;
}
);
unicode = 00C6;
},
{
glyphname = imacron;
layers = (
{
layerId = "f35759b4-f9e3-4796-9f66-20855be2e20d";
paths = (
{
closed = 1;
nodes = (
"99 500 LINE",
"99 175 OFFCURVE",
"34 17 OFFCURVE",
"24 -1 CURVE",
"185 -1 LINE",
"158 500 LINE"
);
},
{
closed = 1;
nodes = (
"215 598 LINE",
"213 624 LINE",
"28 624 LINE",
"31 598 LINE"
);
}
);
width = 217;
}
);
leftKerningGroup = i;
rightKerningGroup = i1;
unicode = 012B;
},
{
glyphname = S.alt;
layers = (
{
layerId = "f35759b4-f9e3-4796-9f66-20855be2e20d";
paths = (
{
closed = 1;
nodes = (
"565 404 OFFCURVE",
"607 252 OFFCURVE",
"597 174 CURVE SMOOTH",
"586 94 OFFCURVE",
"530 32 OFFCURVE",
"428 -9 CURVE",
"231 -18 OFFCURVE",
"66 24 OFFCURVE",
"66 24 CURVE",
"57 178 LINE",
"230 105 OFFCURVE",
"534 78 OFFCURVE",
"564 219 CURVE SMOOTH",
"582 304 OFFCURVE",
"520 432 OFFCURVE",
"131 300 CURVE",
"-7 379 OFFCURVE",
"-51 619 OFFCURVE",
"188 710 CURVE",
"391 710 OFFCURVE",
"553 680 OFFCURVE",
"553 680 CURVE",
"561 531 LINE",
"561 531 OFFCURVE",
"487 559 OFFCURVE",
"355 578 CURVE SMOOTH",
"203 601 OFFCURVE",
"62 592 OFFCURVE",
"38 538 CURVE SMOOTH",
"13 484 OFFCURVE",
"82 435 OFFCURVE",
"301 421 CURVE SMOOTH"
);
}
);
width = 617;
}
);
},
{
glyphname = uni0444.alt;
layers = (
{
layerId = "f35759b4-f9e3-4796-9f66-20855be2e20d";
paths = (
{
closed = 1;
nodes = (
"522 329 OFFCURVE",
"678 505 OFFCURVE",
"746 478 CURVE SMOOTH",
"803 456 OFFCURVE",
"793 349 OFFCURVE",
"748 219 CURVE SMOOTH",
"703 90 OFFCURVE",
"634 5 OFFCURVE",
"579 19 CURVE SMOOTH",
"565 23 OFFCURVE",
"541 36 OFFCURVE",
"497 79 CURVE",
"495 64 LINE",
"544 10 OFFCURVE",
"608 -11 OFFCURVE",
"661 -11 CURVE SMOOTH",
"783 -11 OFFCURVE",
"882 94 OFFCURVE",
"882 250 CURVE SMOOTH",
"882 405 OFFCURVE",
"783 510 OFFCURVE",
"661 510 CURVE",
"587 488 OFFCURVE",
"467 262 OFFCURVE",
"460 -287 CURVE",
"579 -287 LINE",
"579 -287 OFFCURVE",
"484 -119 OFFCURVE",
"499 61 CURVE SMOOTH"
);
},
{
closed = 1;
nodes = (
"387 455 LINE",
"349 490 OFFCURVE",
"300 510 OFFCURVE",
"247 510 CURVE SMOOTH",
"126 510 OFFCURVE",
"27 405 OFFCURVE",
"27 250 CURVE SMOOTH",
"27 94 OFFCURVE",
"152 -11 OFFCURVE",
"273 -11 CURVE",
"347 11 OFFCURVE",
"383 237 OFFCURVE",
"395 488 CURVE",
"409 488 LINE",
"409 164 OFFCURVE",
"434 -287 OFFCURVE",
"434 -287 CURVE",
"435 -287 LINE",
"476 500 LINE",
"384 500 LINE",
"357 139 OFFCURVE",
"257 -9 OFFCURVE",
"188 19 CURVE SMOOTH",
"132 41 OFFCURVE",
"116 150 OFFCURVE",
"160 280 CURVE SMOOTH",
"205 410 OFFCURVE",
"273 488 OFFCURVE",
"325 478 CURVE SMOOTH",
"342 475 OFFCURVE",
"365 461 OFFCURVE",
"386 440 CURVE"
);
},
{
closed = 1;
nodes = (
"446 -287 LINE",
"436 246 OFFCURVE",
"553 500 OFFCURVE",
"553 500 CURVE",
"446 500 LINE",
"434 -287 LINE"
);
},
{
closed = 1;
nodes = (
"478 -287 LINE",
"478 -275 LINE",
"442 -275 LINE",
"442 -287 LINE"
);
}
);
width = 909;
}
);
},
{
glyphname = X.ss01;
layers = (
{
layerId = "f35759b4-f9e3-4796-9f66-20855be2e20d";
paths = (
{
closed = 1;
nodes = (
"468 700 LINE",
"411 354 LINE",
"399 354 LINE",
"261 513 OFFCURVE",
"251 646 OFFCURVE",
"251 700 CURVE",
"4 700 LINE",
"310 368 LINE",
"255 121 OFFCURVE",
"22 0 OFFCURVE",
"22 0 CURVE",
"260 0 LINE",
"318 347 LINE",
"329 347 LINE",
"468 187 OFFCURVE",
"478 54 OFFCURVE",
"478 0 CURVE",
"725 0 LINE",
"418 334 LINE",
"473 580 OFFCURVE",
"706 700 OFFCURVE",
"706 700 CURVE"
);
}
);
width = 729;
}
);
},
{
glyphname = X.alt;
layers = (
{
layerId = "f35759b4-f9e3-4796-9f66-20855be2e20d";
paths = (
{
closed = 1;
nodes = (
"438 235 OFFCURVE",
"495 98 OFFCURVE",
"515 0 CURVE",
"733 0 LINE",
"416 342 LINE",
"277 502 OFFCURVE",
"258 646 OFFCURVE",
"258 700 CURVE",
"10 700 LINE",
"10 700 OFFCURVE",
"215 476 OFFCURVE",
"327 355 CURVE SMOOTH"
);
},
{
closed = 1;
nodes = (
"446 -10 OFFCURVE",
"268 571 OFFCURVE",
"552 571 CURVE SMOOTH",
"625 571 OFFCURVE",
"711 526 OFFCURVE",
"711 526 CURVE",
"704 691 LINE",
"704 691 OFFCURVE",
"657 708 OFFCURVE",
"497 708 CURVE",
"398 619 OFFCURVE",
"277 -83 OFFCURVE",
"131 16 CURVE SMOOTH",
"58 66 OFFCURVE",
"160 379 OFFCURVE",
"286 315 CURVE SMOOTH",
"350 282 OFFCURVE",
"453 156 OFFCURVE",
"489 0 CURVE",
"503 0 LINE",
"463 166 OFFCURVE",
"344 358 OFFCURVE",
"194 358 CURVE SMOOTH",
"76 358 OFFCURVE",
"-5 292 OFFCURVE",
"-5 170 CURVE SMOOTH",
"-5 49 OFFCURVE",
"93 -10 OFFCURVE",
"194 -10 CURVE SMOOTH"
);
},
{
closed = 1;
nodes = (
"529 12 LINE",
"493 12 LINE",
"493 0 LINE",
"529 0 LINE"
);
}
);
width = 729;
}
);
},
{
glyphname = x.alt;
layers = (
{
layerId = "f35759b4-f9e3-4796-9f66-20855be2e20d";
paths = (
{
closed = 1;
nodes = (
"326 -9 OFFCURVE",
"166 388 OFFCURVE",
"412 388 CURVE SMOOTH",
"459 388 OFFCURVE",
"511 360 OFFCURVE",
"511 360 CURVE",
"505 494 LINE",
"505 494 OFFCURVE",
"442 511 OFFCURVE",
"349 511 CURVE",
"293 440 OFFCURVE",
"200 -10 OFFCURVE",
"111 13 CURVE SMOOTH",
"63 26 OFFCURVE",
"93 145 OFFCURVE",
"174 264 CURVE",
"18 264 LINE",
"-14 98 OFFCURVE",
"69 -9 OFFCURVE",
"153 -9 CURVE SMOOTH"
);
},
{
closed = 1;
nodes = (
"301 244 LINE",
"195 358 OFFCURVE",
"166 462 OFFCURVE",
"166 501 CURVE",
"0 501 LINE",
"220 268 LINE SMOOTH",
"327 155 OFFCURVE",
"365 39 OFFCURVE",
"365 1 CURVE",
"530 1 LINE"
);
}
);
width = 519;
}
);
},
{
glyphname = uni0425.alt;
layers = (
{
layerId = "f35759b4-f9e3-4796-9f66-20855be2e20d";
paths = (
{
closed = 1;
nodes = (
"468 700 LINE",
"411 354 LINE",
"399 354 LINE",
"261 513 OFFCURVE",
"251 646 OFFCURVE",
"251 700 CURVE",
"4 700 LINE",
"310 368 LINE",
"255 121 OFFCURVE",
"22 0 OFFCURVE",
"22 0 CURVE",
"260 0 LINE",
"318 347 LINE",
"329 347 LINE",
"468 187 OFFCURVE",
"478 54 OFFCURVE",
"478 0 CURVE",
"725 0 LINE",
"418 334 LINE",
"473 580 OFFCURVE",
"706 700 OFFCURVE",
"706 700 CURVE"
);
}
);
width = 729;
}
);
},
{
glyphname = uni0445.alt;
layers = (
{
layerId = "f35759b4-f9e3-4796-9f66-20855be2e20d";
paths = (
{
closed = 1;
nodes = (
"326 -9 OFFCURVE",
"166 388 OFFCURVE",
"412 388 CURVE SMOOTH",
"459 388 OFFCURVE",
"511 360 OFFCURVE",
"511 360 CURVE",
"505 494 LINE",
"505 494 OFFCURVE",
"442 511 OFFCURVE",
"349 511 CURVE",
"293 440 OFFCURVE",
"200 -10 OFFCURVE",
"111 13 CURVE SMOOTH",
"63 26 OFFCURVE",
"93 145 OFFCURVE",
"174 264 CURVE",
"18 264 LINE",
"-14 98 OFFCURVE",
"69 -9 OFFCURVE",
"153 -9 CURVE SMOOTH"
);
},
{
closed = 1;
nodes = (
"301 244 LINE",
"195 358 OFFCURVE",
"166 462 OFFCURVE",
"166 501 CURVE",
"0 501 LINE",
"220 268 LINE SMOOTH",
"327 155 OFFCURVE",
"365 39 OFFCURVE",
"365 1 CURVE",
"530 1 LINE"
);
}
);
width = 519;
}
);
},
{
glyphname = uni0414.alt;
layers = (
{
layerId = "f35759b4-f9e3-4796-9f66-20855be2e20d";
paths = (
{
closed = 1;
nodes = (
"751 11 OFFCURVE",
"798 -45 OFFCURVE",
"798 -138 CURVE SMOOTH",
"798 -161 OFFCURVE",
"790 -191 OFFCURVE",
"780 -218 CURVE",
"586 -218 LINE",
"675 -97 OFFCURVE",
"684 -14 OFFCURVE",
"559 -3 CURVE SMOOTH",
"218 26 OFFCURVE",
"43 -241 OFFCURVE",
"43 -241 CURVE",
"43 -241 OFFCURVE",
"-4 -95 OFFCURVE",
"43 -33 CURVE SMOOTH",
"84 21 OFFCURVE",
"184 12 OFFCURVE",
"418 11 CURVE",
"534 11 OFFCURVE",
"629 11 OFFCURVE",
"629 11 CURVE"
);
},
{
closed = 1;
nodes = (
"222 0 LINE",
"232 333 OFFCURVE",
"372 645 OFFCURVE",
"442 710 CURVE",
"541 710 OFFCURVE",
"665 700 OFFCURVE",
"665 700 CURVE",
"697 0 LINE",
"535 0 LINE",
"535 0 OFFCURVE",
"559 177 OFFCURVE",
"579 450 CURVE",
"579 450 OFFCURVE",
"645 468 OFFCURVE",
"658 520 CURVE SMOOTH",
"680 607 OFFCURVE",
"518 602 OFFCURVE",
"416 516 CURVE",
"332 442 OFFCURVE",
"251 293 OFFCURVE",
"234 0 CURVE"
);
},
{
closed = 1;
nodes = (
"154 700 LINE",
"332 700 LINE",
"332 700 OFFCURVE",
"212 324 OFFCURVE",
"212 0 CURVE",
"134 0 LINE"
);
}
);
width = 820;
}
);
},
